<?xml version="1.0" encoding="UTF-8"?>
<svg width="232px" height="48px" viewBox="0 0 232 48" version="1.1" xmlns="http://www.w3.org/2000/svg" xmlns:xlink="http://www.w3.org/1999/xlink">
    <!-- Generator: Sketch 50 (54983) - http://www.bohemiancoding.com/sketch -->
    <title>ecritures-numériques-logo</title>
    <desc>Created with Sketch.</desc>
    <defs></defs>
    <g id="Toutes-les-pages" stroke="none" stroke-width="1" fill="none" fill-rule="evenodd">
        <g id="Logo---Couleur" transform="translate(-40.000000, -40.000000)">
            <g id="ecritures-numériques-logo" transform="translate(40.000000, 40.000000)">
                <g id="Texte" transform="translate(47.000000, 3.000000)">
                    <path d="M21.464,38.824 L21.464,39.488 C21.2293322,39.3653327 21.0186676,39.2773336 20.832,39.224 C20.6453324,39.1706664 20.4000015,39.144 20.096,39.144 C19.5146638,39.144 19.0306686,39.3413314 18.644,39.736 C18.2573314,40.1306686 18.064,40.6453302 18.064,41.28 C18.064,41.9413366 18.2559981,42.4693314 18.64,42.864 C19.0240019,43.2586686 19.5333302,43.456 20.168,43.456 C20.6800026,43.456 21.1173315,43.3200014 21.48,43.048 L21.48,43.728 C21.1493317,43.9520011 20.6960029,44.064 20.12,44.064 C19.3093293,44.064 18.6506692,43.8146692 18.144,43.316 C17.6373308,42.8173308 17.384,42.138671 17.384,41.28 C17.384,40.4693293 17.6413308,39.8093359 18.156,39.3 C18.6706692,38.7906641 19.3173294,38.536 20.096,38.536 C20.6560028,38.536 21.1119982,38.631999 21.464,38.824 Z M23.224,38.344 L23.224,40.648 C23.4640012,40.1413308 23.8906636,39.888 24.504,39.888 C24.8933353,39.888 25.2066655,40.0079988 25.444,40.248 C25.6813345,40.4880012 25.8,40.8133313 25.8,41.224 L25.8,44 L25.168,44 L25.168,41.376 C25.168,41.0826652 25.0920008,40.8560008 24.94,40.696 C24.7879992,40.5359992 24.5893346,40.456 24.344,40.456 C24.0453318,40.456 23.7840011,40.5706655 23.56,40.8 C23.3359989,41.0293345 23.224,41.3573312 23.224,41.784 L23.224,44 L22.6,44 L22.6,38.344 L23.224,38.344 Z M29.304,42.128 L28.6,42.128 C28.258665,42.128 28.0026675,42.194666 27.832,42.328 C27.6613325,42.461334 27.576,42.6293323 27.576,42.832 C27.576,43.0346677 27.642666,43.198666 27.776,43.324 C27.909334,43.449334 28.1039987,43.512 28.36,43.512 C28.6480014,43.512 28.8773325,43.4306675 29.048,43.268 C29.2186675,43.1053325 29.304,42.8986679 29.304,42.648 L29.304,42.128 Z M27.208,40.792 L27.208,40.16 C27.5120015,39.9733324 27.9119975,39.88 28.408,39.88 C29.4266718,39.88 29.936,40.3973282 29.936,41.432 L29.936,44 L29.312,44 L29.312,43.52 C29.103999,43.8666684 28.7253361,44.04 28.176,44.04 C27.7973314,44.04 27.4920012,43.9280011 27.26,43.704 C27.0279988,43.4799989 26.912,43.197335 26.912,42.856 C26.912,42.4666647 27.0599985,42.1640011 27.356,41.948 C27.6520015,41.7319989 28.0559974,41.624 28.568,41.624 L29.304,41.624 L29.304,41.416 C29.304,41.0959984 29.2320007,40.8546675 29.088,40.692 C28.9439993,40.5293325 28.701335,40.448 28.36,40.448 C27.9279978,40.448 27.5440017,40.5626655 27.208,40.792 Z M31.288,44 L31.288,39.944 L31.92,39.944 L31.92,44 L31.288,44 Z M31.304,38.968 C31.229333,38.8879996 31.192,38.7893339 31.192,38.672 C31.192,38.5546661 31.2306663,38.4560004 31.308,38.376 C31.3853337,38.2959996 31.4826661,38.256 31.6,38.256 C31.7173339,38.256 31.8159996,38.2959996 31.896,38.376 C31.9760004,38.4560004 32.016,38.5546661 32.016,38.672 C32.016,38.7893339 31.9760004,38.8866663 31.896,38.964 C31.8159996,39.0413337 31.7173339,39.08 31.6,39.08 C31.4826661,39.08 31.3840004,39.042667 31.304,38.968 Z M33.944,39.944 L33.944,40.656 C34.1573344,40.1546642 34.5253307,39.904 35.048,39.904 C35.1440005,39.904 35.2186664,39.9093333 35.272,39.92 L35.272,40.544 C35.1599995,40.5066665 35.0453339,40.488 34.928,40.488 C34.6453319,40.488 34.4106676,40.6186654 34.224,40.88 C34.0373324,41.1413346 33.944,41.442665 33.944,41.784 L33.944,44 L33.312,44 L33.32,39.944 L33.944,39.944 Z M38.712,41.712 L38.712,41.552 C38.712,41.2159983 38.6213343,40.948001 38.44,40.748 C38.2586658,40.547999 38.0080016,40.448 37.688,40.448 C37.3839985,40.448 37.1253344,40.5573322 36.912,40.776 C36.6986656,40.9946678 36.5733335,41.3066646 36.536,41.712 L38.712,41.712 Z M39.088,43.2 L39.088,43.792 C38.7733318,43.9573342 38.3893356,44.04 37.936,44.04 C37.3226636,44.04 36.8280019,43.8520019 36.452,43.476 C36.0759981,43.0999981 35.888,42.6026698 35.888,41.984 C35.888,41.3386634 36.0559983,40.8293352 36.392,40.456 C36.7280017,40.0826648 37.1599974,39.896 37.688,39.896 C38.1946692,39.896 38.5973319,40.058665 38.896,40.384 C39.1946682,40.709335 39.344,41.1706637 39.344,41.768 C39.344,41.9386675 39.3306668,42.0959993 39.304,42.24 L36.536,42.24 C36.5840003,42.640002 36.7359987,42.9466656 36.992,43.16 C37.2480013,43.3733344 37.5839979,43.48 38,43.48 C38.4533356,43.48 38.8159987,43.3866676 39.088,43.2 Z M44.2,43.488 C44.5306683,43.488 44.8119989,43.3653346 45.044,43.12 C45.2760012,42.8746654 45.392,42.4826694 45.392,41.944 C45.392,41.4319974 45.2720012,41.0560012 45.032,40.816 C44.7919988,40.5759988 44.5280015,40.456 44.24,40.456 C43.9039983,40.456 43.6253345,40.5906653 43.404,40.86 C43.1826656,41.1293347 43.072,41.5146642 43.072,42.016 C43.072,42.4533355 43.1786656,42.8079986 43.392,43.08 C43.6053344,43.3520014 43.8746651,43.488 44.2,43.488 Z M45.392,38.344 L46.024,38.344 L46.024,44 L45.392,44 L45.392,43.4 C45.1039986,43.8426689 44.6880027,44.064 44.144,44.064 C43.6053307,44.064 43.1826682,43.864002 42.876,43.464 C42.5693318,43.063998 42.416,42.5786695 42.416,42.008 C42.416,41.3733302 42.5786651,40.860002 42.904,40.468 C43.229335,40.075998 43.6479975,39.88 44.16,39.88 C44.6880027,39.88 45.0986652,40.1066644 45.392,40.56 L45.392,38.344 Z M49.976,41.712 L49.976,41.552 C49.976,41.2159983 49.8853343,40.948001 49.704,40.748 C49.5226658,40.547999 49.2720016,40.448 48.952,40.448 C48.6479985,40.448 48.3893344,40.5573322 48.176,40.776 C47.9626656,40.9946678 47.8373335,41.3066646 47.8,41.712 L49.976,41.712 Z M50.352,43.2 L50.352,43.792 C50.0373318,43.9573342 49.6533356,44.04 49.2,44.04 C48.5866636,44.04 48.0920019,43.8520019 47.716,43.476 C47.3399981,43.0999981 47.152,42.6026698 47.152,41.984 C47.152,41.3386634 47.3199983,40.8293352 47.656,40.456 C47.9920017,40.0826648 48.4239974,39.896 48.952,39.896 C49.4586692,39.896 49.8613319,40.058665 50.16,40.384 C50.4586682,40.709335 50.608,41.1706637 50.608,41.768 C50.608,41.9386675 50.5946668,42.0959993 50.568,42.24 L47.8,42.24 C47.8480003,42.640002 47.9999987,42.9466656 48.256,43.16 C48.5120013,43.3733344 48.8479979,43.48 49.264,43.48 C49.7173356,43.48 50.0799987,43.3866676 50.352,43.2 Z M54.544,39.944 L54.544,40.656 C54.7573344,40.1546642 55.1253307,39.904 55.648,39.904 C55.7440005,39.904 55.8186664,39.9093333 55.872,39.92 L55.872,40.544 C55.7599995,40.5066665 55.6453339,40.488 55.528,40.488 C55.2453319,40.488 55.0106676,40.6186654 54.824,40.88 C54.6373324,41.1413346 54.544,41.442665 54.544,41.784 L54.544,44 L53.912,44 L53.92,39.944 L54.544,39.944 Z M59.312,41.712 L59.312,41.552 C59.312,41.2159983 59.2213343,40.948001 59.04,40.748 C58.8586658,40.547999 58.6080016,40.448 58.288,40.448 C57.9839985,40.448 57.7253344,40.5573322 57.512,40.776 C57.2986656,40.9946678 57.1733336,41.3066646 57.136,41.712 L59.312,41.712 Z M59.688,43.2 L59.688,43.792 C59.3733318,43.9573342 58.9893356,44.04 58.536,44.04 C57.9226636,44.04 57.4280019,43.8520019 57.052,43.476 C56.6759982,43.0999981 56.488,42.6026698 56.488,41.984 C56.488,41.3386634 56.6559984,40.8293352 56.992,40.456 C57.3280017,40.0826648 57.7599974,39.896 58.288,39.896 C58.7946692,39.896 59.1973319,40.058665 59.496,40.384 C59.7946682,40.709335 59.944,41.1706637 59.944,41.768 C59.944,41.9386675 59.9306668,42.0959993 59.904,42.24 L57.136,42.24 C57.1840003,42.640002 57.3359988,42.9466656 57.592,43.16 C57.8480013,43.3733344 58.183998,43.48 58.6,43.48 C59.0533356,43.48 59.4159987,43.3866676 59.688,43.2 Z M61.52,41.992 C61.5253334,42.4293355 61.6586654,42.7933319 61.92,43.084 C62.1813347,43.3746681 62.5519976,43.52 63.032,43.52 C63.3413349,43.52 63.629332,43.4320009 63.896,43.256 L63.896,43.856 C63.6399988,44.0106674 63.3253352,44.088 62.952,44.088 C62.3119968,44.088 61.8040019,43.884002 61.428,43.476 C61.0519982,43.067998 60.864,42.5706696 60.864,41.984 C60.864,41.4079971 61.0519982,40.9120021 61.428,40.496 C61.8040019,40.0799979 62.3173301,39.872 62.968,39.872 C63.3146684,39.872 63.6239987,39.9466659 63.896,40.096 L63.896,40.696 C63.6506655,40.5306658 63.3626684,40.448 63.032,40.448 C62.5733311,40.448 62.2066681,40.5959985 61.932,40.892 C61.657332,41.1880015 61.52,41.5546645 61.52,41.992 Z M65.696,38.344 L65.696,40.648 C65.9360012,40.1413308 66.3626636,39.888 66.976,39.888 C67.3653353,39.888 67.6786655,40.0079988 67.916,40.248 C68.1533346,40.4880012 68.272,40.8133313 68.272,41.224 L68.272,44 L67.64,44 L67.64,41.376 C67.64,41.0826652 67.5640008,40.8560008 67.412,40.696 C67.2599993,40.5359992 67.0613346,40.456 66.816,40.456 C66.5173319,40.456 66.2560012,40.5706655 66.032,40.8 C65.8079989,41.0293345 65.696,41.3573312 65.696,41.784 L65.696,44 L65.072,44 L65.072,38.344 L65.696,38.344 Z M72.176,41.712 L72.176,41.552 C72.176,41.2159983 72.0853343,40.948001 71.904,40.748 C71.7226658,40.547999 71.4720016,40.448 71.152,40.448 C70.8479985,40.448 70.5893344,40.5573322 70.376,40.776 C70.1626656,40.9946678 70.0373336,41.3066646 70,41.712 L72.176,41.712 Z M72.552,43.2 L72.552,43.792 C72.2373318,43.9573342 71.8533356,44.04 71.4,44.04 C70.7866636,44.04 70.2920019,43.8520019 69.916,43.476 C69.5399982,43.0999981 69.352,42.6026698 69.352,41.984 C69.352,41.3386634 69.5199984,40.8293352 69.856,40.456 C70.1920017,40.0826648 70.6239974,39.896 71.152,39.896 C71.6586692,39.896 72.0613319,40.058665 72.36,40.384 C72.6586682,40.709335 72.808,41.1706637 72.808,41.768 C72.808,41.9386675 72.7946668,42.0959993 72.768,42.24 L70,42.24 C70.0480003,42.640002 70.1999988,42.9466656 70.456,43.16 C70.7120013,43.3733344 71.047998,43.48 71.464,43.48 C71.9173356,43.48 72.2799987,43.3866676 72.552,43.2 Z M74.592,39.944 L74.592,40.656 C74.8053344,40.1546642 75.1733308,39.904 75.696,39.904 C75.7920005,39.904 75.8666664,39.9093333 75.92,39.92 L75.92,40.544 C75.8079995,40.5066665 75.693334,40.488 75.576,40.488 C75.293332,40.488 75.0586676,40.6186654 74.872,40.88 C74.6853324,41.1413346 74.592,41.442665 74.592,41.784 L74.592,44 L73.96,44 L73.968,39.944 L74.592,39.944 Z M77.192,41.992 C77.1973334,42.4293355 77.3306654,42.7933319 77.592,43.084 C77.8533347,43.3746681 78.2239976,43.52 78.704,43.52 C79.0133349,43.52 79.301332,43.4320009 79.568,43.256 L79.568,43.856 C79.3119988,44.0106674 78.9973352,44.088 78.624,44.088 C77.9839968,44.088 77.4760019,43.884002 77.1,43.476 C76.7239982,43.067998 76.536,42.5706696 76.536,41.984 C76.536,41.4079971 76.7239982,40.9120021 77.1,40.496 C77.4760019,40.0799979 77.9893301,39.872 78.64,39.872 C78.9866684,39.872 79.2959987,39.9466659 79.568,40.096 L79.568,40.696 C79.3226655,40.5306658 79.0346684,40.448 78.704,40.448 C78.2453311,40.448 77.8786681,40.5959985 77.604,40.892 C77.329332,41.1880015 77.192,41.5546645 77.192,41.992 Z M81.3680001,38.344 L81.3680001,40.648 C81.6080013,40.1413308 82.0346637,39.888 82.6480001,39.888 C83.0373353,39.888 83.3506655,40.0079988 83.5880001,40.248 C83.8253346,40.4880012 83.9440001,40.8133313 83.9440001,41.224 L83.9440001,44 L83.3120001,44 L83.3120001,41.376 C83.3120001,41.0826652 83.2360008,40.8560008 83.0840001,40.696 C82.9319993,40.5359992 82.7333346,40.456 82.4880001,40.456 C82.1893319,40.456 81.9280012,40.5706655 81.7040001,40.8 C81.4799989,41.0293345 81.3680001,41.3573312 81.3680001,41.784 L81.3680001,44 L80.7440001,44 L80.7440001,38.344 L81.3680001,38.344 Z M87.8480001,41.712 L87.8480001,41.552 C87.8480001,41.2159983 87.7573343,40.948001 87.5760001,40.748 C87.3946658,40.547999 87.1440017,40.448 86.8240001,40.448 C86.5199985,40.448 86.2613345,40.5573322 86.0480001,40.776 C85.8346657,40.9946678 85.7093336,41.3066646 85.6720001,41.712 L87.8480001,41.712 Z M88.2240001,43.2 L88.2240001,43.792 C87.9093318,43.9573342 87.5253357,44.04 87.0720001,44.04 C86.4586637,44.04 85.9640019,43.8520019 85.5880001,43.476 C85.2119982,43.0999981 85.0240001,42.6026698 85.0240001,41.984 C85.0240001,41.3386634 85.1919984,40.8293352 85.5280001,40.456 C85.8640017,40.0826648 86.2959974,39.896 86.8240001,39.896 C87.3306693,39.896 87.7333319,40.058665 88.0320001,40.384 C88.3306682,40.709335 88.4800001,41.1706637 88.4800001,41.768 C88.4800001,41.9386675 88.4666669,42.0959993 88.4400001,42.24 L85.6720001,42.24 C85.7200003,42.640002 85.8719988,42.9466656 86.1280001,43.16 C86.3840013,43.3733344 86.719998,43.48 87.1360001,43.48 C87.5893357,43.48 87.9519987,43.3866676 88.2240001,43.2 Z M93.3360001,43.488 C93.6666684,43.488 93.9479989,43.3653346 94.1800001,43.12 C94.4120012,42.8746654 94.5280001,42.4826694 94.5280001,41.944 C94.5280001,41.4319974 94.4080013,41.0560012 94.1680001,40.816 C93.9279989,40.5759988 93.6640015,40.456 93.3760001,40.456 C93.0399984,40.456 92.7613345,40.5906653 92.5400001,40.86 C92.3186656,41.1293347 92.2080001,41.5146642 92.2080001,42.016 C92.2080001,42.4533355 92.3146657,42.8079986 92.5280001,43.08 C92.7413345,43.3520014 93.0106651,43.488 93.3360001,43.488 Z M94.5280001,38.344 L95.1600001,38.344 L95.1600001,44 L94.5280001,44 L94.5280001,43.4 C94.2399986,43.8426689 93.8240028,44.064 93.2800001,44.064 C92.7413307,44.064 92.3186683,43.864002 92.0120001,43.464 C91.7053319,43.063998 91.5520001,42.5786695 91.5520001,42.008 C91.5520001,41.3733302 91.7146651,40.860002 92.0400001,40.468 C92.365335,40.075998 92.7839975,39.88 93.2960001,39.88 C93.8240027,39.88 94.2346653,40.1066644 94.5280001,40.56 L94.5280001,38.344 Z M99.0480001,39.944 L99.6800001,39.944 L99.6800001,44 L99.0480001,44 L99.0480001,43.296 C98.8346657,43.7973358 98.4106699,44.048 97.7760001,44.048 C97.3759981,44.048 97.0600012,43.9293345 96.8280001,43.692 C96.5959989,43.4546655 96.4800001,43.136002 96.4800001,42.736 L96.4800001,39.944 L97.1120001,39.944 L97.1120001,42.576 C97.1120001,42.8693348 97.186666,43.0933326 97.3360001,43.248 C97.4853341,43.4026674 97.6879988,43.48 97.9440001,43.48 C98.2800017,43.48 98.5479991,43.3626678 98.7480001,43.128 C98.9480011,42.8933322 99.0480001,42.576002 99.0480001,42.176 L99.0480001,39.944 Z M107.08,38.824 L107.08,39.488 C106.845332,39.3653327 106.634668,39.2773336 106.448,39.224 C106.261332,39.1706664 106.016002,39.144 105.712,39.144 C105.130664,39.144 104.646669,39.3413314 104.26,39.736 C103.873331,40.1306686 103.68,40.6453302 103.68,41.28 C103.68,41.9413366 103.871998,42.4693314 104.256,42.864 C104.640002,43.2586686 105.14933,43.456 105.784,43.456 C106.296003,43.456 106.733332,43.3200014 107.096,43.048 L107.096,43.728 C106.765332,43.9520011 106.312003,44.064 105.736,44.064 C104.925329,44.064 104.266669,43.8146692 103.76,43.316 C103.253331,42.8173308 103,42.138671 103,41.28 C103,40.4693293 103.257331,39.8093359 103.772,39.3 C104.286669,38.7906641 104.93333,38.536 105.712,38.536 C106.272003,38.536 106.727998,38.631999 107.08,38.824 Z M110.4,42.128 L109.696,42.128 C109.354665,42.128 109.098668,42.194666 108.928,42.328 C108.757333,42.461334 108.672,42.6293323 108.672,42.832 C108.672,43.0346677 108.738666,43.198666 108.872,43.324 C109.005334,43.449334 109.199999,43.512 109.456,43.512 C109.744002,43.512 109.973333,43.4306675 110.144,43.268 C110.314668,43.1053325 110.4,42.8986679 110.4,42.648 L110.4,42.128 Z M108.304,40.792 L108.304,40.16 C108.608002,39.9733324 109.007998,39.88 109.504,39.88 C110.522672,39.88 111.032,40.3973282 111.032,41.432 L111.032,44 L110.408,44 L110.408,43.52 C110.199999,43.8666684 109.821336,44.04 109.272,44.04 C108.893332,44.04 108.588001,43.9280011 108.356,43.704 C108.123999,43.4799989 108.008,43.197335 108.008,42.856 C108.008,42.4666647 108.155999,42.1640011 108.452,41.948 C108.748002,41.7319989 109.151998,41.624 109.664,41.624 L110.4,41.624 L110.4,41.416 C110.4,41.0959984 110.328001,40.8546675 110.184,40.692 C110.039999,40.5293325 109.797335,40.448 109.456,40.448 C109.023998,40.448 108.640002,40.5626655 108.304,40.792 Z M112.976,39.944 L112.976,40.648 C113.216001,40.1413308 113.642664,39.888 114.256,39.888 C114.650669,39.888 114.965332,40.0079988 115.2,40.248 C115.434668,40.4880012 115.552,40.807998 115.552,41.208 L115.552,44 L114.92,44 L114.92,41.376 C114.92,41.0773318 114.844001,40.8493341 114.692,40.692 C114.539999,40.5346659 114.341335,40.456 114.096,40.456 C113.791999,40.456 113.529335,40.5733322 113.308,40.808 C113.086666,41.0426678 112.976,41.3679979 112.976,41.784 L112.976,44 L112.352,44 L112.352,39.944 L112.976,39.944 Z M119.056,42.128 L118.352,42.128 C118.010665,42.128 117.754668,42.194666 117.584,42.328 C117.413333,42.461334 117.328,42.6293323 117.328,42.832 C117.328,43.0346677 117.394666,43.198666 117.528,43.324 C117.661334,43.449334 117.855999,43.512 118.112,43.512 C118.400002,43.512 118.629333,43.4306675 118.8,43.268 C118.970668,43.1053325 119.056,42.8986679 119.056,42.648 L119.056,42.128 Z M116.96,40.792 L116.96,40.16 C117.264002,39.9733324 117.663998,39.88 118.16,39.88 C119.178672,39.88 119.688,40.3973282 119.688,41.432 L119.688,44 L119.064,44 L119.064,43.52 C118.855999,43.8666684 118.477336,44.04 117.928,44.04 C117.549332,44.04 117.244001,43.9280011 117.012,43.704 C116.779999,43.4799989 116.664,43.197335 116.664,42.856 C116.664,42.4666647 116.811999,42.1640011 117.108,41.948 C117.404002,41.7319989 117.807998,41.624 118.32,41.624 L119.056,41.624 L119.056,41.416 C119.056,41.0959984 118.984001,40.8546675 118.84,40.692 C118.695999,40.5293325 118.453335,40.448 118.112,40.448 C117.679998,40.448 117.296002,40.5626655 116.96,40.792 Z M122.552,43.488 C122.882668,43.488 123.163999,43.3653346 123.396,43.12 C123.628001,42.8746654 123.744,42.4826694 123.744,41.944 C123.744,41.4319974 123.624001,41.0560012 123.384,40.816 C123.143999,40.5759988 122.880002,40.456 122.592,40.456 C122.255998,40.456 121.977335,40.5906653 121.756,40.86 C121.534666,41.1293347 121.424,41.5146642 121.424,42.016 C121.424,42.4533355 121.530666,42.8079986 121.744,43.08 C121.957334,43.3520014 122.226665,43.488 122.552,43.488 Z M123.744,38.344 L124.376,38.344 L124.376,44 L123.744,44 L123.744,43.4 C123.455999,43.8426689 123.040003,44.064 122.496,44.064 C121.957331,44.064 121.534668,43.864002 121.228,43.464 C120.921332,43.063998 120.768,42.5786695 120.768,42.008 C120.768,41.3733302 120.930665,40.860002 121.256,40.468 C121.581335,40.075998 121.999998,39.88 122.512,39.88 C123.040003,39.88 123.450665,40.1066644 123.744,40.56 L123.744,38.344 Z M127.928,42.128 L127.224,42.128 C126.882665,42.128 126.626668,42.194666 126.456,42.328 C126.285333,42.461334 126.2,42.6293323 126.2,42.832 C126.2,43.0346677 126.266666,43.198666 126.4,43.324 C126.533334,43.449334 126.727999,43.512 126.984,43.512 C127.272002,43.512 127.501333,43.4306675 127.672,43.268 C127.842668,43.1053325 127.928,42.8986679 127.928,42.648 L127.928,42.128 Z M125.832,40.792 L125.832,40.16 C126.136002,39.9733324 126.535998,39.88 127.032,39.88 C128.050672,39.88 128.56,40.3973282 128.56,41.432 L128.56,44 L127.936,44 L127.936,43.52 C127.727999,43.8666684 127.349336,44.04 126.8,44.04 C126.421332,44.04 126.116001,43.9280011 125.884,43.704 C125.651999,43.4799989 125.536,43.197335 125.536,42.856 C125.536,42.4666647 125.683999,42.1640011 125.98,41.948 C126.276002,41.7319989 126.679998,41.624 127.192,41.624 L127.928,41.624 L127.928,41.416 C127.928,41.0959984 127.856001,40.8546675 127.712,40.692 C127.567999,40.5293325 127.325335,40.448 126.984,40.448 C126.551998,40.448 126.168002,40.5626655 125.832,40.792 Z" id="Chaire-de-recherche" fill="#F9F9FB"></path>
                    <g id="Ecriture-numérique">
                        <g id="numeriques" transform="translate(17.419355, 18.322581)" fill="#F8CECD">
                            <path d="M0.697006163,2.33361953 L2.28111108,2.33361953 L3.7384876,5.92125598 L4.32988677,7.49981602 L4.37212957,7.49981602 C4.33692706,7.11713288 4.29116449,6.6903004 4.23484047,6.21930578 C4.17851646,5.74831115 4.15035488,5.30308072 4.15035488,4.88360113 L4.15035488,2.33361953 L5.6394135,2.33361953 L5.6394135,9.5309702 L4.05530858,9.5309702 L2.59793206,5.94333374 L2.00653289,4.37581258 L1.96429009,4.37581258 C1.9994926,4.7732143 2.04525518,5.20004678 2.10157919,5.65632283 C2.1579032,6.11259887 2.18606478,6.55414971 2.18606478,6.98098859 L2.18606478,9.5309702 L0.697006163,9.5309702 L0.697006163,2.33361953 Z" id="n"></path>
                            <path d="M18.6290738,2.33361953 L20.1814966,2.33361953 L20.1814966,6.92579419 C20.1814966,7.35999236 20.258941,7.69115549 20.413832,7.91929351 C20.568723,8.14743153 20.8116167,8.26149883 21.1425203,8.26149883 C21.4734238,8.26149883 21.7180776,8.14743153 21.8764889,7.91929351 C22.0349002,7.69115549 22.1141046,7.35999236 22.1141046,6.92579419 L22.1141046,2.33361953 L23.6137239,2.33361953 L23.6137239,6.76021097 C23.6137239,7.70220022 23.4113126,8.42156013 23.0064837,8.91831228 C22.6016549,9.41506442 21.9803399,9.66343677 21.1425203,9.66343677 C20.2976601,9.66343677 19.6675447,9.41506442 19.2521551,8.91831228 C18.8367655,8.42156013 18.6290738,7.70220022 18.6290738,6.76021097 L18.6290738,2.33361953 Z" id="u"></path>
                            <path d="M36.5928235,2.33361953 L38.1452464,2.33361953 L38.8422525,4.88360113 L39.0745879,5.87710045 L39.10627,5.87710045 L39.3386054,4.88360113 L40.0039295,2.33361953 L41.5563523,2.33361953 L41.5563523,9.5309702 L40.299629,9.5309702 L40.299629,7.17968846 C40.299629,6.9809876 40.3066694,6.73629484 40.3207504,6.44560285 C40.3348314,6.15491085 40.3524324,5.85502424 40.3735539,5.54593401 C40.3946754,5.23684379 40.4157966,4.93695718 40.4369181,4.64626518 C40.4580396,4.35557318 40.4791608,4.11456001 40.5002823,3.92321845 L40.4686002,3.92321845 L39.9300046,5.89917822 L39.4019696,7.61020483 L38.7155241,7.61020483 L38.1874892,5.89917822 L37.6700149,3.92321845 L37.6277721,3.92321845 C37.6488936,4.11456001 37.6700148,4.35557318 37.6911363,4.64626518 C37.7122578,4.93695718 37.733379,5.23684379 37.7545005,5.54593401 C37.775622,5.85502424 37.793223,6.15491085 37.807304,6.44560285 C37.821385,6.73629484 37.8284254,6.9809876 37.8284254,7.17968846 L37.8284254,9.5309702 L36.5928235,9.5309702 L36.5928235,2.33361953 Z" id="m"></path>
                            <path d="M54.8506494,2.34403011 L59.3956944,2.34403011 L59.3956944,3.7128514 L56.4044206,3.7128514 L56.4044206,5.15894486 L58.9411899,5.15894486 L58.9411899,6.51672727 L56.4044206,6.51672727 L56.4044206,8.17255948 L59.5013931,8.17255948 L59.5013931,9.54138078 L54.8506494,9.54138078 L54.8506494,2.34403011 Z M57.7045149,1.79208604 L56.4678398,1.79208604 L57.3239995,0.46742027 L58.9728995,0.46742027 L57.7045149,1.79208604 Z" id="É"></path>
                            <path d="M74.1044279,5.64528394 L74.8647983,5.64528394 C75.702618,5.64528394 76.1215215,5.28836368 76.1215215,4.57451245 C76.1215215,4.22126648 76.0159156,3.97473393 75.8047005,3.8349074 C75.5934855,3.69508087 75.2801879,3.62516865 74.8647983,3.62516865 L74.1044279,3.62516865 L74.1044279,5.64528394 Z M76.2376892,9.5309702 L74.9176018,6.93683307 L74.1044279,6.93683307 L74.1044279,9.5309702 L72.5520051,9.5309702 L72.5520051,2.33361953 L74.9915267,2.33361953 C75.3576328,2.33361953 75.7008521,2.37041543 76.0211949,2.44400834 C76.3415377,2.51760125 76.6231535,2.64086753 76.8660508,2.81381087 C77.1089481,2.98675421 77.3007989,3.2167286 77.441609,3.50374095 C77.582419,3.79075331 77.6528229,4.14767357 77.6528229,4.57451245 C77.6528229,5.10438141 77.5401766,5.54041286 77.3148806,5.88261989 C77.0895845,6.22482693 76.7938879,6.48055846 76.4277818,6.64982215 L77.9802046,9.5309702 L76.2376892,9.5309702 Z" id="r"></path>
                            <polygon id="i" points="90.547437 8.1621489 92.1526633 8.1621489 92.1526633 3.70244082 90.547437 3.70244082 90.547437 2.33361953 95.3208731 2.33361953 95.3208731 3.70244082 93.7156468 3.70244082 93.7156468 8.1621489 95.3208731 8.1621489 95.3208731 9.5309702 90.547437 9.5309702"></polygon>
                            <path d="M110.855662,3.60309089 C110.489556,3.60309089 110.20442,3.80546836 110.000245,4.21022936 C109.796071,4.61499037 109.693985,5.17796769 109.693985,5.89917822 C109.693985,6.62774803 109.796071,7.20360392 110.000245,7.62676315 C110.20442,8.04992239 110.489556,8.26149883 110.855662,8.26149883 C111.214728,8.26149883 111.498103,8.04992239 111.705798,7.62676315 C111.913493,7.20360392 112.017339,6.62774803 112.017339,5.89917822 C112.017339,5.17796769 111.913493,4.61499037 111.705798,4.21022936 C111.498103,3.80546836 111.214728,3.60309089 110.855662,3.60309089 Z M113.84434,11.2640746 C113.724651,11.3303082 113.580323,11.385502 113.411351,11.4296578 C113.242379,11.4738135 113.048768,11.4958911 112.830513,11.4958911 C112.492569,11.4958911 112.182791,11.4480564 111.901171,11.3523856 C111.619551,11.2567148 111.364337,11.1242496 111.13552,10.9549859 C110.906704,10.7857222 110.707813,10.5815049 110.538841,10.342328 C110.369869,10.103151 110.232581,9.8437399 110.126974,9.56408684 C109.50741,9.38010456 109.014582,8.97350983 108.648476,8.34429045 C108.28237,7.71507106 108.099319,6.9000418 108.099319,5.89917822 C108.099319,5.31043493 108.166203,4.78609331 108.299973,4.32613762 C108.433742,3.86618193 108.620313,3.47982494 108.85969,3.16705507 C109.099067,2.8542852 109.387723,2.61511183 109.725667,2.44952778 C110.063611,2.28394373 110.440272,2.20115295 110.855662,2.20115295 C111.264011,2.20115295 111.637152,2.28394373 111.975096,2.44952778 C112.31304,2.61511183 112.601696,2.856125 112.841073,3.17257451 C113.080451,3.48902403 113.267021,3.87722081 113.400791,4.3371765 C113.53456,4.79713219 113.601444,5.31779422 113.601444,5.89917822 C113.601444,6.84852676 113.435995,7.6341193 113.105091,8.25597939 C112.774187,8.87783949 112.323602,9.29547299 111.753321,9.50889243 C111.87301,9.76646762 112.05078,9.94492775 112.286637,10.0442782 C112.522494,10.1436286 112.763627,10.1933031 113.010045,10.1933031 C113.115652,10.1933031 113.215978,10.1785847 113.311025,10.1491476 C113.406071,10.1197104 113.492316,10.0865941 113.569762,10.0497976 L113.84434,11.2640746 Z" id="q"></path>
                            <path d="M126.348208,2.33361953 L127.900631,2.33361953 L127.900631,6.92579419 C127.900631,7.35999236 127.978075,7.69115549 128.132966,7.91929351 C128.287857,8.14743153 128.530751,8.26149883 128.861654,8.26149883 C129.192558,8.26149883 129.437212,8.14743153 129.595623,7.91929351 C129.754034,7.69115549 129.833239,7.35999236 129.833239,6.92579419 L129.833239,2.33361953 L131.332858,2.33361953 L131.332858,6.76021097 C131.332858,7.70220022 131.130447,8.42156013 130.725618,8.91831228 C130.320789,9.41506442 129.699474,9.66343677 128.861654,9.66343677 C128.016794,9.66343677 127.386679,9.41506442 126.971289,8.91831228 C126.5559,8.42156013 126.348208,7.70220022 126.348208,6.76021097 L126.348208,2.33361953 Z" id="U"></path>
                            <polygon id="E" points="144.618218 2.33361953 149.159319 2.33361953 149.159319 3.70244082 146.170641 3.70244082 146.170641 5.14853428 148.705209 5.14853428 148.705209 6.50631669 146.170641 6.50631669 146.170641 8.1621489 149.264926 8.1621489 149.264926 9.5309702 144.618218 9.5309702"></polygon>
                            <path d="M163.004396,7.5108549 C163.264894,7.73163363 163.54827,7.91193356 163.854532,8.05176009 C164.160794,8.19158662 164.465291,8.26149883 164.768033,8.26149883 C165.127098,8.26149883 165.389353,8.1989458 165.554805,8.07383785 C165.720256,7.9487299 165.802981,7.77946875 165.802981,7.56604931 C165.802981,7.45565994 165.77834,7.35999059 165.729056,7.27903839 C165.679773,7.19808619 165.609369,7.12633418 165.517842,7.0637802 C165.426316,7.00122623 165.315429,6.94235278 165.18518,6.8871581 C165.054931,6.83196342 164.905323,6.77125018 164.73635,6.70501656 L163.849252,6.30761683 C163.659158,6.23402392 163.474348,6.13835457 163.294815,6.02060591 C163.115282,5.90285725 162.958633,5.76487262 162.824864,5.60664786 C162.691094,5.4484231 162.583728,5.26444359 162.502763,5.05470379 C162.421797,4.84496399 162.381315,4.60763042 162.381315,4.34269594 C162.381315,4.0483243 162.442918,3.77051523 162.566127,3.50926039 C162.689336,3.24800556 162.861825,3.01987096 163.083601,2.82484975 C163.305377,2.62982854 163.571152,2.47712554 163.880934,2.36673617 C164.190716,2.2563468 164.532175,2.20115295 164.905322,2.20115295 C165.327752,2.20115295 165.736095,2.28210394 166.130363,2.44400834 C166.524631,2.60591274 166.880171,2.84140653 167.196993,3.15049675 L166.404941,4.17711272 C166.165564,3.99313044 165.929711,3.85146621 165.697374,3.75211579 C165.465038,3.65276536 165.201023,3.60309089 164.905322,3.60309089 C164.60258,3.60309089 164.368487,3.66012454 164.203035,3.77419355 C164.037583,3.88826256 163.954859,4.04832474 163.954859,4.25438489 C163.954859,4.47516362 164.060465,4.64074519 164.27168,4.75113455 C164.482895,4.86152392 164.75395,4.97927081 165.084854,5.10437876 L165.919149,5.47970072 C166.376781,5.65632371 166.737602,5.89917667 167.001621,6.2082669 C167.265639,6.51735712 167.397647,6.92579165 167.397647,7.43358273 C167.397647,7.73531366 167.337803,8.02048191 167.218115,8.28909604 C167.098426,8.55771016 166.925937,8.79320394 166.700641,8.99558445 C166.475345,9.19796495 166.197249,9.35986693 165.866345,9.48129523 C165.535442,9.60272353 165.15526,9.66343677 164.72579,9.66343677 C164.261117,9.66343677 163.801731,9.5769664 163.347619,9.40402306 C162.893506,9.23107972 162.479883,8.9716686 162.106736,8.62578192 L163.004396,7.5108549 Z" id="S"></path>
                        </g>
                        <g id="ecritures" fill="#F9F9FB">
                            <path d="M0.288909833,2.01704894 L4.83395476,2.01704894 L4.83395476,3.38587023 L1.84268101,3.38587023 L1.84268101,4.83196369 L4.37945027,4.83196369 L4.37945027,6.18974611 L1.84268101,6.18974611 L1.84268101,7.84557831 L4.93965348,7.84557831 L4.93965348,9.21439961 L0.288909833,9.21439961 L0.288909833,2.01704894 Z M3.14277525,1.46510487 L1.90610024,1.46510487 L2.76225986,0.140439102 L4.41115988,0.140439102 L3.14277525,1.46510487 Z" id="É"></path>
                            <path d="M17.8454671,5.6598798 C17.8454671,5.06377722 17.9300252,4.53207642 18.099144,4.06476144 C18.2682628,3.59744646 18.5007977,3.20189049 18.7967556,2.87808169 C19.0927135,2.55427288 19.4415158,2.30774033 19.8431729,2.13847663 C20.24483,1.96921294 20.6746672,1.88458236 21.1326973,1.88458236 C21.5766341,1.88458236 21.9694771,1.97841192 22.311238,2.16607384 C22.6529989,2.35373576 22.9401442,2.5653122 23.1726825,2.80080952 L22.3165229,3.80534772 C22.1544507,3.65080261 21.978288,3.52569654 21.7880293,3.43002576 C21.5977707,3.33435497 21.3793288,3.2865203 21.1326973,3.2865203 C20.8860657,3.2865203 20.6605773,3.33987436 20.4562255,3.44658408 C20.2518736,3.5532938 20.0739492,3.7059968 19.9224469,3.90469766 C19.7709447,4.10339852 19.6529156,4.34625148 19.5683562,4.63326383 C19.4837968,4.92027618 19.4415178,5.24408013 19.4415178,5.60468539 C19.4415178,6.34797379 19.6035875,6.92382968 19.9277319,7.33227033 C20.2518762,7.74071098 20.6746669,7.94492825 21.1961165,7.94492825 C21.4427481,7.94492825 21.6664748,7.8860548 21.8673034,7.76830614 C22.0681319,7.65055749 22.2531028,7.49601469 22.4222216,7.30467313 L23.2783813,8.28713357 C22.7005587,8.99362551 21.9747681,9.34686618 21.1009877,9.34686618 C20.6570508,9.34686618 20.2377834,9.26775499 19.8431729,9.10953023 C19.4485624,8.95130548 19.1032833,8.71765149 18.8073254,8.40856127 C18.5113676,8.09947104 18.2770711,7.71495385 18.104429,7.25499816 C17.9317869,6.79504247 17.8454671,6.26334167 17.8454671,5.6598798 Z" id="C"></path>
                            <path d="M37.5265686,5.32871336 L38.2875994,5.32871336 C39.1261468,5.32871336 39.5454142,4.97179309 39.5454142,4.25794186 C39.5454142,3.90469589 39.4397165,3.65816334 39.228318,3.51833681 C39.0169195,3.37851028 38.7033498,3.30859806 38.2875994,3.30859806 L37.5265686,3.30859806 L37.5265686,5.32871336 Z M39.6616828,9.21439961 L38.3404488,6.62026248 L37.5265686,6.62026248 L37.5265686,9.21439961 L35.9727975,9.21439961 L35.9727975,2.01704894 L38.4144379,2.01704894 C38.7808619,2.01704894 39.1243793,2.05384484 39.4450004,2.12743775 C39.7656214,2.20103066 40.0474819,2.32429694 40.2905901,2.49724028 C40.5336984,2.67018362 40.7257158,2.90015802 40.8666482,3.18717037 C41.0075805,3.47418272 41.0780456,3.83110298 41.0780456,4.25794186 C41.0780456,4.78781082 40.9653014,5.22384227 40.7398097,5.56604931 C40.514318,5.90825634 40.2183645,6.16398787 39.8519404,6.33325156 L41.4057116,9.21439961 L39.6616828,9.21439961 Z" id="r"></path>
                            <polygon id="i" points="53.9838592 7.84557831 55.5904797 7.84557831 55.5904797 3.38587023 53.9838592 3.38587023 53.9838592 2.01704894 58.7614413 2.01704894 58.7614413 3.38587023 57.1548208 3.38587023 57.1548208 7.84557831 58.7614413 7.84557831 58.7614413 9.21439961 53.9838592 9.21439961"></polygon>
                            <polygon id="t" points="73.559262 3.38587023 71.498137 3.38587023 71.498137 2.01704894 77.1847281 2.01704894 77.1847281 3.38587023 75.1236031 3.38587023 75.1236031 9.21439961 73.559262 9.21439961"></polygon>
                            <path d="M89.815725,2.01704894 L91.3694962,2.01704894 L91.3694962,6.6092236 C91.3694962,7.04342177 91.4470078,7.3745849 91.6020334,7.60272292 C91.757059,7.83086095 92.0001636,7.94492825 92.3313546,7.94492825 C92.6625455,7.94492825 92.9074118,7.83086095 93.0659607,7.60272292 C93.2245095,7.3745849 93.3037828,7.04342177 93.3037828,6.6092236 L93.3037828,2.01704894 L94.8047046,2.01704894 L94.8047046,6.44364038 C94.8047046,7.38562963 94.6021174,8.10498954 94.1969369,8.60174169 C93.7917565,9.09849384 93.1699019,9.34686618 92.3313546,9.34686618 C91.4857606,9.34686618 90.8550979,9.09849384 90.4393475,8.60174169 C90.0235971,8.10498954 89.815725,7.38562963 89.815725,6.44364038 L89.815725,2.01704894 Z" id="u"></path>
                            <path d="M109.401698,5.32871336 L110.162728,5.32871336 C111.001276,5.32871336 111.420543,4.97179309 111.420543,4.25794186 C111.420543,3.90469589 111.314846,3.65816334 111.103447,3.51833681 C110.892049,3.37851028 110.578479,3.30859806 110.162728,3.30859806 L109.401698,3.30859806 L109.401698,5.32871336 Z M111.536812,9.21439961 L110.215578,6.62026248 L109.401698,6.62026248 L109.401698,9.21439961 L107.847927,9.21439961 L107.847927,2.01704894 L110.289567,2.01704894 C110.655991,2.01704894 110.999508,2.05384484 111.320129,2.12743775 C111.640751,2.20103066 111.922611,2.32429694 112.165719,2.49724028 C112.408827,2.67018362 112.600845,2.90015802 112.741777,3.18717037 C112.88271,3.47418272 112.953175,3.83110298 112.953175,4.25794186 C112.953175,4.78781082 112.840431,5.22384227 112.614939,5.56604931 C112.389447,5.90825634 112.093494,6.16398787 111.72707,6.33325156 L113.280841,9.21439961 L111.536812,9.21439961 Z" id="r"></path>
                            <polygon id="e" points="126.070386 2.01704894 130.615431 2.01704894 130.615431 3.38587023 127.624157 3.38587023 127.624157 4.83196369 130.160926 4.83196369 130.160926 6.18974611 127.624157 6.18974611 127.624157 7.84557831 130.721129 7.84557831 130.721129 9.21439961 126.070386 9.21439961"></polygon>
                            <path d="M144.472533,7.19428431 C144.733258,7.41506304 145.01688,7.59536297 145.323407,7.7351895 C145.629935,7.87501603 145.934697,7.94492825 146.237701,7.94492825 C146.597079,7.94492825 146.859561,7.88237521 147.025157,7.75726726 C147.190752,7.63215932 147.273549,7.46289816 147.273549,7.24947872 C147.273549,7.13908935 147.248886,7.04342 147.19956,6.9624678 C147.150233,6.8815156 147.079768,6.80976359 146.988162,6.74720962 C146.896556,6.68465564 146.785574,6.6257822 146.655211,6.57058751 C146.524849,6.51539283 146.375111,6.45467959 146.205992,6.38844597 L145.318123,5.99104624 C145.127864,5.91745333 144.942893,5.82178398 144.763204,5.70403532 C144.583516,5.58628667 144.426731,5.44830203 144.292845,5.29007727 C144.158959,5.13185251 144.0515,4.947873 143.970464,4.7381332 C143.889428,4.52839341 143.84891,4.29105983 143.84891,4.02612535 C143.84891,3.73175371 143.910567,3.45394464 144.033883,3.19268981 C144.157199,2.93143497 144.329838,2.70330037 144.551807,2.50827916 C144.773775,2.31325795 145.039781,2.16055495 145.349832,2.05016558 C145.659883,1.93977622 146.001639,1.88458236 146.37511,1.88458236 C146.797907,1.88458236 147.206604,1.96553335 147.601215,2.12743775 C147.995825,2.28934216 148.351674,2.52483594 148.668772,2.83392616 L147.876032,3.86054213 C147.636447,3.67655986 147.400388,3.53489563 147.16785,3.4355452 C146.935312,3.33619477 146.671068,3.2865203 146.37511,3.2865203 C146.072105,3.2865203 145.837809,3.34355395 145.672213,3.45762296 C145.506618,3.57169197 145.423821,3.73175415 145.423821,3.9378143 C145.423821,4.15859303 145.529519,4.3241746 145.740917,4.43456396 C145.952316,4.54495333 146.223607,4.66270022 146.554798,4.78780817 L147.389817,5.16313014 C147.847847,5.33975312 148.208981,5.58260608 148.473229,5.89169631 C148.737477,6.20078653 148.869599,6.60922106 148.869599,7.11701214 C148.869599,7.41874308 148.809704,7.70391133 148.689912,7.97252545 C148.570119,8.24113957 148.39748,8.47663336 148.171988,8.67901386 C147.946496,8.88139436 147.668159,9.04329634 147.336968,9.16472464 C147.005777,9.28615294 146.625265,9.34686618 146.195422,9.34686618 C145.730345,9.34686618 145.27056,9.26039581 144.816054,9.08745247 C144.361547,8.91450913 143.947564,8.65509801 143.574094,8.30921133 L144.472533,7.19428431 Z" id="S"></path>
                        </g>
                    </g>
                </g>
                <g id="Logo" fill="#F9F9FB" fill-rule="nonzero">
                    <path d="M15.3246857,20.6553765 C13.4010174,22.8913672 10.9277295,24.2369544 8.16952853,25.1113865 C5.98923635,25.8041443 3.76853097,26.3691312 1.56601153,26.9880215 C1.54697803,26.9941098 1.52732852,26.9981265 1.50741239,27 C1.28109846,26.3890954 1.07903246,25.7588921 0.901214377,25.10939 C2.05905258,24.809927 3.19870484,24.5264353 4.33633644,24.2129974 C6.37316176,23.6500068 8.40998708,23.0670521 10.2851596,22.0808205 C12.8534185,20.7312405 14.8175001,18.8166735 15.6580946,15.9757675 C16.1386336,14.4717431 16.1251947,12.8560622 15.6197021,11.3600439 C15.0983718,9.8627287 14.0759178,9.28376683 12.493741,9.56326567 C11.6006093,9.7149936 10.8933783,10.4177335 10.675147,11.3979759 C10.5195562,12.1146907 10.4286265,12.847377 10.246767,13.5561061 C9.55772198,16.2732341 7.90078075,18.1059479 5.12843517,18.8985267 C3.47142586,19.3624085 1.74784001,19.5506461 0.0282892405,19.4555279 C0.00808264015,19.0562439 0,18.6569598 0,18.2576758 C0,18.0201018 0,17.7845242 0.0101033002,17.5489466 C1.02043332,17.4750791 1.99439146,17.4251686 2.96026695,17.3193583 C3.50731106,17.2484411 4.04783352,17.134958 4.57679498,16.9799668 C6.90257469,16.3391159 8.02606167,14.6760979 8.44231764,12.4321215 C8.51102008,12.0547981 8.57366054,11.6774747 8.64438364,11.3001513 C9.10711479,8.61496605 11.3298408,7.10766878 14.0536906,7.58880605 C16.262272,7.9880901 17.3251392,9.48939812 17.7454364,11.4738398 C18.4708534,14.9036898 17.6403621,17.964202 15.3246857,20.6553765 Z" id="Shape"></path>
                    <path d="M26.25,21.2374375 C26.1975645,21.6983997 26.1330286,22.1513451 26.0483251,22.6002821 C26.0140404,22.8007005 25.9757222,23.0151481 25.9353872,23.2195748 C24.2897203,23.4019554 21.7728181,22.8007005 20.5970536,20.4257433 C19.8851414,18.9867397 19.663299,17.4455228 19.5140596,15.8762473 C19.334569,14.0143611 19.2478488,12.132433 18.909035,10.3006096 C18.5077021,8.13809583 17.2653849,6.57683707 15.002593,5.99562393 C11.6063883,5.12781259 8.45219345,6.466607 7.07072065,9.42478147 C6.7823256,10.0420699 6.68148817,10.7415299 6.44956208,11.3888811 C6.16862721,12.2372889 5.84074208,13.0696251 5.4674055,13.882085 C5.00758682,14.8260553 4.16256915,15.3070593 3.1320106,15.4854316 C2.09212011,15.6473822 1.03149286,15.6236278 0,15.4152852 C0.0672249539,14.7592492 0.156634143,14.1145703 0.268227566,13.4812484 C0.711912262,13.5153195 1.14752996,13.5574073 1.58314766,13.5714366 C1.93636028,13.5844776 2.29005353,13.574435 2.64194069,13.5413739 C3.19251306,13.4872609 3.63821451,13.2407464 3.83383912,12.6996169 C4.14240166,11.8438307 4.47919868,10.9920528 4.70104103,10.1122163 C5.66175013,6.12875193 9.40451698,3.43855872 13.5122157,3.77899726 C15.3595575,3.90926917 17.0737938,4.3481853 18.4935848,5.59478728 C20.032364,6.94560679 20.7886447,8.72131315 21.0629226,10.6814044 C21.3109826,12.4551065 21.3614014,14.2548631 21.57316,16.0325736 C21.6841773,17.0321915 21.8866907,18.0196663 22.1781845,18.9827314 C22.6501037,20.4898772 23.7915834,21.187333 25.3545636,21.2614877 C25.5259872,21.2654961 26.0241242,21.2394417 26.25,21.2374375 Z" id="Shape"></path>
                    <path d="M26.25,18.0610096 C26.25,18.2603158 26.25,18.4436774 26.25,18.6350113 C26.25,18.9259983 26.23416,19.2129991 26.21832,19.5 C25.3283126,19.32497 24.5349334,18.8226397 23.9928,18.0909055 C23.33742,17.1402152 23.13942,16.0360592 23.09388,14.9159586 C22.99488,12.8272302 22.84242,10.7524532 22.23852,8.73746803 C21.17724,5.19380473 17.84886,2.27795579 14.28486,2.06270515 C10.44762,1.82752389 7.33506,3.28644489 5.21448,6.62681593 C4.42703381,7.88661347 3.7972427,9.23952179 3.33942,10.6547932 L2.03262,11.4340802 L1.5,9.93729104 C1.71582,9.3393726 1.93164,8.74145415 2.17914,8.1594802 C3.04044,6.13452974 4.14132,4.24112134 5.84808,2.82206157 C10.31892,-0.89101196 17.95974,-1.69421573 22.63254,5.08817247 C23.94726,6.99752536 24.52938,9.1320942 24.78876,11.3842537 C24.95706,12.8371955 25.0224,14.3040887 25.18476,15.7570305 C25.2699,16.4825049 25.51542,17.1521736 26.23614,17.459105 C26.24802,17.6584112 26.25,17.8597104 26.25,18.0610096 Z" id="Shape"></path>
                    <path d="M24,29.1510461 C23.8722936,29.4242851 23.7386009,29.691452 23.6009174,29.960643 C23.458578,30.2305086 23.3122477,30.4936276 23.1619266,30.75 C22.4595413,30.2601939 21.5955275,29.6469242 20.9031193,29.1996219 C19.6993808,28.4046828 18.3675725,27.8299409 16.9681651,27.5014924 C15.4875688,27.1675337 14.0388991,27.4225567 12.6241514,27.8293791 C9.45344037,28.7421997 6.30068807,29.709668 3.13995413,30.6629683 L3.11201835,30.6629683 C2.80272936,30.1326824 2.5133945,29.5760845 2.25,28.9992467 C3.14594037,28.7037438 4.01993119,28.392049 4.91188073,28.132978 C7.68350917,27.339573 10.457133,26.548192 13.2427294,25.8013389 C15.4376835,25.2123571 17.5747706,25.5200039 19.6380275,26.4348484 C21.2090497,27.1309117 22.677082,28.0450545 24,29.1510461 Z" id="Shape"></path>
                    <path d="M14.9124318,12.652152 C14.6407014,11.827492 13.8725676,11.2645716 12.9991233,11.25 C12.1260023,11.2530064 11.355687,11.8180881 11.0959704,12.6460995 C10.8238013,13.5095831 11.1122193,14.2237727 11.7581133,14.8653329 L10.8319257,16.3401143 C9.90791988,17.8621596 8.46748316,19.0067771 6.76969969,19.5680901 C5.38854283,20.0300941 3.98504374,20.4255212 2.58357576,20.8169132 C1.72847718,21.0509415 0.863223032,21.2426026 0,21.4504035 C0.0710889556,22.055649 0.166551267,22.6608944 0.280293596,23.25 C0.357572441,23.2484401 0.43448382,23.2389752 0.509809367,23.2217552 C2.26672213,22.7738736 4.03379045,22.3582717 5.77851653,21.8599529 C7.56183376,21.3495293 9.27812426,20.6756893 10.6816234,19.3986214 C11.8718556,18.3132145 12.6802386,16.9554472 13.4886215,15.5916274 C13.6511909,15.3246086 13.8668089,15.0932761 14.1223288,14.911735 C14.8498825,14.4074758 15.1686631,13.4958082 14.9124318,12.652152 Z M13.0539634,13.9312374 C12.658781,13.9312232 12.3381192,13.6135949 12.3370092,13.2210656 C12.3358992,12.8285363 12.6547596,12.5091237 13.0499356,12.5069045 C13.4451117,12.5046852 13.7675878,12.8204961 13.7709463,13.2130128 C13.7725713,13.4029391 13.6977503,13.5856416 13.5631134,13.7205117 C13.4284765,13.8553818 13.2451795,13.9312442 13.0539634,13.9312374 Z" id="Shape"></path>
                    <path d="M22.5,32.0225062 C22.314433,32.2963855 22.1216275,32.5634178 21.9215837,32.8236032 C21.8692935,32.8756014 21.8235264,32.9342652 21.7853696,32.9982013 C21.6511296,33.1686911 21.5149156,33.3350728 21.3747532,33.4973463 C19.7954595,32.190942 17.8371353,31.4309269 15.8847335,31.1597863 C14.4377056,30.9543768 13.0084448,31.2255174 11.6364334,31.650715 C9.6623163,32.2669435 7.72373327,33.0023095 5.77133143,33.6904312 C5.7219785,33.7089181 5.67262558,33.727405 5.62327265,33.75 C5.29425313,33.3830017 4.97773635,32.9940931 4.67372231,32.5832741 C4.61844703,32.451812 4.55922351,32.3182959 4.5,32.1724551 C5.60945383,31.7328788 6.67152884,31.2850861 7.75137091,30.8886458 C9.89526212,30.0998734 12.0707392,29.399427 14.3547927,29.270019 C17.3159684,29.0995291 19.9770783,30.0218177 22.3361483,31.8910441 C22.3874753,31.9444506 22.4427506,31.9814243 22.5,32.0225062 Z" id="Shape"></path>
                    <path d="M19.5,34.7188664 C19.2626208,34.9119761 19.0213288,35.0934214 18.776124,35.2632024 C18.4330993,35.503529 18.0757224,35.7229623 17.7059613,35.9202937 C17.2305509,35.725888 16.7688354,35.5314823 16.3051634,35.3370766 C14.2783106,34.5244607 12.2788476,34.8841113 10.2911232,35.4964892 C9.77267147,35.6559019 9.25813258,35.8250349 8.72598588,36 C8.02356151,35.6314429 7.36137734,35.191691 6.75,34.6877615 C7.89841952,34.3086704 9.0077106,33.9101387 10.1443916,33.5952015 C11.0158843,33.3504654 11.9046423,33.1711079 12.8031686,33.0586418 C15.0960948,32.7748095 17.4594522,33.5524323 19.5,34.7188664 Z" id="Shape"></path>
                    <path d="M25.5,25.8632075 C25.4152043,26.158805 25.3283404,26.4502096 25.235272,26.7374214 C25.235272,26.7374214 25.235272,26.7374214 25.235272,26.7374214 C25.2007606,26.8147505 25.174417,26.8955636 25.1566809,26.9785115 L24.8836801,27.75 C21.9551266,26.8757862 19.2437328,25.7625786 17.3927049,23.2762055 L17.25,21.75 L18.8507771,21.9156184 C20.4536225,24.110587 22.9995613,25.0833333 25.5,25.8632075 Z" id="Shape"></path>
                </g>
            </g>
        </g>
    </g>
</svg>