<?xml version="1.0" standalone="no"?>
<!DOCTYPE svg PUBLIC "-//W3C//DTD SVG 1.1//EN" "http://www.w3.org/Graphics/SVG/1.1/DTD/svg11.dtd" >
<svg>
<metadata>
Created by FontForge 20120731 at Wed Nov 28 16:47:36 2018
 By www-data
</metadata>
<defs>
<font id="testbreak" horiz-adv-x="1217" >
  <font-face 
    font-family="testbreak"
    font-weight="0"
    font-stretch="normal"
    units-per-em="2048"
    panose-1="2 0 5 3 6 0 0 2 0 4"
    ascent="1638"
    descent="-410"
    x-height="1140"
    cap-height="1522"
    bbox="-95 -560 2745 2014"
    underline-thickness="0"
    underline-position="0"
    unicode-range="U+0020-FB04"
  />
<missing-glyph horiz-adv-x="1245" 
d="M0 0v2014h1245v-2014h-1245zM20 20v1974h1205v-1974h-1205z" />
    <glyph glyph-name=".notdef" horiz-adv-x="1245" 
d="M0 0v2014h1245v-2014h-1245zM20 20v1974h1205v-1974h-1205z" />
    <glyph glyph-name="Space" unicode=" " horiz-adv-x="655" 
d="M0 0z" />
    <glyph glyph-name="Exclamation_mark" unicode="!" horiz-adv-x="602" 
d="M202 1780h248l-24 -1274h-196zM212 21c-13.333 13.333 -24.167 29.667 -32.5 49s-12.5 40.5 -12.5 63.5s4.33299 44.667 13 65s20.667 38.167 36 53.5c32.667 34.667 65.333 52 98 52s58 -4 76 -12s33.333 -19 46 -33c26 -30 39 -61.667 39 -95s-4.33301 -60.333 -13 -81
s-20.667 -39 -36 -55c-32 -33.333 -69.667 -50 -113 -50c-38.667 0 -72.333 14.333 -101 43z" />
    <glyph glyph-name="Quotation_mark" unicode="&#x22;" horiz-adv-x="1284" 
d="M285 1685h242l-32 -719h-177zM796 1685h242l-32 -719h-177z" />
    <glyph glyph-name="Number_sign,_Hash_tag" unicode="#" horiz-adv-x="1563" 
d="M429 355h-202v156h216l33 369h-215v153h229l31 340h191l-32 -340h307l30 340h190l-31 -340h222v-153h-236l-34 -369h226v-156h-241l-32 -355h-185l31 355h-310l-33 -355h-187zM941 511l32 369h-307l-35 -369h310z" />
    <glyph glyph-name="Dollar_sign" unicode="$" horiz-adv-x="1372" 
d="M667 161c202 0 303 70.333 303 211c0 68.667 -29.333 127.333 -88 176c-39.333 32.667 -102.5 70 -189.5 112s-153.333 78 -199 108s-86.167 64 -121.5 102c-80 84.667 -120 177 -120 277c0 116.667 40.667 209 122 277c69.333 58 162.333 93.667 279 107l2 231h163
l-2 -226c124 -6.66699 222.667 -32.333 296 -77l-45 -176c-86.667 53.333 -190.667 80 -312 80c-129.333 0 -217.667 -33.667 -265 -101c-16.667 -24 -25 -53.5 -25 -88.5s5.5 -66 16.5 -93s28.5 -51.833 52.5 -74.5c37.333 -35.333 93.833 -72.333 169.5 -111
s130.167 -67.333 163.5 -86s65.667 -38.5 97 -59.5s60.667 -43.667 88 -68s51.333 -50.833 72 -79.5c43.333 -62.667 65 -128 65 -196s-10 -126 -30 -174s-48 -89 -84 -123c-70 -66 -169.333 -106 -298 -120l-2 -226h-163l2 223c-118 7.333 -220 27.333 -306 60
c-23.333 8.667 -41 17 -53 25l53 183c67.333 -40.667 152.333 -69 255 -85c34.667 -5.33299 69.333 -8 104 -8z" />
    <glyph glyph-name="Percent_sign" unicode="%" horiz-adv-x="1962" 
d="M1227 1530h190l-650 -1530h-190zM832 1080v-94.5s-38.167 -132.167 -114.5 -207.5s-167.5 -113 -273.5 -113s-190.667 39.167 -254 117.5c-63.333 78.333 -95 178.667 -95 301s38.167 221.667 114.5 298c76.333 76.333 170 114.5 281 114.5s195.667 -37.833 254 -113.5
s87.5 -176.5 87.5 -302.5zM462 812c56.667 0 100 23.333 130 70s45 111.333 45 194c0 129.333 -33 214 -99 254c-21.333 13.333 -45.333 20 -72 20c-56.667 0 -100.167 -24 -130.5 -72s-45.5 -113 -45.5 -195c0 -124.667 33 -208.333 99 -251
c21.333 -13.333 45.667 -20 73 -20zM1170 468c0 61.333 10.5 117.833 31.5 169.5s49.167 95.167 84.5 130.5c75.333 75.333 168.333 113 279 113c112 0 198 -39 258 -117c56 -74 84 -172.667 84 -296c0 -128 -39 -230 -117 -306c-74.667 -74 -166.667 -111 -276 -111
c-104 0 -187.667 39.667 -251 119c-62 78 -93 177.333 -93 298zM1366 468c0 -125.333 32.667 -208.667 98 -250c21.333 -14 45.667 -21 73 -21c56.667 0 100 23.333 130 70c30 46.667 45 111.333 45 194c0 129.333 -32.667 214.333 -98 255
c-21.333 13.333 -45.667 20 -73 20c-56.667 0 -100 -24 -130 -72s-45 -113.333 -45 -196z" />
    <glyph glyph-name="Ampersand" unicode="&#x26;" horiz-adv-x="1532" 
d="M1082 62c-98 -52 -196.5 -78 -295.5 -78s-185.5 8.5 -259.5 25.5s-137.667 42.5 -191 76.5c-112.667 72.667 -169 175.333 -169 308c0 166 103.667 297 311 393c-54.667 74 -91.667 131 -111 171c-38.667 80.667 -58 153 -58 217s9.66699 118.167 29 162.5
s47 81.833 83 112.5c74 64 174.667 96 302 96c113.333 0 205 -35 275 -105c66 -66 99 -145.667 99 -239c0 -170.667 -65.667 -301.333 -197 -392c-42 -29.333 -89.333 -56.333 -142 -81c59.333 -85.333 124.833 -172 196.5 -260s120.5 -146 146.5 -174
c54.667 57.333 82 133.333 82 228c0 56 -11 124.333 -33 205h192c19.333 -62.667 29 -131.333 29 -206c0 -145.333 -46 -259.333 -138 -342c54.667 -35.333 126.667 -58 216 -68v-113c-33.333 -10 -72.333 -15 -117 -15c-90 0 -173.333 26 -250 78zM665 858
c81.333 36 141 78.667 179 128c44 56.667 66 127.667 66 213c0 46 -16 88 -48 126c-36 43.333 -83.667 65 -143 65c-95.333 0 -158.333 -35.333 -189 -106c-11.333 -24.667 -17 -55.167 -17 -91.5s3 -67.333 9 -93s15.333 -50.333 28 -74s28.5 -48.5 47.5 -74.5
s41.5 -57 67.5 -93zM576 658c-134.667 -70 -202 -156 -202 -258c0 -116 68 -194.333 204 -235c49.333 -14.667 101.333 -22 156 -22s96.667 3.83299 126 11.5s58 17.167 86 28.5c-94 104.667 -217.333 263 -370 475z" />
    <glyph glyph-name="Apostrophe" unicode="'" horiz-adv-x="772" 
d="M285 1685h242l-32 -719h-177z" />
    <glyph glyph-name="Left_parenthesis" unicode="(" horiz-adv-x="846" 
d="M587 -330c-86 57.333 -171 155.333 -255 294c-128 212 -192 465 -192 759c0 316.667 96.667 600.333 290 851c62 80 114.333 132 157 156l151 -74c-69.333 -54 -140.333 -144.667 -213 -272c-62.667 -110 -110 -242 -142 -396c-20 -96 -30 -192.333 -30 -289
s6.16699 -183.167 18.5 -259.5s30 -148.833 53 -217.5c23 -68.667 49.167 -129.833 78.5 -183.5s59 -100.167 89 -139.5c50.667 -68 99.333 -119.333 146 -154z" />
    <glyph glyph-name="Right_parenthesis" unicode=")" horiz-adv-x="846" 
d="M299.035 1756.98c85.994 -57.33 170.989 -155.324 254.984 -293.982c127.992 -211.987 191.988 -464.972 191.988 -758.954c0 -316.647 -96.66 -600.297 -289.982 -850.948c-61.996 -79.995 -114.326 -131.992 -156.99 -155.99l-150.991 73.995
c69.329 53.997 140.325 144.658 212.987 271.983c62.663 109.994 109.993 241.986 141.991 395.976c19.999 95.994 29.998 192.322 29.998 288.983c0 96.66 -6.16602 183.155 -18.499 259.484c-12.332 76.328 -29.998 148.824 -52.996 217.487
c-22.999 68.662 -49.164 129.825 -78.496 183.488c-29.331 53.6641 -58.996 100.161 -88.994 139.492c-50.664 67.996 -99.327 119.326 -145.991 153.99z" />
    <glyph glyph-name="Asterisk" unicode="*" horiz-adv-x="1208" 
d="M579 1228l-39 167l-19 265h192l-13 -262l-34 -168c12.667 12.667 23.5 23.167 32.5 31.5s18.667 17.333 29 27s19.833 18.833 28.5 27.5c21.333 20.667 33 31.333 35 32l220 146l95 -163l-232 -121l-164 -55l165 -49l236 -115l-97 -170l-217 144l-131 113l39 -168
l21 -262l-192 -1l12 263l35 170l-126 -121l-218 -146l-96 164l231 124l165 53c-1.33301 0.666992 -6 2.16699 -14 4.5s-18 5.33301 -30 9s-24.833 7.5 -38.5 11.5s-26.5 7.66699 -38.5 11c-28.667 8 -43.667 12.333 -45 13l-234 118l93 165l220 -145z" />
    <glyph glyph-name="Plus_sign" unicode="+" horiz-adv-x="1393" 
d="M627 521l7 171l-165 -7h-220v177h220l165 -11l-7 172v228h178v-228l-8 -172l141 11h246v-177h-246l-141 7l8 -171v-236h-178v236z" />
    <glyph glyph-name="Comma" unicode="," horiz-adv-x="602" 
d="M180 140l139 131c64.667 -24.667 114 -71 148 -139c28.667 -56.667 43 -115.5 43 -176.5s-7.16699 -115.667 -21.5 -164c-14.333 -48.333 -33.833 -91.833 -58.5 -130.5c-50 -79.333 -111.667 -133 -185 -161l-74 92v26c59.333 29.333 99.667 87.333 121 174
c6.66699 27.333 10 53.333 10 78c0 24.667 -3.33301 48.5 -10 71.5s-15.667 44.5 -27 64.5c-25.333 43.333 -53.667 67 -85 71v63z" />
    <glyph glyph-name="Hyphen-minus" unicode="-" horiz-adv-x="1350" 
d="M270 860h850v-177h-850v177z" />
    <glyph glyph-name="Full_stop" unicode="." horiz-adv-x="602" 
d="M213 21c-13.333 13.333 -24.333 29.667 -33 49s-13 40.5 -13 63.5s4.33299 44.667 13 65s20.667 38.167 36 53.5c32.667 34.667 65.5 52 98.5 52s58.5 -4 76.5 -12s33 -19 45 -33c26 -29.333 39 -60.833 39 -94.5s-4.16699 -60.833 -12.5 -81.5s-19.833 -39 -34.5 -55
c-32.667 -33.333 -71 -50 -115 -50c-38 0 -71.333 14.333 -100 43z" />
    <glyph glyph-name="Slash_(Solidus)" unicode="/" horiz-adv-x="854" 
d="M632 1599h198l-570 -1962h-198z" />
    <glyph glyph-name="Digit_Zero" unicode="0" horiz-adv-x="1386" 
d="M288 186c-43.333 60.667 -74.167 129.333 -92.5 206s-27.5 160.833 -27.5 252.5s14.833 177.5 44.5 257.5s69.5 147.333 119.5 202c103.333 113.333 236.333 170 399 170c188 0 326.333 -62 415 -186c74.667 -104 112 -250.667 112 -440
c0 -198.667 -51.333 -359.333 -154 -482c-101.333 -121.333 -234 -182 -398 -182c-184 0 -323.333 67.333 -418 202zM472 298c58.667 -108 142.333 -162 251 -162c100 0 176.333 43 229 129c52.667 84.667 79 206 79 364c0 226.667 -57.333 377.667 -172 453
c-39.333 25.333 -86 38 -140 38s-101.167 -10.833 -141.5 -32.5s-74.167 -52.833 -101.5 -93.5c-54 -80.667 -81 -194.667 -81 -342c0 -141.333 25.667 -259.333 77 -354z" />
    <glyph glyph-name="Digit_One" unicode="1" horiz-adv-x="918" 
d="M398 999c-78.667 -22 -153 -39.667 -223 -53l-25 131c98 30 202 81 312 153c29.333 19.333 51 35.333 65 48l100 -25v-1253h-229v999z" />
    <glyph glyph-name="Digit_Two" unicode="2" horiz-adv-x="1269" 
d="M167 113c186.667 108 343.333 227.667 470 359c143.333 148.667 215 288.667 215 420c0 107.333 -44.667 177 -134 209c-30 10.667 -63 16 -99 16s-70.167 -4 -102.5 -12s-63.167 -18.333 -92.5 -31c-58 -26 -106.333 -59 -145 -99l-93 124
c77.333 85.333 177.333 143.667 300 175c46.667 12 104.5 18 173.5 18s131.5 -10.667 187.5 -32s101 -50 135 -86c62.667 -66.667 94 -156.667 94 -270c0 -127.333 -50 -256.667 -150 -388c-96.667 -126.667 -228.667 -241.667 -396 -345l615 6v-177h-945z" />
    <glyph glyph-name="Digit_Three" unicode="3" horiz-adv-x="1147" 
d="M524 1115c-107.333 0 -212 -36 -314 -108l-86 125c80 66 177 113.333 291 142c42 10 88.333 15 139 15s102.167 -7.5 154.5 -22.5s98.5 -37.5 138.5 -67.5c86.667 -64.667 130 -154 130 -268c0 -122 -55.667 -225.667 -167 -311c-33.333 -26 -69.333 -48 -108 -66
c109.333 -12.667 197.333 -55.333 264 -128c61.333 -66.667 92 -140.333 92 -221c0 -80.667 -15.333 -153 -46 -217c-64.667 -132.667 -180.667 -227.667 -348 -285c-82 -28 -174.667 -42 -278 -42c-68.667 0 -139.667 6.66699 -213 20l-1 152
c56.667 -11.333 116.667 -17 180 -17s125.667 9.33299 187 28s113.667 44 157 76c92 67.333 138 151.667 138 253c0 141.333 -64.667 229 -194 263c-32.667 8 -63.5 12 -92.5 12s-52.5 -0.666992 -70.5 -2l-91 -22l-46 151c67.333 13.333 133.167 33.167 197.5 59.5
s117.167 63.167 158.5 110.5c42.667 48 64 103 64 165c0 68.667 -22.333 120.667 -67 156c-40.667 32.667 -97 49 -169 49z" />
    <glyph glyph-name="Digit_Four" unicode="4" horiz-adv-x="1339" 
d="M720 1299h79l136 -84l-466 -894l-89 -151h460l18 433h202v-433h231v-170h-231v-376h-220v376h-650l-54 104z" />
    <glyph glyph-name="Digit_Five" unicode="5" horiz-adv-x="1227" 
d="M225 -188c21.333 -1.33299 42.333 -2 63 -2c171.333 0 312 38.667 422 116c110.667 78 166 177 166 297c0 100.667 -25.833 176.5 -77.5 227.5s-134.5 76.5 -248.5 76.5c-77.333 0 -167.333 -16 -270 -48l-50 30l56 743h771l-22 -190h-578l-39 -400
c84 19.333 161.667 29 233 29s135.167 -10.667 191.5 -32s103.5 -51.667 141.5 -91c77.333 -79.333 116 -189.667 116 -331c0 -71.333 -16.167 -141.667 -48.5 -211s-80.167 -131.333 -143.5 -186c-142 -123.333 -328.667 -186.333 -560 -189c-54.667 0 -96 4.33301 -124 13
z" />
    <glyph glyph-name="Digit_Six" unicode="6" horiz-adv-x="1373" 
d="M604 771l-60 130c39.333 36.667 100.333 63 183 79c30 5.33301 69.833 8 119.5 8s99.5 -12 149.5 -36s92 -56.333 126 -97c70.667 -83.333 106 -187.333 106 -312c0 -155.333 -44 -284.333 -132 -387c-97.333 -114.667 -231.333 -172 -402 -172
c-157.333 0 -283.667 58 -379 174c-90 110 -135 247.667 -135 413c0 172 43.333 333.333 130 484c78.667 136 184 251.333 316 346c125.333 90 253 147.333 383 172l60 -142c-121.333 -32 -233 -89 -335 -171c-144.667 -116.667 -241.333 -260 -290 -430
c-15.333 -53.333 -23.5 -97 -24.5 -131s-1.5 -58 -1.5 -72c0 -326.667 101.667 -490 305 -490c90 0 160.667 37 212 111c46.667 68 70 151 70 249c0 114 -23 198.333 -69 253c-38.667 44.667 -91 67 -157 67s-124.333 -15.333 -175 -46z" />
    <glyph glyph-name="Digit_Seven" unicode="7" horiz-adv-x="1241" 
d="M360 -267c175.333 373.333 363.333 826 564 1358l-754 2l1 178h949l46 -58l-571 -1548z" />
    <glyph glyph-name="Digit_Eight" unicode="8" horiz-adv-x="1307" 
d="M338 713c39.333 33.333 87 63.667 143 91c-166.667 106 -250 236 -250 390c0 117.333 45.667 210 137 278c84.667 62 193.667 93 327 93c132 0 238.333 -32 319 -96c81.333 -64.667 122 -149 122 -253c0 -125.333 -51 -235 -153 -329
c-35.333 -32.667 -77.667 -61 -127 -85c108.667 -62.667 183 -114 223 -154c78.667 -80 118 -164.333 118 -253c0 -130.667 -49.667 -233 -149 -307c-92.667 -69.333 -210.333 -104 -353 -104c-143.333 0 -262.333 30.333 -357 91c-110.667 71.333 -166 171.833 -166 301.5
c0 129.667 55.333 241.833 166 336.5zM711 884c106 35.333 175.333 106 208 212c10 33.333 15 66.167 15 98.5s-5 61.5 -15 87.5s-25.667 48.667 -47 68c-44.667 41.333 -106 62 -184 62c-72.667 0 -132.667 -18 -180 -54c-49.333 -36.667 -74 -87 -74 -151
c0 -94 56.667 -179.333 170 -256c34 -22.667 69.667 -45 107 -67zM383 402c0 -82.667 26 -147.333 78 -194s132.667 -70 242 -70c72.667 0 136 20.667 190 62c57.333 44 86 101.667 86 173c0 103.333 -73.667 195.667 -221 277c-42 23.333 -85.333 47 -130 71
c-114 -46.667 -189.667 -119.333 -227 -218c-12 -32 -18 -65.667 -18 -101z" />
    <glyph glyph-name="Digit_Nine" unicode="9" horiz-adv-x="1399" 
d="M1001 625c0 326.667 -101.667 490 -305 490c-80.667 0 -148 -33.333 -202 -100c-51.333 -62.667 -77 -129.833 -77 -201.5s6.16699 -130.667 18.5 -177s29.5 -85.167 51.5 -116.5c44 -62 102.667 -93 176 -93c58.667 0 106 8.33301 142 25c10 4.66699 20 9.33301 30 14
l52 -124c-32 -37.333 -91 -63.333 -177 -78c-30.667 -5.33301 -72.167 -8 -124.5 -8s-103.833 13 -154.5 39s-93.667 60.667 -129 104c-70.667 88 -106 196.667 -106 326c0 164.667 46.667 296.333 140 395c96 101.333 227 152 393 152c160.667 0 287 -58.667 379 -176
c85.333 -107.333 128 -244.667 128 -412c0 -180.667 -45.667 -353 -137 -517c-80 -144 -189 -267.667 -327 -371c-126.667 -96 -257 -158 -391 -186l-74 136c197.333 50 363.667 164.333 499 343c80 106 136 217 168 333c16 56.667 24.5 101.167 25.5 133.5
s1.5 55.5 1.5 69.5z" />
    <glyph glyph-name="Colon" unicode=":" horiz-adv-x="602" 
d="M213 21c-13.333 13.333 -24.333 29.667 -33 49s-13 40.5 -13 63.5s4.33299 44.667 13 65s20.667 38.167 36 53.5c32.667 34.667 65.5 52 98.5 52s58.5 -4 76.5 -12s33 -19 45 -33c26 -29.333 39 -60.833 39 -94.5s-4.16699 -60.833 -12.5 -81.5s-19.833 -39 -34.5 -55
c-32.667 -33.333 -71 -50 -115 -50c-38 0 -71.333 14.333 -100 43zM213 817c-13.333 13.333 -24.333 29.667 -33 49s-13 40.5 -13 63.5s4.33299 44.667 13 65s20.667 38.167 36 53.5c32.667 34.667 65.5 52 98.5 52s58.5 -4 76.5 -12s33 -19 45 -33
c26 -29.333 39 -60.833 39 -94.5s-4.16699 -60.833 -12.5 -81.5s-19.833 -39 -34.5 -55c-32.667 -33.333 -71 -50 -115 -50c-38 0 -71.333 14.333 -100 43z" />
    <glyph glyph-name="Semicolon" unicode=";" horiz-adv-x="602" 
d="M180 140l139 131c64.667 -24.667 114 -71 148 -139c28.667 -56.667 43 -115.5 43 -176.5s-7.16699 -115.667 -21.5 -164c-14.333 -48.333 -33.833 -91.833 -58.5 -130.5c-50 -79.333 -111.667 -133 -185 -161l-74 92v26c59.333 29.333 99.667 87.333 121 174
c6.66699 27.333 10 53.333 10 78c0 24.667 -3.33301 48.5 -10 71.5s-15.667 44.5 -27 64.5c-25.333 43.333 -53.667 67 -85 71v63zM213 817c-13.333 13.333 -24.333 29.667 -33 49s-13 40.5 -13 63.5s4.33299 44.667 13 65s20.667 38.167 36 53.5
c32.667 34.667 65.5 52 98.5 52s58.5 -4 76.5 -12s33 -19 45 -33c26 -29.333 39 -60.833 39 -94.5s-4.16699 -60.833 -12.5 -81.5s-19.833 -39 -34.5 -55c-32.667 -33.333 -71 -50 -115 -50c-38 0 -71.333 14.333 -100 43z" />
    <glyph glyph-name="Less-than_sign" unicode="&#x3c;" horiz-adv-x="1368" 
d="M188 850l966 446v-205l-731 -318l731 -313v-208l-966 444v154z" />
    <glyph glyph-name="Equal_sign" unicode="=" horiz-adv-x="1399" 
d="M262 1116h915v-167h-915v167zM262 599h915v-166h-915v166z" />
    <glyph glyph-name="Greater-than_sign" unicode="&#x3e;" horiz-adv-x="1368" 
d="M1220.01 850l-965.941 446v-205l730.956 -318l-730.956 -313v-208l965.941 444v154z" />
    <glyph glyph-name="Question_mark" unicode="?" horiz-adv-x="1047" 
d="M520 1627c-57.333 18 -124.667 27 -202 27c-77.333 0 -136.333 -5.66699 -177 -17v160c20.667 15.333 55.667 26.167 105 32.5c49.333 6.33301 86.333 9.5 111 9.5c226.667 0 391.667 -61 495 -183c67.333 -79.333 101 -176.333 101 -291c0 -36.667 -4 -76.667 -12 -120
s-24 -83 -48 -119s-51.833 -67.833 -83.5 -95.5s-64.667 -52.333 -99 -74s-66.167 -43.167 -95.5 -64.5c-68 -48 -104 -95.667 -108 -143c-1.33301 -13.333 -2 -25.333 -2 -36s0.5 -23 1.5 -37s3.5 -31 7.5 -51c4.66699 -20 17 -63.667 37 -131h-167
c-36.667 43.333 -63.333 107 -80 191c-6 31.333 -9 62.833 -9 94.5s9.16699 61.667 27.5 90s42.5 55.167 72.5 80.5s62.833 49.167 98.5 71.5s69.833 45.167 102.5 68.5c76 54 118.333 105 127 153c9.33301 38 14 71.333 14 100c0 144 -72.333 238.667 -217 284zM366 68
c-8.66699 18.667 -13 39 -13 61s4.33301 43 13 63s20.667 37.667 36 53c32 33.333 64 50 96 50s56.833 -4 74.5 -12s32.5 -18.667 44.5 -32c25.333 -28 38 -58.333 38 -91c0 -32.667 -4.16699 -59.167 -12.5 -79.5s-19.833 -38.167 -34.5 -53.5
c-31.333 -32.667 -68.667 -49 -112 -49c-59.333 0 -102.667 30 -130 90z" />
    <glyph glyph-name="At_sign" unicode="@" horiz-adv-x="2218" 
d="M1523 -246l39 -129c-72.667 -45.333 -181.333 -77 -326 -95c-47.333 -5.33301 -95 -8 -143 -8c-254 0 -457.667 74 -611 222c-166 160 -249 386.667 -249 680c0 220.667 46.333 417.333 139 590c88 166 211.333 295.667 370 389c158 93.333 334.667 140 530 140
c227.333 0 409 -61.667 545 -185c140.667 -126.667 211 -302 211 -526c0 -253.333 -59.333 -459 -178 -617c-70.667 -94.667 -154.333 -159.667 -251 -195c-46.667 -16.667 -93.667 -25 -141 -25c-103.333 0 -154 81 -152 243c0.666992 21.333 2.66699 46.333 6 75
c-77.333 -148 -165 -245.667 -263 -293c-35.333 -16.667 -71 -25 -107 -25s-71 9 -105 27c-73.333 37.333 -125.667 110 -157 218c-15.333 50.667 -23 94.333 -23 131s0.333008 68 1 94s6 63.5 16 112.5s25 96.833 45 143.5s45.167 90.667 75.5 132s66.167 77.667 107.5 109
c89.333 67.333 189.167 101 299.5 101s192.167 -18.333 245.5 -55l172 31c-50.667 -185.333 -87.667 -353.167 -111 -503.5s-35 -251.5 -35 -303.5s12.333 -78 37 -78s50.167 7.66701 76.5 23s52.167 36.833 77.5 64.5c25.333 27.667 49.333 61 72 100
s42.667 82.167 60 129.5c36.667 103.333 55 203.5 55 300.5s-7.33301 176.167 -22 237.5s-35.333 114.167 -62 158.5s-58.833 81.333 -96.5 111s-79.167 53.167 -124.5 70.5c-84.667 32 -176.833 48 -276.5 48s-184.5 -10.5 -254.5 -31.5s-135.5 -51.167 -196.5 -90.5
s-116.667 -87 -167 -143s-93.5 -119.333 -129.5 -190c-75.333 -148 -113 -313.667 -113 -497c0 -350 119.667 -583.667 359 -701c100 -49.333 222.833 -74 368.5 -74s274.5 28 386.5 84zM845 445c0 -182 46.667 -273 140 -273c43.333 0 95 40.667 155 122
c85.333 116.667 152.667 255.333 202 416c14.667 48 24.667 91 30 129c-21.333 37.333 -64.333 61 -129 71c-17.333 2.66699 -33.333 4 -48 4c-102.667 0 -187.667 -47.667 -255 -143c-63.333 -89.333 -95 -198 -95 -326z" />
    <glyph glyph-name="Latin_Capital_Letter_A" unicode="A" horiz-adv-x="1407" 
d="M623 1538h215l568 -1538h-241l-130 385h-622l-136 -385h-236zM979 551l-204 609l-43 142l-44 -142l-216 -609h507z" />
    <glyph glyph-name="Latin_Capital_Letter_B" unicode="B" horiz-adv-x="1339" 
d="M672 -14c-105.333 0 -221 4.667 -347 14h-111v1523l104 -1l350 15c248 0 403.333 -71 466 -213c20 -44 30 -88.167 30 -132.5s-4.33301 -85 -13 -122s-22.333 -72.167 -41 -105.5c-41.333 -74 -100.333 -121 -177 -141c92 -4 171 -43 237 -117
c64.667 -72 97 -155.333 97 -250c0 -149.333 -43.333 -262 -130 -338c-100.667 -88 -255.667 -132 -465 -132zM627 1380c-105.333 0 -169 -4.33301 -191 -13v-500c28 -4.66699 74 -7 138 -7l139 2c68 0 123.333 23.333 166 70c46 51.333 69 122.333 69 213
c0 156.667 -107 235 -321 235zM589 704c-72.667 0 -123.667 -2 -153 -6v-527c24.667 -15.333 85.333 -23 182 -23s167.333 4.66701 212 14s82.667 25 114 47c64.667 45.333 97 117.167 97 215.5s-28.667 169.333 -86 213s-146.333 65.5 -267 65.5z" />
    <glyph glyph-name="Latin_Capital_Letter_C" unicode="C" horiz-adv-x="1313" 
d="M1186 1283c-90.667 49.333 -208 74 -352 74c-153.333 0 -274.667 -53 -364 -159s-134 -249.333 -134 -430s44 -326.667 132 -438c90.667 -113.333 212.333 -170 365 -170c118 0 223 19.333 315 58c26 11.333 45.667 23 59 35l1 -189
c-98 -38.667 -174.667 -61.667 -230 -69s-106.667 -11 -154 -11c-214 0 -386 70.667 -516 212c-128.667 140.667 -193 326.333 -193 557c0 242.667 70.667 436.333 212 581c64.667 66.667 139.5 117.333 224.5 152s165.333 52 241 52s135.333 -2.33301 179 -7
s81.5 -10.167 113.5 -16.5s58.833 -12.667 80.5 -19s39.167 -11.167 52.5 -14.5z" />
    <glyph glyph-name="Latin_Capital_Letter_D" unicode="D" horiz-adv-x="1472" 
d="M680 -16l-381 16h-85v1522h112l360 16c240.667 0 422 -64.667 544 -194c118.667 -124.667 178 -304.667 178 -540c0 -258.667 -66.667 -461.333 -200 -608c-129.333 -141.333 -305.333 -212 -528 -212zM1039 1242.5c0 0 -11.333 11.917 -34 35.75
s-67.833 46.25 -135.5 67.25s-144 31.5 -229 31.5s-152.5 -5.33301 -202.5 -16v-1193c52.667 -12.667 139 -19 259 -19c228 4.66701 375.667 118.333 443 341c24 78 36 172.5 36 283.5s-11.5 205 -34.5 282s-57.167 139.333 -102.5 187z" />
    <glyph glyph-name="Latin_Capital_Letter_E" unicode="E" 
d="M214 1522h876v-172h-653v-480h479v-172h-479v-523h726v-175h-949v1522z" />
    <glyph glyph-name="Latin_Capital_Letter_F" unicode="F" horiz-adv-x="1083" 
d="M214 1522h874v-172h-650v-499h487v-172h-487v-679h-224v1522z" />
    <glyph glyph-name="Latin_Capital_Letter_G" unicode="G" horiz-adv-x="1433" 
d="M1240 1278c-108.667 57.333 -252 86 -430 86c-135.333 0 -245.333 -51.333 -330 -154c-86.667 -106 -130 -249.333 -130 -430c0 -185.333 38.333 -333.667 115 -445c83.333 -120.667 202 -181 356 -181c94 0 175.667 10.667 245 32c22.667 6.66701 41.333 15 56 25v377
l-277 13v160h492v-667c-22 -1.333 -46.667 -7.833 -74 -19.5s-60.667 -24.167 -100 -37.5c-104 -35.333 -214.667 -53 -332 -53s-219.667 19.5 -307 58.5s-161 92.833 -221 161.5c-122.667 139.333 -184 322.333 -184 549c0 251.333 68.333 447.333 205 588
c127.333 131.333 294 197 500 197c98 0 171.667 -4.83301 221 -14.5s87.5 -18 114.5 -25s57.167 -13.833 90.5 -20.5z" />
    <glyph glyph-name="Latin_Capital_Letter_H" unicode="H" horiz-adv-x="1552" 
d="M214 1522h223v-667h718v667h223v-1522h-223v683h-718v-683h-223v1522z" />
    <glyph glyph-name="Latin_Capital_Letter_I" unicode="I" horiz-adv-x="640" 
d="M227 1522h226v-1522h-226v1522z" />
    <glyph glyph-name="Latin_Capital_Letter_J" unicode="J" horiz-adv-x="713" 
d="M514 613l2 -216c0 -132 -6.33301 -233.167 -19 -303.5c-12.667 -70.333 -35.167 -130.167 -67.5 -179.5c-32.333 -49.333 -69.833 -91.333 -112.5 -126c-80 -64 -170.333 -104 -271 -120l-68 117c99.333 34.667 176.667 93.333 232 176c33.333 50.667 54.667 121 64 211
c9.33301 83.333 14 228.667 14 436v914h226v-909z" />
    <glyph glyph-name="Latin_Capital_Letter_K" unicode="K" horiz-adv-x="1371" 
d="M214 1522h223v-764l603 764h263l-539 -656c28 -46.667 82.833 -130 164.5 -250s138.167 -203.333 169.5 -250c74 -112.667 127 -198 159 -256l65 -110h-257c-7.33301 10 -14.333 22 -21 36l-18 37c-40.667 80.667 -110.5 194.5 -209.5 341.5s-162.5 242.5 -190.5 286.5
l-189 -220v-481h-223v1522z" />
    <glyph glyph-name="Latin_Capital_Letter_L" unicode="L" horiz-adv-x="1080" 
d="M214 1522h228v-1347h604v-175h-832v1522z" />
    <glyph glyph-name="Latin_Capital_Letter_M" unicode="M" horiz-adv-x="1923" 
d="M308 1522h315l282 -869l79 -323l75 323l270 869h299l182 -1522h-224l-93 946l-29 410l-102 -410l-318 -961h-120l-332 961l-112 409l-27 -409l-83 -946l-216 -1z" />
    <glyph glyph-name="Latin_Capital_Letter_N" unicode="N" horiz-adv-x="1556" 
d="M213 1522h204l651 -1005l123 -226l-13 254v977h205v-1522h-207l-630 967l-140 249l12 -264v-952h-205v1522z" />
    <glyph glyph-name="Latin_Capital_Letter_O" unicode="O" horiz-adv-x="1569" 
d="M120 751c0 133.333 19.5 249.667 58.5 349s90.5 181 154.5 245c128.667 128.667 293.667 193 495 193c202.667 0 364.333 -70.667 485 -212c117.333 -136.667 176 -317.667 176 -543c0 -255.333 -65.833 -452.333 -197.5 -591s-299.833 -208 -504.5 -208
s-367 71.5 -487 214.5s-180 327.167 -180 552.5zM819 155c60 0 118.167 13.333 174.5 40s104.5 66 144.5 118c83.333 108.667 125 261.667 125 459c0 169.333 -37 308.667 -111 418c-81.333 118.667 -191.667 178 -331 178c-137.333 0 -249 -49.333 -335 -148
c-94 -109.333 -141 -263.333 -141 -462c0 -168.667 38.667 -308.667 116 -420c84.667 -122 204 -183 358 -183z" />
    <glyph glyph-name="Latin_Capital_Letter_P" unicode="P" horiz-adv-x="1270" 
d="M1068 659c-49.333 -44.667 -110.333 -78.667 -183 -102s-141.333 -35 -206 -35s-145.333 1.66699 -242 5v-527h-223v1522h105c58 0 116.667 2.66699 176 8s126.333 8 201 8s144.833 -9.5 210.5 -28.5s121.5 -48.5 167.5 -88.5c94.667 -83.333 142 -208.667 142 -376
s-49.333 -296 -148 -386zM994 1032v97s-31 122.333 -93 173s-142.5 76 -241.5 76s-173.167 -6.33301 -222.5 -19v-663c48.667 -6.66699 103.667 -10 165 -10s114.5 4.5 159.5 13.5s84.5 26.5 118.5 52.5c76 57.333 114 150.667 114 280z" />
    <glyph glyph-name="Latin_Capital_Letter_Q" unicode="Q" horiz-adv-x="1569" 
d="M1347 -113c86.667 0 148 6.333 184 19v-160c-40 -26.667 -93.667 -40 -161 -40s-125.667 4 -175 12s-97.333 22.333 -144 43c-97.333 43.333 -185.667 117.667 -265 223h-5c-202 0 -364.333 74 -487 222c-116 140 -174 321.667 -174 545c0 133.333 19.5 249.667 58.5 349
s90.5 181 154.5 245c128.667 128.667 293.667 193 495 193c202.667 0 364.333 -70.667 485 -212c117.333 -136.667 176 -317.667 176 -543c0 -210 -47 -383.667 -141 -521c-84.667 -122.667 -201 -205.667 -349 -249c81.333 -84 197.333 -126 348 -126zM819 155
c60 0 118.167 13.333 174.5 40s104.5 66 144.5 118c83.333 108.667 125 261.667 125 459c0 169.333 -37 308.667 -111 418c-81.333 118.667 -191.667 178 -331 178c-137.333 0 -249 -49.333 -335 -148c-94 -109.333 -141 -263.333 -141 -462
c0 -168.667 38.667 -308.667 116 -420c84.667 -122 204 -183 358 -183z" />
    <glyph glyph-name="Latin_Capital_Letter_R" unicode="R" horiz-adv-x="1367" 
d="M214 1522h97c50 0 108.667 2.66699 176 8s138.833 8 214.5 8s145.333 -8 209 -24s118.167 -41.333 163.5 -76c95.333 -72.667 143 -182 143 -328c0 -112 -24.5 -202.833 -73.5 -272.5s-116.167 -119.5 -201.5 -149.5c56.667 -38.667 115.333 -124 176 -256
c17.333 -36.667 34 -73.333 50 -110c53.333 -124 106 -231.333 158 -322h-253c-9.33301 13.333 -19 31.333 -29 54s-20.333 45.333 -31 68c-10.667 22.667 -22.667 52 -36 88s-27.333 72.5 -42 109.5s-30 73.333 -46 109s-33.333 68.5 -52 98.5
c-41.333 66 -86.333 107 -135 123c-30 -1.33301 -66 -2 -108 -2h-157v-648h-223v1522zM639 1374c-77.333 0 -144.667 -6 -202 -18v-550c32 -4 75.667 -6 131 -6h104c211.333 0 317 99.667 317 299c0 96.667 -24.333 166.333 -73 209c-51.333 44 -143.667 66 -277 66z" />
    <glyph glyph-name="Latin_Capital_Letter_S" unicode="S" horiz-adv-x="1132" 
d="M560 161c202 0 303 70.333 303 211c0 68.667 -29.333 127.333 -88 176c-39.333 32.667 -102.5 70 -189.5 112s-153.333 78 -199 108s-86.5 64 -122.5 102c-79.333 84.667 -119 177 -119 277c0 174.667 88.333 293 265 355c70 24 139.167 36 207.5 36
s121.333 -2.5 159 -7.5s71.167 -11.167 100.5 -18.5c52.667 -14 95.333 -31.667 128 -53l-45 -176c-86.667 53.333 -190.667 80 -312 80c-129.333 0 -217.667 -33.667 -265 -101c-16.667 -24 -25 -53.5 -25 -88.5s5.5 -66 16.5 -93s28.833 -51.833 53.5 -74.5
c36.667 -35.333 92.833 -72.333 168.5 -111s130.167 -67.333 163.5 -86s65.667 -38.5 97 -59.5s60.667 -43.667 88 -68s51 -50.833 71 -79.5c44 -62.667 66 -130 66 -202s-12.5 -134 -37.5 -186s-59.833 -95 -104.5 -129c-88.667 -67.333 -210.333 -101 -365 -101
c-140.667 0 -262.667 19.333 -366 58c-27.333 10.667 -47.667 20.333 -61 29l53 183c67.333 -40.667 152.333 -69 255 -85c34.667 -5.33299 69.333 -8 104 -8z" />
    <glyph glyph-name="Latin_Capital_Letter_T" unicode="T" horiz-adv-x="1303" 
d="M558 1350h-475v172h1177v-172h-477v-1350h-225v1350z" />
    <glyph glyph-name="Latin_Capital_Letter_U" unicode="U" horiz-adv-x="1463" 
d="M179 1522h223l-1 -836c0 -200 32 -340.667 96 -422c56 -70.667 146.333 -106 271 -106c111.333 0 192.667 35.667 244 107c60.667 83.333 91 223.667 91 421v836h222v-892c0 -318 -105 -519.333 -315 -604c-70.667 -28 -156 -42 -256 -42s-186.833 14.5 -260.5 43.5
s-133.833 71.167 -180.5 126.5c-89.333 106 -134 265.667 -134 479v889z" />
    <glyph glyph-name="Latin_Capital_Letter_V" unicode="V" horiz-adv-x="1355" 
d="M42 1522h237l360 -1024l67 -235l69 235l344 1024h234l-555 -1535h-187z" />
    <glyph glyph-name="Latin_Capital_Letter_W" unicode="W" horiz-adv-x="1918" 
d="M42 1522h229l242 -988l50 -276l51 276l287 988h161l291 -988l66 -278l47 277l226 989h224l-393 -1538h-218l-290 998l-35 182l-34 -183l-294 -997h-191z" />
    <glyph glyph-name="Latin_Capital_Letter_X" unicode="X" horiz-adv-x="1314" 
d="M543 786l-478 736l251 1l371 -606l356 605h239l-477 -769l487 -753h-254l-373 619l-363 -619h-239z" />
    <glyph glyph-name="Latin_Capital_Letter_Y" unicode="Y" horiz-adv-x="1264" 
d="M543 593l-501 929h238l338 -660l43 -105l36 105l331 660h234l-493 -929v-593h-226v593z" />
    <glyph glyph-name="Latin_Capital_Letter_Z" unicode="Z" horiz-adv-x="1294" 
d="M886 1273l58 71h-750v178h996l46 -81l-760 -1181l-74 -85h775v-175h-1023l-45 84z" />
    <glyph glyph-name="Left_Square_Bracket" unicode="[" horiz-adv-x="837" 
d="M685 -167c-118.667 -16 -206.333 -24 -263 -24s-97.333 3.83299 -122 11.5s-44 20.833 -58 39.5c-24.667 34 -37 100.667 -37 200v1426c0 99.333 12.333 166 37 200c25.333 34 76.333 51 153 51c72.667 0 133 -3.33301 181 -10s84.333 -11.333 109 -14v-120h-268v-1642
l268 -2v-116z" />
    <glyph glyph-name="Backslash" unicode="\" horiz-adv-x="854" 
d="M260.037 1599h-197.988l569.966 -1962h197.988z" />
    <glyph glyph-name="Right_Square_Bracket" unicode="]" horiz-adv-x="837" 
d="M192.041 -167c118.659 -16 206.32 -24 262.984 -24c56.663 0 97.327 3.83299 121.992 11.5c24.665 7.66701 43.9969 20.833 57.9969 39.5c24.665 34 36.997 100.667 36.997 200v1426c0 99.333 -12.332 166 -36.997 200c-25.332 34 -76.329 51 -152.991 51
c-72.662 0 -132.992 -3.33301 -180.989 -10c-47.997 -6.66699 -84.328 -11.333 -108.993 -14v-120h267.983v-1642l-267.983 -2v-116z" />
    <glyph glyph-name="Circumflex_accent" unicode="^" horiz-adv-x="1363" 
d="M599 1531h205l394 -1041h-211l-286 798l-285 -798h-211z" />
    <glyph glyph-name="Low_line" unicode="_" horiz-adv-x="1692" 
d="M1752 -279v-137h-1772v137h1772z" />
    <glyph glyph-name="Grave_accent" unicode="`" horiz-adv-x="595" 
d="M227 1783c62.667 -80 175.333 -213 338 -399l-111 -90c-39.333 17.333 -105.167 68.333 -197.5 153c-92.333 84.667 -154.5 151.667 -186.5 201z" />
    <glyph glyph-name="Latin_Small_Letter_A" unicode="a" horiz-adv-x="1131" 
d="M212.5 69.5c0 0 -7.75 6.917 -23.25 20.75s-31.917 40.583 -49.25 80.25c-17.333 39.667 -26 90.5 -26 152.5s20 119 60 171c84 109.333 248 172.667 492 190c37.333 2.66699 72 4 104 4v115c0 76.667 -20 128.333 -60 155c-33.333 22 -94.333 33 -183 33
c-76.667 0 -161 -18.333 -253 -55c-24 -9.33301 -42.333 -18.667 -55 -28l-54 144c57.333 36 152.333 66.667 285 92c45.333 8.66699 94.167 13 146.5 13s103.333 -4.83301 153 -14.5s92.5 -27.833 128.5 -54.5c74.667 -56 112 -154 112 -294v-810h-90
c-42.667 0 -70.333 4 -83 12c-22.667 15.333 -34 46 -34 92v8c-54.667 -50 -128.333 -84 -221 -102c-32 -6.667 -69.167 -10 -111.5 -10s-84.833 7.333 -127.5 22s-79.5 35.833 -110.5 63.5zM331 324c0 -117.333 65.667 -176 197 -176c72.667 0 142 19 208 57
c16.667 9.33299 28 17.333 34 24v319c-78 0 -144.333 -6.66699 -199 -20s-91.833 -24.667 -111.5 -34s-37.167 -19.167 -52.5 -29.5s-28.667 -22.5 -40 -36.5c-24 -28.667 -36 -63.333 -36 -104z" />
    <glyph glyph-name="Latin_Small_Letter_B" unicode="b" horiz-adv-x="1238" 
d="M398 1030c84 84 188.333 126 313 126c128 0 233 -44.667 315 -134c90 -97.333 135 -234 135 -410c0 -186 -52.333 -337.333 -157 -454c-106.667 -117.333 -246 -176 -418 -176c-114 0 -228 19 -342 57c-28 9.333 -47.333 17.667 -58 25v1597h220v-472zM650 983
c-82.667 0 -164 -31 -244 -93v-706c38 -26.667 106.333 -40 205 -40c95.333 0 172.333 37.333 231 112c63.333 80.667 95 192.667 95 336c0 260.667 -95.667 391 -287 391z" />
    <glyph glyph-name="Latin_Small_Letter_C" unicode="c" horiz-adv-x="1002" 
d="M913 923c-59.333 42 -144.667 63 -256 63c-87.333 0 -160.333 -30 -219 -90c-72.667 -75.333 -109 -185.333 -109 -330c0 -124.667 29.5 -225.167 88.5 -301.5c59 -76.333 136.833 -114.5 233.5 -114.5c76 0 150.667 14.667 224 44c19.333 7.33299 35.333 15 48 23
l45 -125c-78 -72 -194.667 -108 -350 -108c-156 0 -279.667 55 -371 165c-86.667 104 -130 240.333 -130 409c0 175.333 46 317 138 425c98 115.333 235.667 173 413 173c125.333 0 218.667 -19.667 280 -59z" />
    <glyph glyph-name="Latin_Small_Letter_D" unicode="d" horiz-adv-x="1237" 
d="M883 112c-85.333 -85.333 -191 -128 -317 -128c-127.333 0 -232 44.667 -314 134c-90 97.333 -135 234 -135 410c0 186 52 336.667 156 452c105.333 117.333 243.667 176 415 176c66 0 128 -9.66699 186 -29l-3 62v475h220v-1680h-95c-39.333 0 -65.333 4 -78 12
c-23.333 14 -35 39.333 -35 76v40zM871 946c-38 33.333 -106.333 50 -205 50c-94.667 0 -171.333 -37.333 -230 -112c-63.333 -80.667 -95 -190 -95 -328c0 -266 95.333 -399 286 -399c84 0 165.333 30.667 244 92v697z" />
    <glyph glyph-name="Latin_Small_Letter_E" unicode="e" horiz-adv-x="1123" 
d="M332 522c10 -197.333 82.667 -315.333 218 -354c40.667 -12 77.333 -18 110 -18s62.5 1.66701 89.5 5s53.833 7.66701 80.5 13c62 13.333 107 28 135 44l42 -126c-55.333 -45.333 -148 -76.667 -278 -94c-37.333 -5.333 -73 -8 -107 -8c-161.333 0 -286 52 -374 156
c-87.333 102.667 -131 246.667 -131 432c0 171.333 43 309.333 129 414c93.333 113.333 222 170 386 170c116.667 0 212 -35.333 286 -106c81.333 -79.333 124 -187.333 128 -324c0 -101.333 -3.66699 -169.333 -11 -204h-703zM841 712c0 192 -75.667 288 -227 288
c-160.667 0 -253 -110.667 -277 -332h503c0.666992 14.667 1 29.333 1 44z" />
    <glyph glyph-name="Latin_Small_Letter_F" unicode="f" horiz-adv-x="811" 
d="M823 1486c-40 13.333 -84.667 20 -134 20s-83.833 -4.5 -103.5 -13.5s-36.833 -22.5 -51.5 -40.5c-30.667 -37.333 -46 -91.667 -46 -163v-149h282v-166h-282v-974h-220v974h-173v122l173 44v99c0 200 74.667 334.667 224 404c56.667 26 116.167 39 178.5 39
s113.167 -7.33301 152.5 -22v-174z" />
    <glyph glyph-name="Latin_Small_Letter_G" unicode="g" 
d="M466 397c-42.667 -30.667 -64 -68.667 -64 -114c0 -42.667 7.33301 -70 22 -82c23.333 -18.667 59.333 -28 108 -28h207c158.667 0 272 -33.333 340 -100c53.333 -52 80 -124.667 80 -218c0 -111.333 -54.333 -202.333 -163 -273c-103.333 -66 -233.667 -99 -391 -99
c-228 0 -375 62.333 -441 187c-22.667 42 -34 84.5 -34 127.5s4.83299 76.5 14.5 100.5s22.167 46 37.5 66c26.667 34 62.333 63.333 107 88c-58.667 33.333 -88 90.333 -88 171c1.33299 38 14 76.5 38 115.5s58 73.5 102 103.5c-60.667 32 -108.667 75.333 -144 130
s-53 116.667 -53 186s11.5 128.333 34.5 177s54.833 89 95.5 121c82.667 66.667 195 100 337 100c104.667 0 195.333 -23 272 -69c60.667 40.667 131.667 61 213 61h111v-175h-209c34 -58 51 -121.333 51 -190s-11.833 -127.333 -35.5 -176s-56.167 -89.667 -97.5 -123
c-82.667 -66.667 -191.333 -100 -326 -100c-45.333 0 -86.667 4.33301 -124 13zM830 767c0 160 -75 240 -225 240c-113.333 0 -187.333 -39 -222 -117c-13.333 -30.667 -20 -66 -20 -106s4.33301 -74.5 13 -103.5s22.333 -54.5 41 -76.5c40.667 -48.667 100 -73 178 -73
c117.333 0 190.333 41 219 123c10.667 30 16 67.667 16 113zM417 7c-48.667 -42 -73 -96 -73 -162c0 -106 48.333 -171.667 145 -197c34 -9.33301 74.333 -14 121 -14s90.167 3.66699 130.5 11s76.167 18.333 107.5 33c67.333 30.667 101 73.667 101 129
c0 66.667 -18.333 114.333 -55 143c-42.667 33.333 -118.333 50 -227 50h-102c-70 0 -119.333 2.333 -148 7z" />
    <glyph glyph-name="Latin_Small_Letter_H" unicode="h" horiz-adv-x="1289" 
d="M196 1664h220v-475l-10 -162c75.333 54.667 167 93.667 275 117c42.667 8.66699 87.5 13 134.5 13s91.833 -8 134.5 -24s78 -42.667 106 -80c55.333 -72.667 83 -192 83 -358v-695h-220v711c0 97.333 -15 165 -45 203c-31.333 40 -83 60 -155 60
c-73.333 0 -150.333 -20.333 -231 -61c-25.333 -12.667 -49.333 -27.333 -72 -44v-869h-220v1664z" />
    <glyph glyph-name="Latin_Small_Letter_I" unicode="i" horiz-adv-x="606" 
d="M213 1138h220v-1138h-220v1138zM428.5 1390.5c0 0 -3.75 -3.41699 -11.25 -10.25s-21.083 -14.083 -40.75 -21.75s-39.333 -11.5 -59 -11.5s-38 3.16699 -55 9.5s-32.167 15.5 -45.5 27.5c-28 25.333 -42 53.5 -42 84.5s4.66701 56 14 75s21.667 35.5 37 49.5
c32.667 30 65.333 45 98 45s57.833 -3.5 75.5 -10.5s32.167 -16.833 43.5 -29.5c23.333 -24 35 -51.667 35 -83s-4.5 -56.5 -13.5 -75.5s-21 -35.333 -36 -49z" />
    <glyph glyph-name="Latin_Small_Letter_J" unicode="j" horiz-adv-x="574" 
d="M-59 -331c29.333 -14.667 63.667 -22 103 -22s69 6.5 89 19.5s35.667 32.167 47 57.5c22 48 33 124 33 228v1186h220v-1101c0 -282.667 -67.333 -454.333 -202 -515c-44 -19.333 -99 -29 -165 -29s-107.667 4.33301 -125 13v163zM425.5 1390.5
c0 0 -3.75 -3.41699 -11.25 -10.25s-21.083 -14.083 -40.75 -21.75s-39.333 -11.5 -59 -11.5s-38 3.16699 -55 9.5s-32.167 15.5 -45.5 27.5c-28 25.333 -42 53.5 -42 84.5s4.66701 56 14 75s21.667 35.5 37 49.5c32.667 30 65.333 45 98 45s57.833 -3.5 75.5 -10.5
s32.167 -16.833 43.5 -29.5c23.333 -24 35 -51.667 35 -83s-4.5 -56.5 -13.5 -75.5s-21 -35.333 -36 -49z" />
    <glyph glyph-name="Latin_Small_Letter_K" unicode="k" horiz-adv-x="1163" 
d="M188 1661h220v-910l-4 -112l455 501h259l-430 -449l483 -691h-250l-377 541l-141 -147l5 -171v-223h-220v1661z" />
    <glyph glyph-name="Latin_Small_Letter_L" unicode="l" horiz-adv-x="613" 
d="M217 1664h220v-1664h-220v1664z" />
    <glyph glyph-name="Latin_Small_Letter_M" unicode="m" horiz-adv-x="1972" 
d="M196 1138h196l1 -120c83.333 57.333 176.667 98.667 280 124c43.333 10 92 15 146 15c126 0 211.667 -47.667 257 -143c80 60.667 176 103.667 288 129c42 9.33301 87.667 14 137 14s95 -7 137 -21s76.667 -38.667 104 -74c53.333 -68 80 -184 80 -348v-714h-220v711
c0 98.667 -12.667 166.333 -38 203c-27.333 40 -76.667 60 -148 60c-105.333 0 -205.667 -34.333 -301 -103c6 -46 9 -98.333 9 -157v-714h-220v711c0 98.667 -12.667 166.333 -38 203c-27.333 40 -76.667 60 -148 60c-72.667 0 -149.333 -20.333 -230 -61
c-25.333 -12.667 -49.333 -27.333 -72 -44v-869h-220v1138z" />
    <glyph glyph-name="Latin_Small_Letter_N" unicode="n" horiz-adv-x="1279" 
d="M196 1138h196l1 -120c83.333 57.333 178 98.667 284 124c44 10 90 15 138 15s92.667 -7.16699 134 -21.5s75.667 -39.167 103 -74.5c51.333 -67.333 77 -184.333 77 -351v-710h-220v711c0 100 -13.333 169 -40 207c-26.667 38.667 -74.667 58 -144 58
c-75.333 0 -154.333 -21 -237 -63c-25.333 -12.667 -49.333 -27.333 -72 -44v-869h-220v1138z" />
    <glyph glyph-name="Latin_Small_Letter_O" unicode="o" horiz-adv-x="1213" 
d="M602 -16c-82 0 -154.667 16.667 -218 50c-178.667 92 -268 273 -268 543c0 187.333 50.667 332.333 152 435c94.667 96 217.333 144 368 144c172 0 301.667 -61 389 -183c74.667 -104.667 112 -244 112 -418c0 -180.667 -51 -323 -153 -427
c-93.333 -96 -220.667 -144 -382 -144zM626 140h70.5s95 35.833 144 107.5c49 71.667 73.5 174.5 73.5 308.5c0 202.667 -52 338 -156 406c-37.333 24 -82.333 36 -135 36c-92 0 -162.333 -35 -211 -105s-73 -170.667 -73 -302c0 -129.333 24.333 -236.833 73 -322.5
c48.667 -85.667 120 -128.5 214 -128.5z" />
    <glyph glyph-name="Latin_Small_Letter_P" unicode="p" horiz-adv-x="1238" 
d="M1005 160c-50 -56 -110.167 -99.333 -180.5 -130s-144 -46 -221 -46s-143.833 9.667 -200.5 29l3 -152v-367h-220v1646h199v-123c38 40 72.667 68.333 104 85c66.667 36 135.333 54 206 54s133.167 -11 187.5 -33s102.167 -55.667 143.5 -101
c90 -97.333 135 -234 135 -410c0 -186 -52 -336.667 -156 -452zM650 983c-82.667 0 -164 -31 -244 -93v-695c38.667 -34 107 -51 205 -51c95.333 0 172.333 37.333 231 112c63.333 80.667 95 192.667 95 336c0 260.667 -95.667 391 -287 391z" />
    <glyph glyph-name="Latin_Small_Letter_Q" unicode="q" horiz-adv-x="1237" 
d="M879 107c-82 -82 -186.333 -123 -313 -123c-127.333 0 -232 44.667 -314 134c-90 97.333 -135 234 -135 410c0 186 52 336.667 156 452c105.333 117.333 243.667 176 415 176c92.667 0 175 -15.667 247 -47l158 31v-1646h-220v367zM873 945
c-37.333 34 -106.333 51 -207 51c-94.667 0 -171.333 -37.333 -230 -112c-63.333 -80.667 -95 -190 -95 -328c0 -266 95.333 -399 286 -399c84 0 166 31 246 93v695z" />
    <glyph glyph-name="Latin_Small_Letter_R" unicode="r" horiz-adv-x="819" 
d="M657 964c-95.333 0 -178.333 -31.667 -249 -95v-869h-220v1138h185l14 -126c44 58 115 101.333 213 130c32 10 69.333 15 112 15s74.333 -4.66699 95 -14v-206c-36 18 -86 27 -150 27z" />
    <glyph glyph-name="Latin_Small_Letter_S" unicode="s" horiz-adv-x="977" 
d="M165 229c45.333 -30 116.333 -53.667 213 -71c39.333 -7.33299 84 -11 134 -11s92.5 12.167 127.5 36.5s52.5 58.833 52.5 103.5c0 59.333 -48 112.667 -144 160c-28 14 -61.5 29.333 -100.5 46s-78.167 36.333 -117.5 59c-127.333 75.333 -191 176 -191 302
c0 97.333 41 173.333 123 228c73.333 49.333 169.667 74 289 74c90.667 0 173.667 -14 249 -42c18 -6.66699 31.333 -12.333 40 -17l-36 -166c-32 26.667 -88 45.667 -168 57c-25.333 4 -51.333 6 -78 6c-70.667 0 -124.333 -11.167 -161 -33.5s-55 -49.667 -55 -82
s4.83301 -58.167 14.5 -77.5s24.167 -37 43.5 -53c31.333 -27.333 75.833 -52.667 133.5 -76s106.333 -45.5 146 -66.5s75.833 -45.5 108.5 -73.5c72.667 -64 109 -140.333 109 -229c0 -102.667 -36.333 -181.667 -109 -237c-70 -54.667 -167.667 -82 -293 -82
c-114.667 0 -216.333 17.333 -305 52c-25.333 9.333 -44.667 19 -58 29z" />
    <glyph glyph-name="Latin_Small_Letter_T" unicode="t" horiz-adv-x="850" 
d="M248 974h-148v119c24.667 7.33301 46.333 13.5 65 18.5s34.667 10.5 48 16.5c26.667 12.667 45 32.167 55 58.5s20.167 57 30.5 92s22.5 75.5 36.5 121.5h132v-260h322v-166h-322v-577c0 -107.333 6 -171.667 18 -193s26.167 -34 42.5 -38s35 -6 56 -6
s40.833 1.33299 59.5 4s37 6 55 10c42 9.33299 72 19 90 29l38 -126c-54 -40 -129.333 -68.333 -226 -85c-30.667 -5.333 -62.333 -8 -95 -8s-65 4 -97 12s-60 22.667 -84 44c-50.667 46 -76 123.667 -76 233v701z" />
    <glyph glyph-name="Latin_Small_Letter_U" unicode="u" horiz-adv-x="1249" 
d="M190 1140h220v-665c0 -133.333 16 -220.333 48 -261c16.667 -20.667 38.333 -34 65 -40s54.667 -9 84 -9s56.333 2.66701 81 8s48.667 12 72 20c46 16 83.667 33.333 113 52v895h220v-1156h-85c-39.333 0 -65 4 -77 12c-22 14 -33 39.333 -33 76v28
c-80.667 -50.667 -171.333 -86 -272 -106c-34 -6.667 -76.833 -10 -128.5 -10s-99.667 11.833 -144 35.5s-78.833 57.167 -103.5 100.5c-40 70.667 -60 188.667 -60 354v666z" />
    <glyph glyph-name="Latin_Small_Letter_V" unicode="v" horiz-adv-x="1113" 
d="M39 1140h237l226 -649l84 -272l77 272l217 649h234l-438 -1156h-185z" />
    <glyph glyph-name="Latin_Small_Letter_W" unicode="w" horiz-adv-x="1632" 
d="M41 1140h220l184 -684l50 -214l46 213l190 685h219l189 -684l49 -218l50 211l178 691h215l-348 -1156h-203l-204 745l-37 182l-40 -182l-201 -745h-209z" />
    <glyph glyph-name="Latin_Small_Letter_X" unicode="x" horiz-adv-x="1134" 
d="M471 578l-404 562h250l250 -378l25 -42l21 44l251 376h247l-405 -558l414 -582h-255l-250 379l-34 55l-28 -58l-232 -376h-251z" />
    <glyph glyph-name="Latin_Small_Letter_Y" unicode="y" horiz-adv-x="1116" 
d="M151 -314c19.333 -7.33301 45.333 -11 78 -11c32.667 0 62.667 4.16699 90 12.5s55 24.5 83 48.5c64.667 55.333 111.333 143.333 140 264h-65l-413 1140h235l252 -768l58 -186l267 954h237l-384 -1176c-86 -260.667 -205.333 -412.667 -358 -456
c-38 -10 -81 -15 -129 -15s-78.333 4.66699 -91 14v179z" />
    <glyph glyph-name="Latin_Small_Letter_Z" unicode="z" horiz-adv-x="1061" 
d="M102 82l610 890h-550v168h812l35 -95l-609 -885h589v-160h-845z" />
    <glyph glyph-name="Left_Curly_Bracket" unicode="{" horiz-adv-x="972" 
d="M822 -161c-84 -23.333 -160.833 -35 -230.5 -35s-117.167 4.16701 -142.5 12.5s-45.667 22.167 -61 41.5c-27.333 36.667 -41 104 -41 202v511c0 28.667 -29.333 57 -88 85c-56 28 -110.667 44.667 -164 50v142c58 6 106.333 18 145 36c71.333 32.667 107 63 107 91v511
c0 98 13.833 165.167 41.5 201.5s74.833 54.5 141.5 54.5s164 -8 292 -24v-122h-266v-620c0 -59.333 -43.333 -110 -130 -152c-36 -16.667 -73 -32.667 -111 -48c160.667 -64 241 -132 241 -204v-621h266v-112z" />
    <glyph glyph-name="Vertical_bar" unicode="|" horiz-adv-x="855" 
d="M346 1780h203v-1968h-203v1968z" />
    <glyph glyph-name="Right_Curly_Bracket" unicode="}" horiz-adv-x="972" 
d="M190.049 -161c83.995 -23.333 160.823 -35 230.486 -35c69.662 0 117.159 4.16701 142.491 12.5c25.332 8.33299 45.664 22.167 60.996 41.5c27.332 36.667 40.998 104 40.998 202v511c0 28.667 29.332 57 87.995 85c55.996 28 110.659 44.667 163.99 50v142
c-57.997 6 -106.327 18 -144.992 36c-71.329 32.667 -106.993 63 -106.993 91v511c0 98 -13.833 165.167 -41.498 201.5c-27.664 36.333 -74.828 54.5 -141.491 54.5c-66.662 0 -163.99 -8 -291.982 -24v-122h265.984v-620c0 -59.333 43.33 -110 129.992 -152
c35.998 -16.667 72.995 -32.667 110.993 -48c-160.657 -64 -240.985 -132 -240.985 -204v-621h-265.984v-112z" />
    <glyph glyph-name="Tilde" unicode="~" horiz-adv-x="1438" 
d="M936 802c78.667 0 146 38 202 114l103 -99c-35.333 -92 -102.333 -154 -201 -186c-34.667 -11.333 -70.667 -17 -108 -17s-68.333 4.16699 -93 12.5s-47.167 18.833 -67.5 31.5s-39.167 26.167 -56.5 40.5s-34.667 27.833 -52 40.5c-40 29.333 -75.667 44 -107 44
s-56.333 -3 -75 -9s-35.667 -14 -51 -24c-24 -15.333 -50.333 -42.333 -79 -81l-115 89c20 52 56 98 108 138c64.667 49.333 134 74 208 74s144.833 -28 212.5 -84s124.833 -84 171.5 -84z" />
    <glyph glyph-name="[name_not_found]" unicode="&#xa0;" horiz-adv-x="655" 
d="M323.766 703.304c63 0 113.848 -49 113.848 -109.41c0 -60.409 -51 -110 -113.848 -110c-62.848 0 -114 49 -114 110s51 109.41 114 109.41z" />
    <glyph glyph-name="Inverted_Exclamation_Mark" unicode="&#xa1;" horiz-adv-x="602" 
d="M440.011 -435.891h-247.985l23.999 1273.92h195.988zM430.012 1323c13.332 -13.332 24.165 -29.6649 32.498 -48.9969c8.33298 -19.332 12.499 -40.4971 12.499 -63.496c0 -22.998 -4.33301 -44.6641 -12.999 -64.9961
c-8.66602 -20.3319 -20.666 -38.1639 -35.998 -53.4969c-32.665 -34.6641 -65.329 -51.996 -97.994 -51.996s-57.997 3.9989 -75.995 11.9989c-17.999 7.99902 -33.332 18.999 -45.998 32.998c-25.998 29.998 -38.997 61.663 -38.997 94.994
c0 33.3309 4.33299 60.33 12.999 80.995s20.665 38.998 35.998 54.9969c31.998 33.3311 69.662 49.9971 112.993 49.9971c38.664 0 72.329 -14.333 100.994 -42.998z" />
    <glyph glyph-name="Cent_sign" unicode="&#xa2;" horiz-adv-x="1183" 
d="M973 923c-59.333 42 -144.667 63 -256 63c-87.333 0 -160.333 -30 -219 -90c-72.667 -75.333 -109 -185.333 -109 -330c0 -124.667 29.5 -225.167 88.5 -301.5c59 -76.333 136.833 -114.5 233.5 -114.5c76 0 150.667 14.667 224 44c19.333 7.33299 35.333 15 48 23
l45 -125c-60.667 -56.667 -152 -91.333 -274 -104l-3 -204h-150l4 205c-135.333 17.333 -241 79 -317 185c-74 102 -111 230 -111 384c0 160 38.333 292 115 396c80.667 111.333 195.667 176.667 345 196l6 227h149l-5 -223c100 -7.33301 173.667 -26.333 221 -57z" />
    <glyph glyph-name="Pound_sign" unicode="&#xa3;" horiz-adv-x="1532" 
d="M1413 317c0 -224.667 -143.333 -337 -430 -337c-105.333 0 -213.333 20 -324 60c-40.667 14.667 -74.5 27.167 -101.5 37.5s-46.5 15.5 -58.5 15.5s-20.333 -0.333 -25 -1c-35.333 -40 -82.333 -68.667 -141 -86c-19.333 -5.333 -36.833 -8 -52.5 -8s-29.833 2 -42.5 6
s-24.333 9.333 -35 16c-24.667 16.667 -37 36.667 -37 60s5.33299 45.333 16 66c10.667 20.667 26.667 38.667 48 54c47.333 34.667 113.333 54 198 58c18.667 41.333 28 111.333 28 210v288h-181v152h181v137c0 150 41.333 269 124 357c85.333 90.667 201.667 136 349 136
c138.667 0 248 -33 328 -99l-104 -158c-70.667 60.667 -153 91 -247 91c-68 0 -120.667 -22 -158 -66c-48.667 -56.667 -73 -150.333 -73 -281v-10v-107h353v-152h-352l1 -35v-86.5s-0.333008 -68 -1 -111s-3.66699 -85.5 -9 -127.5c-11.333 -86 -33.667 -147 -67 -183
c31.333 -5.33299 59.167 -12.333 83.5 -21s49.5 -17 75.5 -25c64.667 -20 130.667 -30 198 -30c165.333 0 248 65.333 248 196c0 56 -17 100.333 -51 133c-8.66699 8.66699 -17 14.333 -25 17l156 80c50 -28 88.333 -81 115 -159c8.66699 -27.333 13 -56.333 13 -87z" />
    <glyph glyph-name="Currency_sign" unicode="&#xa4;" horiz-adv-x="1527" 
d="M784 331c-82.667 0 -158.333 20.667 -227 62l-211 -212l-127 127l206 206c-55.333 78 -83 164.5 -83 259.5s27.333 180.5 82 256.5l-205 205l126 128l210 -212c70 42.667 146.333 64 229 64c80 0 156.333 -21.333 229 -64l215 214l127 -127l-209 -209
c54 -76.667 81 -162 81 -256s-27 -179.333 -81 -256l205 -205l-127 -127l-210 210c-70 -42.667 -146.667 -64 -230 -64zM785 495c72.667 0 135 27.333 187 82c51.333 54 77 119.333 77 196s-25.667 141.667 -77 195c-52 54.667 -114.333 82 -187 82
c-73.333 0 -136 -27.333 -188 -82c-52 -54 -78 -119 -78 -195s26 -141.333 78 -196s114.667 -82 188 -82z" />
    <glyph glyph-name="Yen_sign" unicode="&#xa5;" horiz-adv-x="1532" 
d="M294 436h385v231h-385v143h336l-446 712h238l304 -525l64 -134l62 141l312 518h233l-457 -712h319v-143h-360v-231h360v-143h-360v-293h-220v293h-385v143z" />
    <glyph glyph-name="Broken_bar" unicode="&#xa6;" horiz-adv-x="855" 
d="M346 1780h203v-830h-203v830zM346 641h203v-827h-203v827z" />
    <glyph glyph-name="Section_sign" unicode="&#xa7;" horiz-adv-x="1358" 
d="M1051 366c67.333 -58.667 101 -130.667 101 -216c0 -156.667 -88.667 -261 -266 -313c-68 -20 -134.167 -30 -198.5 -30s-118.167 2.83299 -161.5 8.5s-83.333 13.167 -120 22.5c-73.333 17.333 -127 38 -161 62l42 166c54 -40.667 137 -69.333 249 -86
c40 -6 80.833 -9 122.5 -9s79.833 2.833 114.5 8.5s65.333 14.833 92 27.5c58.667 28 88 69 88 123c0 55.333 -37.667 105.333 -113 150c-33.333 20 -71.5 39 -114.5 57s-86.833 36.5 -131.5 55.5s-88.5 39.667 -131.5 62s-81.167 48.167 -114.5 77.5
c-75.333 65.333 -113 143.667 -113 235c0 113.333 46.333 216.333 139 309c-85.333 72 -128 157.333 -128 256c0 156 84.333 260 253 312c62.667 19.333 125.333 29 188 29s113.333 -2.16699 152 -6.5s73 -9.83301 103 -16.5c56 -13.333 101 -30 135 -50l-42 -166
c-70.667 50 -180 75 -328 75c-118.667 0 -198.333 -27.667 -239 -83c-14.667 -19.333 -22 -44.667 -22 -76s10.333 -60.833 31 -88.5s47.833 -53.167 81.5 -76.5s72 -45.333 115 -66s86.833 -42 131.5 -64s88.5 -45.5 131.5 -70.5s81.5 -53.167 115.5 -84.5
c74.667 -70.667 112 -155.167 112 -253.5s-37.667 -191.833 -113 -280.5zM492 998c-37.333 -76.667 -56 -136.667 -56 -180s7.16699 -77.833 21.5 -103.5s33.833 -48.667 58.5 -69s53.167 -38.667 85.5 -55s66.5 -32.167 102.5 -47.5s72.833 -30.5 110.5 -45.5
s73.833 -31.167 108.5 -48.5c28 69.333 42 123.167 42 161.5s-6.83301 70.833 -20.5 97.5s-32.333 51 -56 73s-51 42.167 -82 60.5s-64 36 -99 53s-71 33.833 -108 50.5s-72.833 34.333 -107.5 53z" />
    <glyph glyph-name="Diaeresis" unicode="&#xa8;" horiz-adv-x="863" 
d="M776 1404.5l-10.5 -9.75s-19.833 -13.417 -38.5 -20.75s-37.5 -11 -56.5 -11s-36.5 3 -52.5 9s-30 14.667 -42 26c-25.333 24.667 -38 51.833 -38 81.5s4.5 53.5 13.5 71.5s20.5 33.667 34.5 47c30.667 29.333 61.833 44 93.5 44s55.667 -3.33301 72 -10
s29.833 -16 40.5 -28c20.667 -23.333 31 -50 31 -80s-4.33301 -54.167 -13 -72.5s-20 -34 -34 -47zM318 1404.5l-10.5 -9.75s-19.833 -13.417 -38.5 -20.75c-18.667 -7.33301 -37.5 -11 -56.5 -11s-36.5 3 -52.5 9s-30 14.667 -42 26c-25.333 24.667 -38 51.833 -38 81.5
s4.5 53.5 13.5 71.5s20.833 33.667 35.5 47c31.333 29.333 62.5 44 93.5 44s54.667 -3.33301 71 -10s29.833 -16 40.5 -28c20.667 -23.333 31 -50 31 -80s-4.33301 -54.167 -13 -72.5s-20 -34 -34 -47z" />
    <glyph glyph-name="Copyright_sign" unicode="&#xa9;" horiz-adv-x="2129" 
d="M214 962c0 81.333 10.167 159.5 30.5 234.5c20.333 75 49.333 145 87 210s82.833 124.167 135.5 177.5s111 99 175 137c134.667 79.333 282 119 442 119c159.333 0 306.667 -39.667 442 -119c131.333 -77.333 235 -182.333 311 -315
c78.667 -136.667 118 -284.333 118 -443c0 -159.333 -39.333 -307.667 -118 -445c-117.333 -205.333 -290.667 -340 -520 -404c-74.667 -21.333 -152.333 -32 -233 -32c-158.667 0 -306 40 -442 120c-130 76.667 -233.333 182 -310 316c-78.667 136 -118 284 -118 444z
M381 1162c-16.667 -64 -25 -130.5 -25 -199.5s8.33301 -135.333 25 -199s40.333 -123.5 71 -179.5s67.667 -106.833 111 -152.5s92 -84.833 146 -117.5c113.333 -68.667 238.333 -103 375 -103s261.667 34.333 375 103c166.667 100.667 276 250.667 328 450
c16.667 63.333 25 129.5 25 198.5s-8.33301 135.5 -25 199.5s-40.333 123.833 -71 179.5s-67.667 106.333 -111 152s-92 84.833 -146 117.5c-113.333 68.667 -238.333 103 -375 103s-261.667 -34.333 -375 -103c-167.333 -101.333 -276.667 -251 -328 -449zM1355 697
l45 -124c-75.333 -62.667 -181.667 -94 -319 -94c-133.333 0 -241 48.333 -323 145c-78 92 -117 202.667 -117 332c0 146 42.333 263.333 127 352c90.667 94.667 213.667 142 369 142c89.333 0 168.667 -18.667 238 -56l-32 -164c-65.333 42 -140.333 63 -225 63
c-89.333 0 -159.333 -31 -210 -93c-48.667 -59.333 -73 -135.667 -73 -229c0 -106 25.667 -189 77 -249c49.333 -57.333 118 -86 206 -86s167 20.333 237 61z" />
    <glyph glyph-name="Feminine_Ordinal_Indicator" unicode="&#xaa;" horiz-adv-x="1034" 
d="M534 686c-26.667 -6 -58.5 -9 -95.5 -9s-74.167 5.33301 -111.5 16s-69.333 26.333 -96 47c-56.667 44.667 -85 106.333 -85 185c0 119.333 60 203 180 251c102.667 37.333 226.667 56 372 56v64c0 63.333 -16.667 105 -50 125c-24.667 15.333 -60.167 23 -106.5 23
s-83.333 -2.83301 -111 -8.5s-54.5 -12.5 -80.5 -20.5c-56.667 -17.333 -97.333 -34.333 -122 -51l-56 121c23.333 21.333 62 41.333 116 60c104.667 36 187.667 54 249 54s113.333 -4.83301 156 -14.5s79 -25.833 109 -48.5c62.667 -48.667 94 -126.667 94 -234v-615h-71
c-44.667 0 -72.667 2.33301 -84 7c-21.333 8 -32 29.667 -32 65v14c-39.333 -41.333 -97.667 -70.333 -175 -87zM430 831c17.333 -4.66699 37.333 -7 60 -7s45.5 2.5 68.5 7.5s44.167 10.833 63.5 17.5c34 12 59 25 75 39l1 -1v223c-97.333 0 -162.167 -3.5 -194.5 -10.5
s-60.5 -16.167 -84.5 -27.5c-52.667 -26 -79 -70.333 -79 -133c0 -56 30 -92 90 -108z" />
    <glyph glyph-name="Left-pointing_double_angle_quotation_mark" unicode="&#xab;" horiz-adv-x="1936" 
d="M265 703l643 430l57 -163l-485 -356l485 -351l-57 -159l-643 415v184zM996 703l643 430l57 -163l-485 -356l485 -351l-57 -159l-643 415v184z" />
    <glyph glyph-name="Not_sign" unicode="&#xac;" horiz-adv-x="1470" 
d="M260 852h990v-529h-200v365h-790v164z" />
    <glyph glyph-name="Registered_sign" unicode="&#xae;" horiz-adv-x="2129" 
d="M214 962c0 81.333 10.167 159.5 30.5 234.5c20.333 75 49.333 145 87 210s82.833 124.167 135.5 177.5s111 99 175 137c134.667 79.333 282 119 442 119c159.333 0 306.667 -39.667 442 -119c131.333 -77.333 235 -182.333 311 -315
c78.667 -136.667 118 -284.333 118 -443c0 -159.333 -39.333 -307.667 -118 -445c-117.333 -205.333 -290.667 -340 -520 -404c-74.667 -21.333 -152.333 -32 -233 -32c-158.667 0 -306 40 -442 120c-130 76.667 -233.333 182 -310 316c-78.667 136 -118 284 -118 444z
M381 1162c-16.667 -64 -25 -130.5 -25 -199.5s8.33301 -135.333 25 -199s40.333 -123.5 71 -179.5s67.667 -106.833 111 -152.5s92 -84.833 146 -117.5c113.333 -68.667 238.333 -103 375 -103s261.667 34.333 375 103c166.667 100.667 276 250.667 328 450
c16.667 63.333 25 129.5 25 198.5s-8.33301 135.5 -25 199.5s-40.333 123.833 -71 179.5s-67.667 106.333 -111 152s-92 84.833 -146 117.5c-113.333 68.667 -238.333 103 -375 103s-261.667 -34.333 -375 -103c-167.333 -101.333 -276.667 -251 -328 -449zM1452 1174
c0 -161.333 -64.333 -261.333 -193 -300c40.667 -31.333 80.667 -88 120 -170c19.333 -41.333 34 -69.667 44 -85s19 -29 27 -41c16.667 -26 38.333 -59 65 -99l-204 1c-32 40.667 -61.167 92 -87.5 154s-46.167 103.667 -59.5 125c-32.667 50 -67.667 80 -105 90
c-13.333 -0.666992 -31 -1 -53 -1h-71v-369h-177v962h77l258 7c120 0 211.667 -27.333 275 -82c56 -48 84 -112 84 -192zM1224 1274c-16.667 14 -38.5 24.5 -65.5 31.5s-63.5 10.5 -109.5 10.5s-84 -3.66699 -114 -11v-325c29.333 -2.66699 56.333 -4 81 -4h49
c67.333 0 118 13 152 39s51 71.333 51 136c0 56.667 -14.667 97.667 -44 123z" />
    <glyph glyph-name="Macron" unicode="&#xaf;" horiz-adv-x="647" 
d="M70 1588h547v-163h-547v163z" />
    <glyph glyph-name="Degree_symbol" unicode="&#xb0;" horiz-adv-x="912" 
d="M476 939c-94.667 0 -174.667 32.333 -240 97c-66.667 64.667 -100 145.333 -100 242c0 97.333 33 178.333 99 243c65.333 64 145.667 96 241 96s175.667 -32.333 241 -97c66 -64.667 99 -145.333 99 -242c0 -97.333 -33 -178.333 -99 -243
c-65.333 -64 -145.667 -96 -241 -96zM476 1083c52 0 95.667 18.333 131 55c36 37.333 54 84 54 140c0 55.333 -18 101.667 -54 139c-35.333 36.667 -79 55 -131 55c-51.333 0 -94.667 -18 -130 -54c-36 -37.333 -54 -84 -54 -140c0 -54.667 18 -101.333 54 -140
c34.667 -36.667 78 -55 130 -55z" />
    <glyph glyph-name="Plus-minus_sign" unicode="&#xb1;" horiz-adv-x="1393" 
d="M270 165h892v-165h-892v165zM627 521l7 171l-165 -7h-220v177h220l165 -11l-7 172v228h178v-228l-8 -172l141 11h246v-177h-246l-141 7l8 -171v-236h-178v236z" />
    <glyph glyph-name="Superscript_two" unicode="&#xb2;" horiz-adv-x="1194" 
d="M561 1527c-102.667 0 -194.333 -47.333 -275 -142l-91 109c59.333 84 149.333 142.333 270 175c42 11.333 90.667 17 146 17s105.833 -8.83301 151.5 -26.5s83.167 -40.833 112.5 -69.5c57.333 -56 86 -125.333 86 -208c0 -198.667 -134.333 -384.333 -403 -557l458 5
v-165h-748l-43 110c102.667 52.667 208.333 128 317 226c136.667 124 205 238.333 205 343c0 122 -62 183 -186 183z" />
    <glyph glyph-name="Superscript_three" unicode="&#xb3;" horiz-adv-x="1194" 
d="M932 1453c0 -120 -69.333 -210 -208 -270c88 -4 157.333 -32.333 208 -85c46 -47.333 69 -99.667 69 -157s-8.5 -107.333 -25.5 -150s-43.5 -79.667 -79.5 -111c-78 -68 -190.667 -102 -338 -102c-48 0 -117.667 9.33301 -209 28l-14 142
c72.667 -14 146.667 -20.667 222 -20c155.333 1.33301 233 65.667 233 193c0 81.333 -42.667 136 -128 164c-26 8.66699 -55 14 -87 16l-88 -28l-37 128c39.333 7.33301 84.833 22.333 136.5 45s88.667 47.833 111 75.5s33.5 60.167 33.5 97.5c0 64 -32.333 104 -97 120
c-19.333 4.66699 -38.333 7 -57 7s-37.667 -1.83301 -57 -5.5s-39.333 -9.16699 -60 -16.5c-44 -14.667 -82.667 -33.667 -116 -57l-62 119c60.667 50 144 83 250 99c26.667 4 58.333 6 95 6s76.167 -6.33301 118.5 -19s77.167 -30 104.5 -52c54.667 -42 82 -97.667 82 -167
z" />
    <glyph glyph-name="Acute_accent" unicode="&#xb4;" horiz-adv-x="594" 
d="M70 1384c162 177.333 274.667 310.333 338 399l156 -135c-22.667 -40 -83.333 -106 -182 -198c-97.333 -90 -164.333 -142 -201 -156z" />
    <glyph glyph-name="Micro_sign" unicode="&#xb5;" horiz-adv-x="1360" 
d="M1063 -18c-80 0 -120 41.333 -120 124v14c-36 -40 -66.667 -68 -92 -84c-54.667 -34.667 -113.5 -52 -176.5 -52s-116.5 7.5 -160.5 22.5s-81 42.167 -111 81.5l32 -459h-205v1511h219v-741c0 -130 45.667 -206.667 137 -230c31.333 -8 72.667 -12 124 -12
s119 29.333 203 88v895h220v-906c0 -42.667 6.33301 -67 19 -73c4.66699 -2 14 -3 28 -3s35.667 9 65 27l31 -98c-22 -35.333 -67.333 -65.667 -136 -91c-24.667 -9.333 -50.333 -14 -77 -14z" />
    <glyph glyph-name="Pilcrow_sign" unicode="&#xb6;" horiz-adv-x="1320" 
d="M677 1711l469 -20v-1691h-184v1548h-241v-1548h-184v777c-289.333 0 -434 157 -434 471c0 142.667 48.333 254.667 145 336c100.667 84.667 243.667 127 429 127z" />
    <glyph glyph-name="Middle_dot" unicode="&#xb7;" horiz-adv-x="602" 
d="M213 606c-13.333 13.333 -24.333 29.667 -33 49s-13 40.5 -13 63.5s4.33299 44.667 13 65s20.667 38.167 36 53.5c32.667 34.667 65.5 52 98.5 52s58.5 -4 76.5 -12s33 -19 45 -33c26 -29.333 39 -60.833 39 -94.5s-4.16699 -60.833 -12.5 -81.5s-19.833 -39 -34.5 -55
c-32.667 -33.333 -71 -50 -115 -50c-38 0 -71.333 14.333 -100 43z" />
    <glyph glyph-name="Cedilla" unicode="&#xb8;" horiz-adv-x="485" 
d="M296 -94c0 46.667 -8.33301 88 -25 124l83 4l43 -4c39.333 -41.333 59 -111.333 59 -210c0 -147.333 -52.667 -237.667 -158 -271c-27.333 -8.66699 -51.5 -13 -72.5 -13s-39 0.666992 -54 2s-29.167 3.33301 -42.5 6c-30.667 6 -51.333 12.667 -62 20l15 142
c15.333 -9.33301 42.667 -14 82 -14c88 0 132 71.333 132 214z" />
    <glyph glyph-name="Superscript_one" unicode="&#xb9;" horiz-adv-x="1026" 
d="M488 1426l-206 -51l-40 121c82 24 180 74.333 294 151c26.667 18 46 32 58 42l105 -25v-1001h-211v763z" />
    <glyph glyph-name="Masculine_ordinal_indicator" unicode="&#xba;" horiz-adv-x="1033" 
d="M521 677c-57.333 0 -111 11 -161 33c-100 45.333 -168 127.333 -204 246c-16.667 56 -25 118.333 -25 187c0 153.333 47 271.667 141 355c76 67.333 169.667 101 281 101c125.333 0 222.333 -43.333 291 -130c65.333 -81.333 98 -191.333 98 -330
c0 -156 -44 -275.333 -132 -358c-73.333 -69.333 -169.667 -104 -289 -104zM456 847c24 -14.667 51.833 -22 83.5 -22s59.833 5.83301 84.5 17.5s45 29.5 61 53.5c32.667 50 49 127.667 49 233c0 156.667 -36.333 257.333 -109 302c-22.667 14 -41.833 21 -57.5 21
s-31.167 -0.166992 -46.5 -0.5s-35.333 -6 -60 -17s-46 -28.5 -64 -52.5c-38.667 -50.667 -58 -127.667 -58 -231c0 -154.667 39 -256 117 -304z" />
    <glyph glyph-name="Right-pointing_double_angle_quotation_mark" unicode="&#xbb;" horiz-adv-x="1936" 
d="M979.015 703l-642.961 430l-56.996 -163l484.97 -356l-484.97 -351l56.996 -159l642.961 415v184zM1710.02 703l-642.961 430l-56.996 -163l484.97 -356l-484.97 -351l56.996 -159l642.961 415v184z" />
    <glyph glyph-name="Vulgar_fraction_one_quarter" unicode="&#xbc;" horiz-adv-x="2479" 
d="M1891 235h-498l-52 94l482 811h68l131 -77l-396 -608l-42 -69h308v3l8 249l195 20v-272h194l1 -151h-195v-282h-204v282zM1307 1530h200l-542 -1530h-197zM511 1426l-206 -51l-40 121c82 24 180 74.333 294 151c26.667 18 46 32 58 42l105 -25v-1001h-211v763z" />
    <glyph glyph-name="Vulgar_fraction_one_half" unicode="&#xbd;" horiz-adv-x="2479" 
d="M1848 860c-102.667 0 -194.333 -47.333 -275 -142l-91 109c59.333 84 149.333 142.333 270 175c42 11.333 90.667 17 146 17s105.833 -8.83301 151.5 -26.5s83.167 -40.833 112.5 -69.5c57.333 -56 86 -125.333 86 -208c0 -198.667 -134.333 -384.333 -403 -557l458 5
v-165h-748l-43 110c102.667 52.667 208.333 128 317 226c136.667 124 205 238.333 205 343c0 122 -62 183 -186 183zM511 1426l-206 -51l-40 121c82 24 180 74.333 294 151c26.667 18 46 32 58 42l105 -25v-1001h-211v763zM1308 1530h200l-542 -1530h-197z" />
    <glyph glyph-name="Vulgar_fraction_three_quarters" unicode="&#xbe;" horiz-adv-x="2479" 
d="M1891 235h-498l-52 94l482 811h68l131 -77l-396 -608l-42 -69h308v3l8 249l195 20v-272h194l1 -151h-195v-282h-204v282zM786 1453c0 -120 -69.333 -210 -208 -270c88 -4 157.333 -32.333 208 -85c46 -47.333 69 -99.667 69 -157s-8.5 -107.333 -25.5 -150
s-43.5 -79.667 -79.5 -111c-78 -68 -190.667 -102 -338 -102c-48 0 -117.667 9.33301 -209 28l-14 142c72.667 -14 146.667 -20.667 222 -20c155.333 1.33301 233 65.667 233 193c0 81.333 -42.667 136 -128 164c-26 8.66699 -55 14 -87 16l-88 -28l-37 128
c39.333 7.33301 84.833 22.333 136.5 45s88.667 47.833 111 75.5s33.5 60.167 33.5 97.5c0 64 -32.333 104 -97 120c-19.333 4.66699 -38.333 7 -57 7s-37.667 -1.83301 -57 -5.5s-39.333 -9.16699 -60 -16.5c-44 -14.667 -82.667 -33.667 -116 -57l-62 119
c60.667 50 144 83 250 99c26.667 4 58.333 6 95 6s76.167 -6.33301 118.5 -19s77.167 -30 104.5 -52c54.667 -42 82 -97.667 82 -167zM1307 1530h200l-542 -1530h-197z" />
    <glyph glyph-name="Inverted_Question_Mark" unicode="&#xbf;" horiz-adv-x="1047" 
d="M566.031 -102.901c57.329 -17.999 124.659 -26.998 201.987 -26.998c77.329 0 136.325 5.666 176.989 16.999v-159.99c-20.665 -15.333 -55.663 -26.165 -104.993 -32.498c-49.331 -6.33301 -86.328 -9.5 -110.993 -9.5c-226.653 0 -391.643 60.997 -494.97 182.989
c-67.329 79.329 -100.994 176.323 -100.994 290.982c0 36.665 4 76.662 11.999 119.993c8 43.331 23.999 82.995 47.997 118.993c23.999 35.998 51.83 67.829 83.495 95.494c31.665 27.665 64.663 52.33 98.994 73.995c34.331 21.666 66.163 43.164 95.494 64.496
c67.996 47.998 103.994 95.661 107.994 142.992c1.33295 13.332 2 25.332 2 35.998s-0.5 22.998 -1.5 36.997c-1 13.999 -3.5 30.998 -7.5 50.997c-4.66602 19.999 -16.999 63.663 -36.998 130.992h166.99c36.665 -43.3311 63.33 -106.993 79.9951 -190.988
c6 -31.332 9 -62.83 9 -94.494c0 -31.665 -9.16602 -61.663 -27.499 -89.995c-18.332 -28.332 -42.497 -55.163 -72.495 -80.495c-29.998 -25.332 -62.83 -49.164 -98.494 -71.496c-35.665 -22.332 -69.829 -45.164 -102.494 -68.495
c-75.995 -53.997 -118.326 -104.994 -126.992 -152.991c-9.33301 -37.998 -13.999 -71.329 -13.999 -99.994c0 -143.991 72.329 -238.652 216.987 -283.983zM720.021 1456c8.66602 -18.665 12.999 -38.9971 12.999 -60.996c0 -21.999 -4.33301 -42.998 -12.999 -62.9961
c-8.66602 -19.999 -20.665 -37.6649 -35.998 -52.9969c-31.998 -33.3311 -63.996 -49.9971 -95.994 -49.9971s-56.83 4 -74.495 11.999c-17.666 8 -32.498 18.666 -44.498 31.998c-25.331 27.999 -37.997 58.33 -37.997 90.995c0 32.6639 4.16599 59.163 12.499 79.495
s19.832 38.1639 34.498 53.4969c31.331 32.6641 68.662 48.9971 111.993 48.9971c59.33 0 102.66 -29.999 129.992 -89.995z" />
    <glyph glyph-name="Latin_Capital_Letter_A_with_grave" unicode="&#xc0;" horiz-adv-x="1407" 
d="M623 1538h215l568 -1538h-241l-130 385h-622l-136 -385h-236zM979 551l-204 609l-43 142l-44 -142l-216 -609h507zM759 1573c-66.667 22 -160.333 79 -281 171c-54 41.333 -92.667 75.667 -116 103l146 133c3.33301 -10.667 52.5 -57.833 147.5 -141.5
s151 -133.333 168 -149s26.167 -23.833 27.5 -24.5z" />
    <glyph glyph-name="Latin_Capital_Letter_A_with_acute" unicode="&#xc1;" horiz-adv-x="1407" 
d="M623 1538h215l568 -1538h-241l-130 385h-622l-136 -385h-236zM979 551l-204 609l-43 142l-44 -142l-216 -609h507zM594 1665c1.33301 0.666992 10.5 8.83301 27.5 24.5s38.167 34.667 63.5 57s52.5 46.667 81.5 73s56.167 51.167 81.5 74.5c58 53.333 87.667 82 89 86
l146 -133c-79.333 -82 -179 -157.667 -299 -227c-36 -21.333 -68.333 -37 -97 -47z" />
    <glyph glyph-name="Latin_Capital_Letter_A_with_circumflex" unicode="&#xc2;" horiz-adv-x="1407" 
d="M623 1538h215l568 -1538h-241l-130 385h-622l-136 -385h-236zM979 551l-204 609l-43 142l-44 -142l-216 -609h507zM364 1689l259 301h197l262 -298l-144 -60l-216 202l-221 -202z" />
    <glyph glyph-name="Latin_Capital_Letter_A_with_tilde" unicode="&#xc3;" horiz-adv-x="1407" 
d="M623 1538h215l568 -1538h-241l-130 385h-622l-136 -385h-236zM979 551l-204 609l-43 142l-44 -142l-216 -609h507zM566 1805c-56.667 0 -115 -34 -175 -102l-85 68c23.333 56 63 102.667 119 140c54 36.667 104.5 55 151.5 55s83.333 -7.16699 109 -21.5
s48.667 -30.333 69 -48s39.833 -33.667 58.5 -48s40.667 -21.5 66 -21.5c58.667 0 117 33 175 99l86 -71c-23.333 -56 -63 -102.333 -119 -139c-54.667 -36.667 -108.667 -55 -162 -55c-45.333 0 -81.167 8.83301 -107.5 26.5s-46.167 32.833 -59.5 45.5
s-26.333 24.333 -39 35c-29.333 24.667 -58.333 37 -87 37z" />
    <glyph glyph-name="Latin_Capital_Letter_A_with_diaeresis" unicode="&#xc4;" horiz-adv-x="1407" 
d="M623 1538h215l568 -1538h-241l-130 385h-622l-136 -385h-236zM979 551l-204 609l-43 142l-44 -142l-216 -609h507zM1070.5 1709.5c0 0 -3.75 -3.41699 -11.25 -10.25s-20.917 -13.917 -40.25 -21.25s-38.833 -11 -58.5 -11s-37.833 3 -54.5 9s-31.333 14.667 -44 26
c-26.667 26 -40 54.333 -40 85s4.5 55.5 13.5 74.5s21.167 35.167 36.5 48.5c32 30 64 45 96 45s56.667 -3.5 74 -10.5s31.667 -16.5 43 -28.5c22.667 -24 34 -51.667 34 -83s-4.33301 -56.333 -13 -75s-20.5 -34.833 -35.5 -48.5zM574.5 1709.5
c0 0 -3.75 -3.41699 -11.25 -10.25s-20.917 -13.917 -40.25 -21.25s-38.833 -11 -58.5 -11s-37.833 3 -54.5 9s-31.333 14.667 -44 26c-26.667 26 -40 54.333 -40 85s4.5 55.5 13.5 74.5s21.167 35.167 36.5 48.5c32 30 64 45 96 45s56.667 -3.5 74 -10.5
s31.667 -16.5 43 -28.5c22.667 -24 34 -51.667 34 -83s-4.33301 -56.333 -13 -75s-20.5 -34.833 -35.5 -48.5z" />
    <glyph glyph-name="Latin_Capital_Letter_A_with_ring_above" unicode="&#xc5;" horiz-adv-x="1407" 
d="M591 1453c-60 18 -106.667 48.5 -140 91.5s-50 95.167 -50 156.5c0 91.333 34.333 161 103 209c56.667 40 129 60 217 60c153.333 0 253 -50 299 -150c14.667 -32.667 21.667 -76.333 21 -131s-17.167 -102.167 -49.5 -142.5s-73.833 -69.5 -124.5 -87.5l539 -1459h-241
l-130 385h-622l-136 -385h-236zM719 1561c112.667 0 169 48.333 169 145c0 67.333 -34 111 -102 131c-20.667 6 -42 9 -64 9s-42.667 -2 -62 -6s-36.667 -11.333 -52 -22c-34 -23.333 -51 -58.667 -51 -106s14.5 -84 43.5 -110s68.5 -39.667 118.5 -41zM979 551l-204 609
l-43 142l-44 -142l-216 -609h507z" />
    <glyph glyph-name="Latin_Capital_Letter_" unicode="&#xc6;" horiz-adv-x="1860" 
d="M672 1522h1061v-172h-653v-480h479v-172h-479v-523h726v-175h-949v385h-481l-183 -385h-246zM857 551v825h-10l-392 -825h402z" />
    <glyph glyph-name="Latin_Capital_Letter_C_with_cedilla" unicode="&#xc7;" horiz-adv-x="1313" 
d="M536 -294c15.333 -9.33301 42.667 -14 82 -14c88 0 132 73 132 219c0 28.667 -3.33301 54.333 -10 77c-190.667 18.667 -342.667 96.667 -456 234c-112.667 138 -169 315 -169 531c0 242.667 70.667 436.333 212 581c64.667 66.667 139.5 117.333 224.5 152
s165.333 52 241 52s135.333 -2.33301 179 -7s81.5 -10.167 113.5 -16.5s58.833 -12.667 80.5 -19s39.167 -11.167 52.5 -14.5l-32 -198c-90.667 49.333 -208 74 -352 74c-153.333 0 -274.667 -53 -364 -159s-134 -249.333 -134 -430s44 -326.667 132 -438
c90.667 -113.333 212.333 -170 365 -170c118 0 223 19.333 315 58c26 11.333 45.667 23 59 35l1 -189c-85.333 -34 -151.667 -55 -199 -63s-90.333 -13 -129 -15c20 -43.333 30 -98 30 -164c0 -148.667 -52.667 -239.667 -158 -273c-27.333 -8.66699 -51.5 -13 -72.5 -13
s-39 0.666992 -54 2s-29.167 3.33301 -42.5 6c-30.667 6 -51.333 12.667 -62 20z" />
    <glyph glyph-name="Latin_Capital_Letter_E_with_grave" unicode="&#xc8;" 
d="M737 1573c-66.667 22 -160.333 79 -281 171c-54 41.333 -92.667 75.667 -116 103l146 133c3.33301 -10.667 52.5 -57.833 147.5 -141.5s151 -133.333 168 -149s26.167 -23.833 27.5 -24.5zM214 1522h876v-172h-653v-480h479v-172h-479v-523h726v-175h-949v1522z" />
    <glyph glyph-name="Latin_Capital_Letter_E_with_acute" unicode="&#xc9;" 
d="M572 1665c1.33301 0.666992 10.5 8.83301 27.5 24.5s38.167 34.667 63.5 57s52.5 46.667 81.5 73s56.167 51.167 81.5 74.5c58 53.333 87.667 82 89 86l146 -133c-79.333 -82 -179 -157.667 -299 -227c-36 -21.333 -68.333 -37 -97 -47zM214 1522h876v-172h-653v-480h479
v-172h-479v-523h726v-175h-949v1522z" />
    <glyph glyph-name="Latin_Capital_Letter_E_with_circumflex" unicode="&#xca;" 
d="M214 1522h876v-172h-653v-480h479v-172h-479v-523h726v-175h-949v1522zM342 1689l259 301h197l262 -298l-144 -60l-216 202l-221 -202z" />
    <glyph glyph-name="Latin_Capital_Letter_E_with_diaeresis" unicode="&#xcb;" 
d="M1048.5 1709.5c0 0 -3.75 -3.41699 -11.25 -10.25s-20.917 -13.917 -40.25 -21.25s-38.833 -11 -58.5 -11s-37.833 3 -54.5 9s-31.333 14.667 -44 26c-26.667 26 -40 54.333 -40 85s4.5 55.5 13.5 74.5s21.167 35.167 36.5 48.5c32 30 64 45 96 45s56.667 -3.5 74 -10.5
s31.667 -16.5 43 -28.5c22.667 -24 34 -51.667 34 -83s-4.33301 -56.333 -13 -75s-20.5 -34.833 -35.5 -48.5zM552.5 1709.5c0 0 -3.75 -3.41699 -11.25 -10.25s-20.917 -13.917 -40.25 -21.25s-38.833 -11 -58.5 -11s-37.833 3 -54.5 9s-31.333 14.667 -44 26
c-26.667 26 -40 54.333 -40 85s4.5 55.5 13.5 74.5s21.167 35.167 36.5 48.5c32 30 64 45 96 45s56.667 -3.5 74 -10.5s31.667 -16.5 43 -28.5c22.667 -24 34 -51.667 34 -83s-4.33301 -56.333 -13 -75s-20.5 -34.833 -35.5 -48.5zM214 1522h876v-172h-653v-480h479v-172
h-479v-523h726v-175h-949v1522z" />
    <glyph glyph-name="Latin_Capital_Letter_I_with_grave" unicode="&#xcc;" horiz-adv-x="640" 
d="M227 1522h226v-1522h-226v1522zM379 1573c-66.667 22 -160.333 79 -281 171c-54 41.333 -92.667 75.667 -116 103l146 133c3.33299 -10.667 52.5 -57.833 147.5 -141.5s151 -133.333 168 -149s26.167 -23.833 27.5 -24.5z" />
    <glyph glyph-name="Latin_Capital_Letter_I_with_acute" unicode="&#xcd;" horiz-adv-x="640" 
d="M227 1522h226v-1522h-226v1522zM213 1665c1.33299 0.666992 10.5 8.83301 27.5 24.5s38.167 34.667 63.5 57s52.5 46.667 81.5 73s56.167 51.167 81.5 74.5c58 53.333 87.667 82 89 86l146 -133c-79.333 -82 -179 -157.667 -299 -227c-36 -21.333 -68.333 -37 -97 -47z
" />
    <glyph glyph-name="Latin_Capital_Letter_I_with_circumflex" unicode="&#xce;" horiz-adv-x="640" 
d="M227 1522h226v-1522h-226v1522zM-16 1689l259 301h197l262 -298l-144 -60l-216 202l-221 -202z" />
    <glyph glyph-name="Latin_Capital_Letter_I_with_diaeresis" unicode="&#xcf;" horiz-adv-x="640" 
d="M227 1522h226v-1522h-226v1522zM690.5 1709.5c0 0 -3.75 -3.41699 -11.25 -10.25s-20.917 -13.917 -40.25 -21.25s-38.833 -11 -58.5 -11s-37.833 3 -54.5 9s-31.333 14.667 -44 26c-26.667 26 -40 54.333 -40 85s4.5 55.5 13.5 74.5s21.167 35.167 36.5 48.5
c32 30 64 45 96 45s56.667 -3.5 74 -10.5s31.667 -16.5 43 -28.5c22.667 -24 34 -51.667 34 -83s-4.33301 -56.333 -13 -75s-20.5 -34.833 -35.5 -48.5zM194.5 1709.5c0 0 -3.75 -3.41699 -11.25 -10.25s-20.917 -13.917 -40.25 -21.25
c-19.333 -7.33301 -38.833 -11 -58.5 -11s-37.833 3 -54.5 9s-31.333 14.667 -44 26c-26.667 26 -40 54.333 -40 85s4.5 55.5 13.5 74.5s21.167 35.167 36.5 48.5c32 30 64 45 96 45s56.667 -3.5 74 -10.5s31.667 -16.5 43 -28.5c22.667 -24 34 -51.667 34 -83
s-4.33299 -56.333 -13 -75s-20.5 -34.833 -35.5 -48.5z" />
    <glyph glyph-name="Latin_Capital_Letter_Eth" unicode="&#xd0;" horiz-adv-x="1472" 
d="M680 -16l-381 16h-85v720h-128v149h128v653h112l360 16c240.667 0 422 -64.667 544 -194c118.667 -124.667 178 -304.667 178 -540c0 -258.667 -66.667 -461.333 -200 -608c-129.333 -141.333 -305.333 -212 -528 -212zM1039 1242.5c0 0 -11.333 11.917 -34 35.75
s-67.833 46.25 -135.5 67.25s-144 31.5 -229 31.5s-152.5 -5.33301 -202.5 -16v-492h394v-149h-394v-552c52.667 -12.667 139 -19 259 -19c228 4.66701 375.667 118.333 443 341c24 78 36 172.5 36 283.5s-11.5 205 -34.5 282s-57.167 139.333 -102.5 187z" />
    <glyph glyph-name="Latin_Capital_Letter_N_with_tilde" unicode="&#xd1;" horiz-adv-x="1556" 
d="M656 1805c-56.667 0 -115 -34 -175 -102l-85 68c23.333 56 63 102.667 119 140c54 36.667 104.5 55 151.5 55s83.333 -7.16699 109 -21.5s48.667 -30.333 69 -48s39.833 -33.667 58.5 -48s40.667 -21.5 66 -21.5c58.667 0 117 33 175 99l86 -71
c-23.333 -56 -63 -102.333 -119 -139c-54.667 -36.667 -108.667 -55 -162 -55c-45.333 0 -81.167 8.83301 -107.5 26.5s-46.167 32.833 -59.5 45.5s-26.333 24.333 -39 35c-29.333 24.667 -58.333 37 -87 37zM213 1522h204l651 -1005l123 -226l-13 254v977h205v-1522h-207
l-630 967l-140 249l12 -264v-952h-205v1522z" />
    <glyph glyph-name="Latin_Capital_Letter_O_with_grave" unicode="&#xd2;" horiz-adv-x="1569" 
d="M865 1573c-66.667 22 -160.333 79 -281 171c-54 41.333 -92.667 75.667 -116 103l146 133c3.33301 -10.667 52.5 -57.833 147.5 -141.5s151 -133.333 168 -149s26.167 -23.833 27.5 -24.5zM120 751c0 133.333 19.5 249.667 58.5 349s90.5 181 154.5 245
c128.667 128.667 293.667 193 495 193c202.667 0 364.333 -70.667 485 -212c117.333 -136.667 176 -317.667 176 -543c0 -255.333 -65.833 -452.333 -197.5 -591s-299.833 -208 -504.5 -208s-367 71.5 -487 214.5s-180 327.167 -180 552.5zM819 155
c60 0 118.167 13.333 174.5 40s104.5 66 144.5 118c83.333 108.667 125 261.667 125 459c0 169.333 -37 308.667 -111 418c-81.333 118.667 -191.667 178 -331 178c-137.333 0 -249 -49.333 -335 -148c-94 -109.333 -141 -263.333 -141 -462
c0 -168.667 38.667 -308.667 116 -420c84.667 -122 204 -183 358 -183z" />
    <glyph glyph-name="Latin_Capital_Letter_O_with_acute" unicode="&#xd3;" horiz-adv-x="1569" 
d="M700 1665c1.33301 0.666992 10.5 8.83301 27.5 24.5s38.167 34.667 63.5 57s52.5 46.667 81.5 73s56.167 51.167 81.5 74.5c58 53.333 87.667 82 89 86l146 -133c-79.333 -82 -179 -157.667 -299 -227c-36 -21.333 -68.333 -37 -97 -47zM120 751
c0 133.333 19.5 249.667 58.5 349s90.5 181 154.5 245c128.667 128.667 293.667 193 495 193c202.667 0 364.333 -70.667 485 -212c117.333 -136.667 176 -317.667 176 -543c0 -255.333 -65.833 -452.333 -197.5 -591s-299.833 -208 -504.5 -208s-367 71.5 -487 214.5
s-180 327.167 -180 552.5zM819 155c60 0 118.167 13.333 174.5 40s104.5 66 144.5 118c83.333 108.667 125 261.667 125 459c0 169.333 -37 308.667 -111 418c-81.333 118.667 -191.667 178 -331 178c-137.333 0 -249 -49.333 -335 -148
c-94 -109.333 -141 -263.333 -141 -462c0 -168.667 38.667 -308.667 116 -420c84.667 -122 204 -183 358 -183z" />
    <glyph glyph-name="Latin_Capital_Letter_O_with_circumflex" unicode="&#xd4;" horiz-adv-x="1569" 
d="M120 751c0 133.333 19.5 249.667 58.5 349s90.5 181 154.5 245c128.667 128.667 293.667 193 495 193c202.667 0 364.333 -70.667 485 -212c117.333 -136.667 176 -317.667 176 -543c0 -255.333 -65.833 -452.333 -197.5 -591s-299.833 -208 -504.5 -208
s-367 71.5 -487 214.5s-180 327.167 -180 552.5zM819 155c60 0 118.167 13.333 174.5 40s104.5 66 144.5 118c83.333 108.667 125 261.667 125 459c0 169.333 -37 308.667 -111 418c-81.333 118.667 -191.667 178 -331 178c-137.333 0 -249 -49.333 -335 -148
c-94 -109.333 -141 -263.333 -141 -462c0 -168.667 38.667 -308.667 116 -420c84.667 -122 204 -183 358 -183zM470 1689l259 301h197l262 -298l-144 -60l-216 202l-221 -202z" />
    <glyph glyph-name="Latin_Capital_Letter_O_with_tilde" unicode="&#xd5;" horiz-adv-x="1569" 
d="M672 1805c-56.667 0 -115 -34 -175 -102l-85 68c23.333 56 63 102.667 119 140c54 36.667 104.5 55 151.5 55s83.333 -7.16699 109 -21.5s48.667 -30.333 69 -48s39.833 -33.667 58.5 -48s40.667 -21.5 66 -21.5c58.667 0 117 33 175 99l86 -71
c-23.333 -56 -63 -102.333 -119 -139c-54.667 -36.667 -108.667 -55 -162 -55c-45.333 0 -81.167 8.83301 -107.5 26.5s-46.167 32.833 -59.5 45.5s-26.333 24.333 -39 35c-29.333 24.667 -58.333 37 -87 37zM120 751c0 133.333 19.5 249.667 58.5 349s90.5 181 154.5 245
c128.667 128.667 293.667 193 495 193c202.667 0 364.333 -70.667 485 -212c117.333 -136.667 176 -317.667 176 -543c0 -255.333 -65.833 -452.333 -197.5 -591s-299.833 -208 -504.5 -208s-367 71.5 -487 214.5s-180 327.167 -180 552.5zM819 155
c60 0 118.167 13.333 174.5 40s104.5 66 144.5 118c83.333 108.667 125 261.667 125 459c0 169.333 -37 308.667 -111 418c-81.333 118.667 -191.667 178 -331 178c-137.333 0 -249 -49.333 -335 -148c-94 -109.333 -141 -263.333 -141 -462
c0 -168.667 38.667 -308.667 116 -420c84.667 -122 204 -183 358 -183z" />
    <glyph glyph-name="Latin_Capital_Letter_O_with_diaeresis" unicode="&#xd6;" horiz-adv-x="1569" 
d="M1176.5 1709.5c0 0 -3.75 -3.41699 -11.25 -10.25s-20.917 -13.917 -40.25 -21.25s-38.833 -11 -58.5 -11s-37.833 3 -54.5 9s-31.333 14.667 -44 26c-26.667 26 -40 54.333 -40 85s4.5 55.5 13.5 74.5s21.167 35.167 36.5 48.5c32 30 64 45 96 45s56.667 -3.5 74 -10.5
s31.667 -16.5 43 -28.5c22.667 -24 34 -51.667 34 -83s-4.33301 -56.333 -13 -75s-20.5 -34.833 -35.5 -48.5zM680.5 1709.5c0 0 -3.75 -3.41699 -11.25 -10.25s-20.917 -13.917 -40.25 -21.25s-38.833 -11 -58.5 -11s-37.833 3 -54.5 9s-31.333 14.667 -44 26
c-26.667 26 -40 54.333 -40 85s4.5 55.5 13.5 74.5s21.167 35.167 36.5 48.5c32 30 64 45 96 45s56.667 -3.5 74 -10.5s31.667 -16.5 43 -28.5c22.667 -24 34 -51.667 34 -83s-4.33301 -56.333 -13 -75s-20.5 -34.833 -35.5 -48.5zM120 751c0 133.333 19.5 249.667 58.5 349
s90.5 181 154.5 245c128.667 128.667 293.667 193 495 193c202.667 0 364.333 -70.667 485 -212c117.333 -136.667 176 -317.667 176 -543c0 -255.333 -65.833 -452.333 -197.5 -591s-299.833 -208 -504.5 -208s-367 71.5 -487 214.5s-180 327.167 -180 552.5zM819 155
c60 0 118.167 13.333 174.5 40s104.5 66 144.5 118c83.333 108.667 125 261.667 125 459c0 169.333 -37 308.667 -111 418c-81.333 118.667 -191.667 178 -331 178c-137.333 0 -249 -49.333 -335 -148c-94 -109.333 -141 -263.333 -141 -462
c0 -168.667 38.667 -308.667 116 -420c84.667 -122 204 -183 358 -183z" />
    <glyph glyph-name="Multiplication_sign" unicode="&#xd7;" horiz-adv-x="1370" 
d="M254 439l338 335l-338 345l130 128l322 -354l322 354l130 -128l-338 -342l338 -338l-130 -128l-322 343l-322 -343z" />
    <glyph glyph-name="Latin_Capital_Letter_O_with_stroke" unicode="&#xd8;" horiz-adv-x="1569" 
d="M333 1345l48 48s90.333 64.167 175 96.5s166.667 48.5 246 48.5s147 -7.33301 203 -22l80 222l125 -36l-83 -231c178 -89.333 291.333 -246.333 340 -471c14.667 -68 22 -123.333 22 -166c0 -168 -18.5 -301.833 -55.5 -401.5s-86.167 -181.833 -147.5 -246.5
c-128 -134.667 -295.667 -202 -503 -202c-66 0 -127 8 -183 24l-75 -208l-125 36l79 219c-176.667 93.333 -289.667 254.333 -339 483c-13.333 65.333 -20 118.333 -20 159c0 169.333 19.5 303.667 58.5 403s90.5 181 154.5 245zM945 1349
c-40.667 12.667 -87.5 19 -140.5 19s-108.333 -12.167 -166 -36.5s-108.5 -61.5 -152.5 -111.5c-94 -109.333 -141 -263.333 -141 -462c0 -166 38 -305 114 -417c25.333 -37.333 54.667 -69.667 88 -97zM661 179c44 -16 96.333 -24 157 -24s119.167 13.333 175.5 40
s104.5 66 144.5 118c83.333 108.667 125 261.667 125 459c0 170 -38 310.667 -114 422c-25.333 36.667 -54.667 68 -88 94z" />
    <glyph glyph-name="Latin_Capital_Letter_U_with_grave" unicode="&#xd9;" horiz-adv-x="1463" 
d="M802 1573c-66.667 22 -160.333 79 -281 171c-54 41.333 -92.667 75.667 -116 103l146 133c3.33301 -10.667 52.5 -57.833 147.5 -141.5s151 -133.333 168 -149s26.167 -23.833 27.5 -24.5zM179 1522h223l-1 -836c0 -200 32 -340.667 96 -422
c56 -70.667 146.333 -106 271 -106c111.333 0 192.667 35.667 244 107c60.667 83.333 91 223.667 91 421v836h222v-892c0 -318 -105 -519.333 -315 -604c-70.667 -28 -156 -42 -256 -42s-186.833 14.5 -260.5 43.5s-133.833 71.167 -180.5 126.5
c-89.333 106 -134 265.667 -134 479v889z" />
    <glyph glyph-name="Latin_Capital_Letter_U_with_acute" unicode="&#xda;" horiz-adv-x="1463" 
d="M637 1665c1.33301 0.666992 10.5 8.83301 27.5 24.5s38.167 34.667 63.5 57s52.5 46.667 81.5 73s56.167 51.167 81.5 74.5c58 53.333 87.667 82 89 86l146 -133c-79.333 -82 -179 -157.667 -299 -227c-36 -21.333 -68.333 -37 -97 -47zM179 1522h223l-1 -836
c0 -200 32 -340.667 96 -422c56 -70.667 146.333 -106 271 -106c111.333 0 192.667 35.667 244 107c60.667 83.333 91 223.667 91 421v836h222v-892c0 -318 -105 -519.333 -315 -604c-70.667 -28 -156 -42 -256 -42s-186.833 14.5 -260.5 43.5s-133.833 71.167 -180.5 126.5
c-89.333 106 -134 265.667 -134 479v889z" />
    <glyph glyph-name="Latin_Capital_Letter_U_with_circumflex" unicode="&#xdb;" horiz-adv-x="1463" 
d="M179 1522h223l-1 -836c0 -200 32 -340.667 96 -422c56 -70.667 146.333 -106 271 -106c111.333 0 192.667 35.667 244 107c60.667 83.333 91 223.667 91 421v836h222v-892c0 -318 -105 -519.333 -315 -604c-70.667 -28 -156 -42 -256 -42s-186.833 14.5 -260.5 43.5
s-133.833 71.167 -180.5 126.5c-89.333 106 -134 265.667 -134 479v889zM407 1689l259 301h197l262 -298l-144 -60l-216 202l-221 -202z" />
    <glyph glyph-name="Latin_Capital_Letter_U_with_diaeresis" unicode="&#xdc;" horiz-adv-x="1463" 
d="M1113.5 1709.5c0 0 -3.75 -3.41699 -11.25 -10.25s-20.917 -13.917 -40.25 -21.25s-38.833 -11 -58.5 -11s-37.833 3 -54.5 9s-31.333 14.667 -44 26c-26.667 26 -40 54.333 -40 85s4.5 55.5 13.5 74.5s21.167 35.167 36.5 48.5c32 30 64 45 96 45s56.667 -3.5 74 -10.5
s31.667 -16.5 43 -28.5c22.667 -24 34 -51.667 34 -83s-4.33301 -56.333 -13 -75s-20.5 -34.833 -35.5 -48.5zM617.5 1709.5c0 0 -3.75 -3.41699 -11.25 -10.25s-20.917 -13.917 -40.25 -21.25s-38.833 -11 -58.5 -11s-37.833 3 -54.5 9s-31.333 14.667 -44 26
c-26.667 26 -40 54.333 -40 85s4.5 55.5 13.5 74.5s21.167 35.167 36.5 48.5c32 30 64 45 96 45s56.667 -3.5 74 -10.5s31.667 -16.5 43 -28.5c22.667 -24 34 -51.667 34 -83s-4.33301 -56.333 -13 -75s-20.5 -34.833 -35.5 -48.5zM179 1522h223l-1 -836
c0 -200 32 -340.667 96 -422c56 -70.667 146.333 -106 271 -106c111.333 0 192.667 35.667 244 107c60.667 83.333 91 223.667 91 421v836h222v-892c0 -318 -105 -519.333 -315 -604c-70.667 -28 -156 -42 -256 -42s-186.833 14.5 -260.5 43.5s-133.833 71.167 -180.5 126.5
c-89.333 106 -134 265.667 -134 479v889z" />
    <glyph glyph-name="Latin_Capital_Letter_Y_with_acute" unicode="&#xdd;" horiz-adv-x="1264" 
d="M543 593l-501 929h238l338 -660l43 -105l36 105l331 660h234l-493 -929v-593h-226v593zM542 1665c1.33301 0.666992 10.5 8.83301 27.5 24.5s38.167 34.667 63.5 57s52.5 46.667 81.5 73s56.167 51.167 81.5 74.5c58 53.333 87.667 82 89 86l146 -133
c-79.333 -82 -179 -157.667 -299 -227c-36 -21.333 -68.333 -37 -97 -47z" />
    <glyph glyph-name="Latin_Capital_Letter_Thorn" unicode="&#xde;" horiz-adv-x="1262" 
d="M1054 418c-49.333 -43.333 -110.167 -76.333 -182.5 -99s-146 -34 -221 -34s-146.167 2.33301 -213.5 7v-292h-223v1522h223v-275c106 8 183.667 12 233 12c354.667 0 532 -155.333 532 -466c0 -161.333 -49.333 -286.333 -148 -375zM624 1099
c-69.333 0 -131.667 -5.66699 -187 -17v-627c40 -5.33301 89.5 -8 148.5 -8s111.5 4.16699 157.5 12.5s86.333 24.833 121 49.5c77.333 54 116 142 116 264s-30.5 206.833 -91.5 254.5s-149.167 71.5 -264.5 71.5z" />
    <glyph glyph-name="Latin_Small_Letter_sharp_S" unicode="&#xdf;" horiz-adv-x="1268" 
d="M899 1275c0 98.667 -65.667 148 -197 148c-90.667 0 -159.333 -33.667 -206 -101c-54.667 -76.667 -82 -201.333 -82 -374v-948h-220v974h-138v129l153 39c28.667 148 92 259 190 333c91.333 69.333 204.667 104 340 104c109.333 0 198.333 -23.667 267 -71
c74 -50.667 111 -119 111 -205s-37.333 -167.667 -112 -245c-47.333 -48.667 -77.833 -85.333 -91.5 -110s-20.5 -49.167 -20.5 -73.5s5.16699 -46.833 15.5 -67.5s24 -40.167 41 -58.5s36.333 -36 58 -53s44 -34.667 67 -53s45.333 -38.167 67 -59.5s41.167 -45 58.5 -71
c37.333 -57.333 56 -120 56 -188s-11.5 -123 -34.5 -165s-53.5 -76 -91.5 -102c-70 -48.667 -157.333 -73 -262 -73s-184.667 11 -240 33v173c60.667 -34.667 140.333 -52 239 -52c74.667 0 125 26.333 151 79c10 19.333 14.833 45.333 14.5 78s-9 62.833 -26 90.5
s-38.167 53.5 -63.5 77.5s-52.833 47.833 -82.5 71.5s-57.167 50.167 -82.5 79.5c-58.667 69.333 -88 148.333 -88 237c0 68.667 34.833 141 104.5 217s104.5 145 104.5 207z" />
    <glyph glyph-name="Latin_Small_Letter_A_with_grave" unicode="&#xe0;" horiz-adv-x="1131" 
d="M212.5 69.5c0 0 -7.75 6.917 -23.25 20.75s-31.917 40.583 -49.25 80.25c-17.333 39.667 -26 90.5 -26 152.5s20 119 60 171c84 109.333 248 172.667 492 190c37.333 2.66699 72 4 104 4v115c0 76.667 -20 128.333 -60 155c-33.333 22 -94.333 33 -183 33
c-76.667 0 -161 -18.333 -253 -55c-24 -9.33301 -42.333 -18.667 -55 -28l-54 144c57.333 36 152.333 66.667 285 92c45.333 8.66699 94.167 13 146.5 13s103.333 -4.83301 153 -14.5s92.5 -27.833 128.5 -54.5c74.667 -56 112 -154 112 -294v-810h-90
c-42.667 0 -70.333 4 -83 12c-22.667 15.333 -34 46 -34 92v8c-54.667 -50 -128.333 -84 -221 -102c-32 -6.667 -69.167 -10 -111.5 -10s-84.833 7.333 -127.5 22s-79.5 35.833 -110.5 63.5zM331 324c0 -117.333 65.667 -176 197 -176c72.667 0 142 19 208 57
c16.667 9.33299 28 17.333 34 24v319c-78 0 -144.333 -6.66699 -199 -20s-91.833 -24.667 -111.5 -34s-37.167 -19.167 -52.5 -29.5s-28.667 -22.5 -40 -36.5c-24 -28.667 -36 -63.333 -36 -104zM358 1783c62.667 -80 175.333 -213 338 -399l-111 -90
c-39.333 17.333 -105.167 68.333 -197.5 153s-154.5 151.667 -186.5 201z" />
    <glyph glyph-name="Latin_Small_Letter_A_with_acute" unicode="&#xe1;" horiz-adv-x="1131" 
d="M212.5 69.5c0 0 -7.75 6.917 -23.25 20.75s-31.917 40.583 -49.25 80.25c-17.333 39.667 -26 90.5 -26 152.5s20 119 60 171c84 109.333 248 172.667 492 190c37.333 2.66699 72 4 104 4v115c0 76.667 -20 128.333 -60 155c-33.333 22 -94.333 33 -183 33
c-76.667 0 -161 -18.333 -253 -55c-24 -9.33301 -42.333 -18.667 -55 -28l-54 144c57.333 36 152.333 66.667 285 92c45.333 8.66699 94.167 13 146.5 13s103.333 -4.83301 153 -14.5s92.5 -27.833 128.5 -54.5c74.667 -56 112 -154 112 -294v-810h-90
c-42.667 0 -70.333 4 -83 12c-22.667 15.333 -34 46 -34 92v8c-54.667 -50 -128.333 -84 -221 -102c-32 -6.667 -69.167 -10 -111.5 -10s-84.833 7.333 -127.5 22s-79.5 35.833 -110.5 63.5zM331 324c0 -117.333 65.667 -176 197 -176c72.667 0 142 19 208 57
c16.667 9.33299 28 17.333 34 24v319c-78 0 -144.333 -6.66699 -199 -20s-91.833 -24.667 -111.5 -34s-37.167 -19.167 -52.5 -29.5s-28.667 -22.5 -40 -36.5c-24 -28.667 -36 -63.333 -36 -104zM456 1384c162 177.333 274.667 310.333 338 399l156 -135
c-22.667 -40 -83.333 -106 -182 -198c-97.333 -90 -164.333 -142 -201 -156z" />
    <glyph glyph-name="Latin_Small_Letter_A_with_circumflex" unicode="&#xe2;" horiz-adv-x="1131" 
d="M212.5 69.5c0 0 -7.75 6.917 -23.25 20.75s-31.917 40.583 -49.25 80.25c-17.333 39.667 -26 90.5 -26 152.5s20 119 60 171c84 109.333 248 172.667 492 190c37.333 2.66699 72 4 104 4v115c0 76.667 -20 128.333 -60 155c-33.333 22 -94.333 33 -183 33
c-76.667 0 -161 -18.333 -253 -55c-24 -9.33301 -42.333 -18.667 -55 -28l-54 144c57.333 36 152.333 66.667 285 92c45.333 8.66699 94.167 13 146.5 13s103.333 -4.83301 153 -14.5s92.5 -27.833 128.5 -54.5c74.667 -56 112 -154 112 -294v-810h-90
c-42.667 0 -70.333 4 -83 12c-22.667 15.333 -34 46 -34 92v8c-54.667 -50 -128.333 -84 -221 -102c-32 -6.667 -69.167 -10 -111.5 -10s-84.833 7.333 -127.5 22s-79.5 35.833 -110.5 63.5zM331 324c0 -117.333 65.667 -176 197 -176c72.667 0 142 19 208 57
c16.667 9.33299 28 17.333 34 24v319c-78 0 -144.333 -6.66699 -199 -20s-91.833 -24.667 -111.5 -34s-37.167 -19.167 -52.5 -29.5s-28.667 -22.5 -40 -36.5c-24 -28.667 -36 -63.333 -36 -104zM212 1349l276 333h198l268 -332l-135 -56l-232 222l-249 -223z" />
    <glyph glyph-name="Latin_Small_Letter_A_with_tilde" unicode="&#xe3;" horiz-adv-x="1131" 
d="M212.5 69.5c0 0 -7.75 6.917 -23.25 20.75s-31.917 40.583 -49.25 80.25c-17.333 39.667 -26 90.5 -26 152.5s20 119 60 171c84 109.333 248 172.667 492 190c37.333 2.66699 72 4 104 4v115c0 76.667 -20 128.333 -60 155c-33.333 22 -94.333 33 -183 33
c-76.667 0 -161 -18.333 -253 -55c-24 -9.33301 -42.333 -18.667 -55 -28l-54 144c57.333 36 152.333 66.667 285 92c45.333 8.66699 94.167 13 146.5 13s103.333 -4.83301 153 -14.5s92.5 -27.833 128.5 -54.5c74.667 -56 112 -154 112 -294v-810h-90
c-42.667 0 -70.333 4 -83 12c-22.667 15.333 -34 46 -34 92v8c-54.667 -50 -128.333 -84 -221 -102c-32 -6.667 -69.167 -10 -111.5 -10s-84.833 7.333 -127.5 22s-79.5 35.833 -110.5 63.5zM331 324c0 -117.333 65.667 -176 197 -176c72.667 0 142 19 208 57
c16.667 9.33299 28 17.333 34 24v319c-78 0 -144.333 -6.66699 -199 -20s-91.833 -24.667 -111.5 -34s-37.167 -19.167 -52.5 -29.5s-28.667 -22.5 -40 -36.5c-24 -28.667 -36 -63.333 -36 -104zM435 1482c-61.333 0 -122.333 -32.333 -183 -97l-85 68
c39.333 86 100.333 145.667 183 179c28 10.667 56.167 16 84.5 16s52.667 -3.33301 73 -10s38.5 -15.167 54.5 -25.5s30.667 -21.333 44 -33s26.667 -22.833 40 -33.5c29.333 -23.333 58 -35 86 -35c64.667 0 125.667 32.667 183 98l86 -72
c-42 -89.333 -103 -148.667 -183 -178c-27.333 -10 -55.833 -15 -85.5 -15s-54.833 3.33301 -75.5 10s-39.167 15.167 -55.5 25.5s-30.833 21.5 -43.5 33.5s-25.333 23 -38 33c-29.333 24 -57.667 36 -85 36z" />
    <glyph glyph-name="Latin_Small_Letter_A_with_diaeresis" unicode="&#xe4;" horiz-adv-x="1131" 
d="M212.5 69.5c0 0 -7.75 6.917 -23.25 20.75s-31.917 40.583 -49.25 80.25c-17.333 39.667 -26 90.5 -26 152.5s20 119 60 171c84 109.333 248 172.667 492 190c37.333 2.66699 72 4 104 4v115c0 76.667 -20 128.333 -60 155c-33.333 22 -94.333 33 -183 33
c-76.667 0 -161 -18.333 -253 -55c-24 -9.33301 -42.333 -18.667 -55 -28l-54 144c57.333 36 152.333 66.667 285 92c45.333 8.66699 94.167 13 146.5 13s103.333 -4.83301 153 -14.5s92.5 -27.833 128.5 -54.5c74.667 -56 112 -154 112 -294v-810h-90
c-42.667 0 -70.333 4 -83 12c-22.667 15.333 -34 46 -34 92v8c-54.667 -50 -128.333 -84 -221 -102c-32 -6.667 -69.167 -10 -111.5 -10s-84.833 7.333 -127.5 22s-79.5 35.833 -110.5 63.5zM331 324c0 -117.333 65.667 -176 197 -176c72.667 0 142 19 208 57
c16.667 9.33299 28 17.333 34 24v319c-78 0 -144.333 -6.66699 -199 -20s-91.833 -24.667 -111.5 -34s-37.167 -19.167 -52.5 -29.5s-28.667 -22.5 -40 -36.5c-24 -28.667 -36 -63.333 -36 -104zM911 1404.5l-10.5 -9.75s-19.833 -13.417 -38.5 -20.75s-37.5 -11 -56.5 -11
s-36.5 3 -52.5 9s-30 14.667 -42 26c-25.333 24.667 -38 51.833 -38 81.5s4.5 53.5 13.5 71.5s20.5 33.667 34.5 47c30.667 29.333 61.833 44 93.5 44s55.667 -3.33301 72 -10s29.833 -16 40.5 -28c20.667 -23.333 31 -50 31 -80s-4.33301 -54.167 -13 -72.5
s-20 -34 -34 -47zM453 1404.5l-10.5 -9.75s-19.833 -13.417 -38.5 -20.75s-37.5 -11 -56.5 -11s-36.5 3 -52.5 9s-30 14.667 -42 26c-25.333 24.667 -38 51.833 -38 81.5s4.5 53.5 13.5 71.5s20.833 33.667 35.5 47c31.333 29.333 62.5 44 93.5 44s54.667 -3.33301 71 -10
s29.833 -16 40.5 -28c20.667 -23.333 31 -50 31 -80s-4.33301 -54.167 -13 -72.5s-20 -34 -34 -47z" />
    <glyph glyph-name="Latin_Small_Letter_A_with_ring_above" unicode="&#xe5;" horiz-adv-x="1131" 
d="M212.5 69.5c0 0 -7.75 6.917 -23.25 20.75s-31.917 40.583 -49.25 80.25c-17.333 39.667 -26 90.5 -26 152.5s20 119 60 171c84 109.333 248 172.667 492 190c37.333 2.66699 72 4 104 4v115c0 76.667 -20 128.333 -60 155c-33.333 22 -94.333 33 -183 33
c-76.667 0 -161 -18.333 -253 -55c-24 -9.33301 -42.333 -18.667 -55 -28l-54 144c57.333 36 152.333 66.667 285 92c45.333 8.66699 94.167 13 146.5 13s103.333 -4.83301 153 -14.5s92.5 -27.833 128.5 -54.5c74.667 -56 112 -154 112 -294v-810h-90
c-42.667 0 -70.333 4 -83 12c-22.667 15.333 -34 46 -34 92v8c-54.667 -50 -128.333 -84 -221 -102c-32 -6.667 -69.167 -10 -111.5 -10s-84.833 7.333 -127.5 22s-79.5 35.833 -110.5 63.5zM331 324c0 -117.333 65.667 -176 197 -176c72.667 0 142 19 208 57
c16.667 9.33299 28 17.333 34 24v319c-78 0 -144.333 -6.66699 -199 -20s-91.833 -24.667 -111.5 -34s-37.167 -19.167 -52.5 -29.5s-28.667 -22.5 -40 -36.5c-24 -28.667 -36 -63.333 -36 -104zM808.5 1395.5c0 0 -7.41699 -5.75 -22.25 -17.25
s-41.75 -22.75 -80.75 -33.75s-81.167 -16.5 -126.5 -16.5s-87.667 6.66699 -127 20c-79.333 26.667 -134.333 74.667 -165 144c-14 33.333 -21 60.333 -21 81c0 69.333 9.66699 121.167 29 155.5s44 62.167 74 83.5c57.333 40.667 129.667 61 217 61
c153.333 0 253 -51 299 -153c14.667 -33.333 21.833 -72.667 21.5 -118s-9.33301 -85.333 -27 -120s-41.333 -63.5 -71 -86.5zM422 1594v-27s14.5 -41 43.5 -69s62.167 -42.333 99.5 -43s66.333 1.83301 87 7.5s38.333 14.5 53 26.5c32 25.333 48 64 48 116
c0 44.667 -16.333 80.333 -49 107c-31.333 24.667 -71.333 37 -120 37c-74 0 -123.333 -24.333 -148 -73c-9.33301 -18.667 -14 -46 -14 -82z" />
    <glyph glyph-name="Latin_Small_Letter_" unicode="&#xe6;" horiz-adv-x="1780" 
d="M882 162c-100.667 -118.667 -238.333 -178 -413 -178c-104 0 -188.333 28.667 -253 86c-68 58.667 -102 137 -102 235c0 141.333 74 244.333 222 309c116 49.333 261 74 435 74v115c0 76.667 -18.333 128.333 -55 155c-30.667 22 -87 33 -169 33
c-76 0 -163.333 -19 -262 -57c-26 -10 -46.333 -19.667 -61 -29l-54 147c56 34.667 154.667 65.333 296 92c46 8.66699 89.667 13 131 13s78.833 -2.16699 112.5 -6.5s64.5 -11.833 92.5 -22.5c57.333 -22 99.333 -60 126 -114c92 94.667 212.667 142 362 142
c116.667 0 212 -35.333 286 -106c80.667 -78.667 123 -186.667 127 -324c0 -101.333 -3.66699 -169.333 -11 -204h-702c4 -83.333 15.5 -147.333 34.5 -192s43.833 -80.333 74.5 -107c55.333 -48 134.333 -72 237 -72c73.333 0 150.333 12.333 231 37c24.667 8 44 16 58 24
l42 -126c-55.333 -45.333 -148.333 -76.667 -279 -94c-38 -5.333 -74.333 -8 -109 -8c-178 0 -310.333 59.333 -397 178zM1498 712c0 192 -75.667 288 -227 288c-160 0 -252 -110.667 -276 -332h502c0.666992 14.667 1 29.333 1 44zM458 493
c-37.333 -17.333 -67.167 -38.833 -89.5 -64.5s-33.5 -64.167 -33.5 -115.5c0 -110 63 -165 189 -165c88.667 0 169.333 26 242 78c22 16 40 33.667 54 53c-28 76 -43.333 166.333 -46 271l-1 -2c-136.667 0 -241.667 -18.333 -315 -55z" />
    <glyph glyph-name="Latin_Small_Letter_C_with_cedilla" unicode="&#xe7;" horiz-adv-x="1002" 
d="M323 -294c15.333 -9.33301 42.667 -14 82 -14c88 0 132 73.667 132 221c0 30 -3.33301 56.333 -10 79c-129.333 20.667 -230.667 83.333 -304 188c-70.667 101.333 -106 227.333 -106 378c0 175.333 46 317 138 425c98 115.333 235.667 173 413 173
c125.333 0 218.667 -19.667 280 -59l-35 -174c-59.333 42 -144.667 63 -256 63c-87.333 0 -160.333 -30 -219 -90c-72.667 -75.333 -109 -185.333 -109 -330c0 -124.667 29.5 -225.167 88.5 -301.5c59 -76.333 136.833 -114.5 233.5 -114.5c76 0 150.667 14.667 224 44
c19.333 7.33299 35.333 15 48 23l45 -125c-66 -62 -166.333 -97.333 -301 -106c20 -43.333 30 -98 30 -164c0 -148.667 -52.667 -239.667 -158 -273c-27.333 -8.66699 -51.5 -13 -72.5 -13s-39 0.666992 -54 2s-29.167 3.33301 -42.5 6c-30.667 6 -51.333 12.667 -62 20z
" />
    <glyph glyph-name="Latin_Small_Letter_E_with_grave" unicode="&#xe8;" horiz-adv-x="1123" 
d="M332 522c10 -197.333 82.667 -315.333 218 -354c40.667 -12 77.333 -18 110 -18s62.5 1.66701 89.5 5s53.833 7.66701 80.5 13c62 13.333 107 28 135 44l42 -126c-55.333 -45.333 -148 -76.667 -278 -94c-37.333 -5.333 -73 -8 -107 -8c-161.333 0 -286 52 -374 156
c-87.333 102.667 -131 246.667 -131 432c0 171.333 43 309.333 129 414c93.333 113.333 222 170 386 170c116.667 0 212 -35.333 286 -106c81.333 -79.333 124 -187.333 128 -324c0 -101.333 -3.66699 -169.333 -11 -204h-703zM841 712c0 192 -75.667 288 -227 288
c-160.667 0 -253 -110.667 -277 -332h503c0.666992 14.667 1 29.333 1 44zM389 1783c62.667 -80 175.333 -213 338 -399l-111 -90c-39.333 17.333 -105.167 68.333 -197.5 153s-154.5 151.667 -186.5 201z" />
    <glyph glyph-name="Latin_Small_Letter_E_with_acute" unicode="&#xe9;" horiz-adv-x="1123" 
d="M487 1384c162 177.333 274.667 310.333 338 399l156 -135c-22.667 -40 -83.333 -106 -182 -198c-97.333 -90 -164.333 -142 -201 -156zM332 522c10 -197.333 82.667 -315.333 218 -354c40.667 -12 77.333 -18 110 -18s62.5 1.66701 89.5 5s53.833 7.66701 80.5 13
c62 13.333 107 28 135 44l42 -126c-55.333 -45.333 -148 -76.667 -278 -94c-37.333 -5.333 -73 -8 -107 -8c-161.333 0 -286 52 -374 156c-87.333 102.667 -131 246.667 -131 432c0 171.333 43 309.333 129 414c93.333 113.333 222 170 386 170
c116.667 0 212 -35.333 286 -106c81.333 -79.333 124 -187.333 128 -324c0 -101.333 -3.66699 -169.333 -11 -204h-703zM841 712c0 192 -75.667 288 -227 288c-160.667 0 -253 -110.667 -277 -332h503c0.666992 14.667 1 29.333 1 44z" />
    <glyph glyph-name="Latin_Small_Letter_E_with_circumflex" unicode="&#xea;" horiz-adv-x="1123" 
d="M243 1349l276 333h198l268 -332l-135 -56l-232 222l-249 -223zM332 522c10 -197.333 82.667 -315.333 218 -354c40.667 -12 77.333 -18 110 -18s62.5 1.66701 89.5 5s53.833 7.66701 80.5 13c62 13.333 107 28 135 44l42 -126c-55.333 -45.333 -148 -76.667 -278 -94
c-37.333 -5.333 -73 -8 -107 -8c-161.333 0 -286 52 -374 156c-87.333 102.667 -131 246.667 -131 432c0 171.333 43 309.333 129 414c93.333 113.333 222 170 386 170c116.667 0 212 -35.333 286 -106c81.333 -79.333 124 -187.333 128 -324
c0 -101.333 -3.66699 -169.333 -11 -204h-703zM841 712c0 192 -75.667 288 -227 288c-160.667 0 -253 -110.667 -277 -332h503c0.666992 14.667 1 29.333 1 44z" />
    <glyph glyph-name="Latin_Small_Letter_E_with_diaeresis" unicode="&#xeb;" horiz-adv-x="1123" 
d="M942 1404.5l-10.5 -9.75s-19.833 -13.417 -38.5 -20.75s-37.5 -11 -56.5 -11s-36.5 3 -52.5 9s-30 14.667 -42 26c-25.333 24.667 -38 51.833 -38 81.5s4.5 53.5 13.5 71.5s20.5 33.667 34.5 47c30.667 29.333 61.833 44 93.5 44s55.667 -3.33301 72 -10
s29.833 -16 40.5 -28c20.667 -23.333 31 -50 31 -80s-4.33301 -54.167 -13 -72.5s-20 -34 -34 -47zM484 1404.5l-10.5 -9.75s-19.833 -13.417 -38.5 -20.75s-37.5 -11 -56.5 -11s-36.5 3 -52.5 9s-30 14.667 -42 26c-25.333 24.667 -38 51.833 -38 81.5s4.5 53.5 13.5 71.5
s20.833 33.667 35.5 47c31.333 29.333 62.5 44 93.5 44s54.667 -3.33301 71 -10s29.833 -16 40.5 -28c20.667 -23.333 31 -50 31 -80s-4.33301 -54.167 -13 -72.5s-20 -34 -34 -47zM332 522c10 -197.333 82.667 -315.333 218 -354c40.667 -12 77.333 -18 110 -18
s62.5 1.66701 89.5 5s53.833 7.66701 80.5 13c62 13.333 107 28 135 44l42 -126c-55.333 -45.333 -148 -76.667 -278 -94c-37.333 -5.333 -73 -8 -107 -8c-161.333 0 -286 52 -374 156c-87.333 102.667 -131 246.667 -131 432c0 171.333 43 309.333 129 414
c93.333 113.333 222 170 386 170c116.667 0 212 -35.333 286 -106c81.333 -79.333 124 -187.333 128 -324c0 -101.333 -3.66699 -169.333 -11 -204h-703zM841 712c0 192 -75.667 288 -227 288c-160.667 0 -253 -110.667 -277 -332h503c0.666992 14.667 1 29.333 1 44z" />
    <glyph glyph-name="Latin_Small_Letter_I_with_grave" unicode="&#xec;" horiz-adv-x="606" 
d="M213 1138h220v-1138h-220v1138zM96 1783c62.667 -80 175.333 -213 338 -399l-111 -90c-39.333 17.333 -105.167 68.333 -197.5 153c-92.333 84.667 -154.5 151.667 -186.5 201z" />
    <glyph glyph-name="Latin_Small_Letter_I_with_acute" unicode="&#xed;" horiz-adv-x="606" 
d="M193 1384c162 177.333 274.667 310.333 338 399l156 -135c-22.667 -40 -83.333 -106 -182 -198c-97.333 -90 -164.333 -142 -201 -156zM213 1138h220v-1138h-220v1138z" />
    <glyph glyph-name="Latin_Small_Letter_I_with_circumflex" unicode="&#xee;" horiz-adv-x="606" 
d="M-50 1349l276 333h198l268 -332l-135 -56l-232 222l-249 -223zM213 1138h220v-1138h-220v1138z" />
    <glyph glyph-name="Latin_Small_Letter_I_with_diaeresis" unicode="&#xef;" horiz-adv-x="606" 
d="M636 1404.5l-10.5 -9.75s-19.833 -13.417 -38.5 -20.75s-37.5 -11 -56.5 -11s-36.5 3 -52.5 9s-30 14.667 -42 26c-25.333 24.667 -38 51.833 -38 81.5s4.5 53.5 13.5 71.5s20.5 33.667 34.5 47c30.667 29.333 61.833 44 93.5 44s55.667 -3.33301 72 -10
s29.833 -16 40.5 -28c20.667 -23.333 31 -50 31 -80s-4.33301 -54.167 -13 -72.5s-20 -34 -34 -47zM202 1404.5l-10.5 -9.75s-19.833 -13.417 -38.5 -20.75s-37.5 -11 -56.5 -11s-36.5 3 -52.5 9s-30 14.667 -42 26c-25.333 24.667 -38 51.833 -38 81.5s4.5 53.5 13.5 71.5
s20.833 33.667 35.5 47c31.333 29.333 62.5 44 93.5 44s54.667 -3.33301 71 -10s29.833 -16 40.5 -28c20.667 -23.333 31 -50 31 -80s-4.33299 -54.167 -13 -72.5s-20 -34 -34 -47zM213 1138h220v-1138h-220v1138z" />
    <glyph glyph-name="Latin_Small_Letter_Eth" unicode="&#xf0;" horiz-adv-x="1190" 
d="M813 1721c-70 -80 -114 -129 -132 -147c224 -172 365.333 -398 424 -678c19.333 -91.333 29 -188.667 29 -292s-12.167 -194.5 -36.5 -273.5s-58.833 -144.833 -103.5 -197.5c-89.333 -106.667 -215.333 -160 -378 -160c-150.667 0 -271.333 51.667 -362 155
c-92.667 104.667 -139 246.333 -139 425c0 185.333 47 332.333 141 441c92 106.667 215.333 160 370 160c84.667 -1.33301 156 -26 214 -74c-52 142.667 -141 267.667 -267 375l-134 -149l-115 90l133 143c-71.333 46 -143 81.667 -215 107l52 125
c94.667 -30 184 -69.333 268 -118c23.333 24.667 68 77.333 134 158zM915 554l1 146c0 46 -2 95.667 -6 149c-13.333 60 -66 102.333 -158 127c-33.333 9.33301 -74 14 -122 14s-90.833 -10.5 -128.5 -31.5s-68.833 -50.5 -93.5 -88.5c-50 -75.333 -75 -178.333 -75 -309
c0 -202.667 57 -337.333 171 -404c37.333 -22 79.333 -33 126 -33s87.167 10.167 121.5 30.5s63.833 49.167 88.5 86.5c50 77.333 75 181.667 75 313z" />
    <glyph glyph-name="Latin_Small_Letter_N_with_tilde" unicode="&#xf1;" horiz-adv-x="1279" 
d="M196 1138h196l1 -120c83.333 57.333 178 98.667 284 124c44 10 90 15 138 15s92.667 -7.16699 134 -21.5s75.667 -39.167 103 -74.5c51.333 -67.333 77 -184.333 77 -351v-710h-220v711c0 100 -13.333 169 -40 207c-26.667 38.667 -74.667 58 -144 58
c-75.333 0 -154.333 -21 -237 -63c-25.333 -12.667 -49.333 -27.333 -72 -44v-869h-220v1138zM579 1482c-61.333 0 -122.333 -32.333 -183 -97l-85 68c39.333 86 100.333 145.667 183 179c28 10.667 56.167 16 84.5 16s52.667 -3.33301 73 -10s38.5 -15.167 54.5 -25.5
s30.667 -21.333 44 -33s26.667 -22.833 40 -33.5c29.333 -23.333 58 -35 86 -35c64.667 0 125.667 32.667 183 98l86 -72c-42 -89.333 -103 -148.667 -183 -178c-27.333 -10 -55.833 -15 -85.5 -15s-54.833 3.33301 -75.5 10s-39.167 15.167 -55.5 25.5
s-30.833 21.5 -43.5 33.5s-25.333 23 -38 33c-29.333 24 -57.667 36 -85 36z" />
    <glyph glyph-name="Latin_Small_Letter_O_with_grave" unicode="&#xf2;" horiz-adv-x="1213" 
d="M602 -16c-82 0 -154.667 16.667 -218 50c-178.667 92 -268 273 -268 543c0 187.333 50.667 332.333 152 435c94.667 96 217.333 144 368 144c172 0 301.667 -61 389 -183c74.667 -104.667 112 -244 112 -418c0 -180.667 -51 -323 -153 -427
c-93.333 -96 -220.667 -144 -382 -144zM626 140h70.5s95 35.833 144 107.5c49 71.667 73.5 174.5 73.5 308.5c0 202.667 -52 338 -156 406c-37.333 24 -82.333 36 -135 36c-92 0 -162.333 -35 -211 -105s-73 -170.667 -73 -302c0 -129.333 24.333 -236.833 73 -322.5
c48.667 -85.667 120 -128.5 214 -128.5zM408 1783c62.667 -80 175.333 -213 338 -399l-111 -90c-39.333 17.333 -105.167 68.333 -197.5 153s-154.5 151.667 -186.5 201z" />
    <glyph glyph-name="Latin_Small_Letter_O_with_acute" unicode="&#xf3;" horiz-adv-x="1213" 
d="M506 1384c162 177.333 274.667 310.333 338 399l156 -135c-22.667 -40 -83.333 -106 -182 -198c-97.333 -90 -164.333 -142 -201 -156zM602 -16c-82 0 -154.667 16.667 -218 50c-178.667 92 -268 273 -268 543c0 187.333 50.667 332.333 152 435
c94.667 96 217.333 144 368 144c172 0 301.667 -61 389 -183c74.667 -104.667 112 -244 112 -418c0 -180.667 -51 -323 -153 -427c-93.333 -96 -220.667 -144 -382 -144zM626 140h70.5s95 35.833 144 107.5c49 71.667 73.5 174.5 73.5 308.5c0 202.667 -52 338 -156 406
c-37.333 24 -82.333 36 -135 36c-92 0 -162.333 -35 -211 -105s-73 -170.667 -73 -302c0 -129.333 24.333 -236.833 73 -322.5c48.667 -85.667 120 -128.5 214 -128.5z" />
    <glyph glyph-name="Latin_Small_Letter_O_with_circumflex" unicode="&#xf4;" horiz-adv-x="1213" 
d="M262 1349l276 333h198l268 -332l-135 -56l-232 222l-249 -223zM602 -16c-82 0 -154.667 16.667 -218 50c-178.667 92 -268 273 -268 543c0 187.333 50.667 332.333 152 435c94.667 96 217.333 144 368 144c172 0 301.667 -61 389 -183c74.667 -104.667 112 -244 112 -418
c0 -180.667 -51 -323 -153 -427c-93.333 -96 -220.667 -144 -382 -144zM626 140h70.5s95 35.833 144 107.5c49 71.667 73.5 174.5 73.5 308.5c0 202.667 -52 338 -156 406c-37.333 24 -82.333 36 -135 36c-92 0 -162.333 -35 -211 -105s-73 -170.667 -73 -302
c0 -129.333 24.333 -236.833 73 -322.5c48.667 -85.667 120 -128.5 214 -128.5z" />
    <glyph glyph-name="Latin_Small_Letter_O_with_tilde" unicode="&#xf5;" horiz-adv-x="1213" 
d="M602 -16c-82 0 -154.667 16.667 -218 50c-178.667 92 -268 273 -268 543c0 187.333 50.667 332.333 152 435c94.667 96 217.333 144 368 144c172 0 301.667 -61 389 -183c74.667 -104.667 112 -244 112 -418c0 -180.667 -51 -323 -153 -427
c-93.333 -96 -220.667 -144 -382 -144zM626 140h70.5s95 35.833 144 107.5c49 71.667 73.5 174.5 73.5 308.5c0 202.667 -52 338 -156 406c-37.333 24 -82.333 36 -135 36c-92 0 -162.333 -35 -211 -105s-73 -170.667 -73 -302c0 -129.333 24.333 -236.833 73 -322.5
c48.667 -85.667 120 -128.5 214 -128.5zM485 1482c-61.333 0 -122.333 -32.333 -183 -97l-85 68c39.333 86 100.333 145.667 183 179c28 10.667 56.167 16 84.5 16s52.667 -3.33301 73 -10s38.5 -15.167 54.5 -25.5s30.667 -21.333 44 -33s26.667 -22.833 40 -33.5
c29.333 -23.333 58 -35 86 -35c64.667 0 125.667 32.667 183 98l86 -72c-42 -89.333 -103 -148.667 -183 -178c-27.333 -10 -55.833 -15 -85.5 -15s-54.833 3.33301 -75.5 10s-39.167 15.167 -55.5 25.5s-30.833 21.5 -43.5 33.5s-25.333 23 -38 33
c-29.333 24 -57.667 36 -85 36z" />
    <glyph glyph-name="Latin_Small_Letter_O_with_diaeresis" unicode="&#xf6;" horiz-adv-x="1213" 
d="M961 1404.5l-10.5 -9.75s-19.833 -13.417 -38.5 -20.75s-37.5 -11 -56.5 -11s-36.5 3 -52.5 9s-30 14.667 -42 26c-25.333 24.667 -38 51.833 -38 81.5s4.5 53.5 13.5 71.5s20.5 33.667 34.5 47c30.667 29.333 61.833 44 93.5 44s55.667 -3.33301 72 -10
s29.833 -16 40.5 -28c20.667 -23.333 31 -50 31 -80s-4.33301 -54.167 -13 -72.5s-20 -34 -34 -47zM503 1404.5l-10.5 -9.75s-19.833 -13.417 -38.5 -20.75s-37.5 -11 -56.5 -11s-36.5 3 -52.5 9s-30 14.667 -42 26c-25.333 24.667 -38 51.833 -38 81.5s4.5 53.5 13.5 71.5
s20.833 33.667 35.5 47c31.333 29.333 62.5 44 93.5 44s54.667 -3.33301 71 -10s29.833 -16 40.5 -28c20.667 -23.333 31 -50 31 -80s-4.33301 -54.167 -13 -72.5s-20 -34 -34 -47zM602 -16c-82 0 -154.667 16.667 -218 50c-178.667 92 -268 273 -268 543
c0 187.333 50.667 332.333 152 435c94.667 96 217.333 144 368 144c172 0 301.667 -61 389 -183c74.667 -104.667 112 -244 112 -418c0 -180.667 -51 -323 -153 -427c-93.333 -96 -220.667 -144 -382 -144zM626 140h70.5s95 35.833 144 107.5
c49 71.667 73.5 174.5 73.5 308.5c0 202.667 -52 338 -156 406c-37.333 24 -82.333 36 -135 36c-92 0 -162.333 -35 -211 -105s-73 -170.667 -73 -302c0 -129.333 24.333 -236.833 73 -322.5c48.667 -85.667 120 -128.5 214 -128.5z" />
    <glyph glyph-name="Division_sign" unicode="&#xf7;" horiz-adv-x="1393" 
d="M826 1074c0 0 -3.83301 -3.5 -11.5 -10.5s-21.333 -14.5 -41 -22.5s-39.667 -12 -60 -12s-39 3.33301 -56 10s-31.833 16 -44.5 28c-28 26.667 -42 55.833 -42 87.5s4.66699 57.167 14 76.5s21.667 36.333 37 51c32.667 31.333 65.667 47 99 47s58.833 -3.66699 76.5 -11
s32.5 -17.333 44.5 -30c23.333 -26 35 -54.833 35 -86.5s-4.66699 -57.333 -14 -77s-21.667 -36.5 -37 -50.5zM249 858h935v-170h-935v170zM582 306c-8 16.667 -12 36 -12 58s4.66699 42.667 14 62s21.667 36.333 37 51c32.667 31.333 65.667 47 99 47
s58.833 -3.66699 76.5 -11s32.167 -17 43.5 -29c24 -25.333 36 -54.167 36 -86.5s-4.66699 -58.333 -14 -78s-21.667 -36.5 -37 -50.5c-32 -29.333 -70 -44 -114 -44c-62 0 -105 27 -129 81z" />
    <glyph glyph-name="Latin_Small_Letter_O_with_stroke" unicode="&#xf8;" horiz-adv-x="1213" 
d="M984 128c-46 -47.333 -100.5 -83.167 -163.5 -107.5s-122.333 -36.5 -178 -36.5s-103.167 3.667 -142.5 11l-66 -195l-125 36l68 201c-174 88 -261 269.667 -261 545c0 184 50.667 327.333 152 430c94.667 96 217.333 144 368 144c38.667 0 77.667 -3.66699 117 -11
l67 197l125 -36l-69 -203c174 -89.333 261 -271 261 -545c0 -182.667 -51 -326 -153 -430zM700 988c-26 6.66699 -51.667 10 -77 10c-92 0 -162.333 -35 -211 -105s-73 -170.667 -73 -302c0 -160.667 34 -282.333 102 -365zM553 151c22 -7.33299 51.667 -11 89 -11
s73.667 9 109 27s65 45 89 81c49.333 71.333 74 174 74 308c0 160.667 -34 280.333 -102 359z" />
    <glyph glyph-name="Latin_Small_Letter_U_with_grave" unicode="&#xf9;" horiz-adv-x="1249" 
d="M190 1140h220v-665c0 -133.333 16 -220.333 48 -261c16.667 -20.667 38.333 -34 65 -40s54.667 -9 84 -9s56.333 2.66701 81 8s48.667 12 72 20c46 16 83.667 33.333 113 52v895h220v-1156h-85c-39.333 0 -65 4 -77 12c-22 14 -33 39.333 -33 76v28
c-80.667 -50.667 -171.333 -86 -272 -106c-34 -6.667 -76.833 -10 -128.5 -10s-99.667 11.833 -144 35.5s-78.833 57.167 -103.5 100.5c-40 70.667 -60 188.667 -60 354v666zM426 1783c62.667 -80 175.333 -213 338 -399l-111 -90
c-39.333 17.333 -105.167 68.333 -197.5 153s-154.5 151.667 -186.5 201z" />
    <glyph glyph-name="Latin_Small_Letter_U_with_acute" unicode="&#xfa;" horiz-adv-x="1249" 
d="M524 1384c162 177.333 274.667 310.333 338 399l156 -135c-22.667 -40 -83.333 -106 -182 -198c-97.333 -90 -164.333 -142 -201 -156zM190 1140h220v-665c0 -133.333 16 -220.333 48 -261c16.667 -20.667 38.333 -34 65 -40s54.667 -9 84 -9s56.333 2.66701 81 8
s48.667 12 72 20c46 16 83.667 33.333 113 52v895h220v-1156h-85c-39.333 0 -65 4 -77 12c-22 14 -33 39.333 -33 76v28c-80.667 -50.667 -171.333 -86 -272 -106c-34 -6.667 -76.833 -10 -128.5 -10s-99.667 11.833 -144 35.5s-78.833 57.167 -103.5 100.5
c-40 70.667 -60 188.667 -60 354v666z" />
    <glyph glyph-name="Latin_Small_Letter_U_with_circumflex" unicode="&#xfb;" horiz-adv-x="1249" 
d="M280 1349l276 333h198l268 -332l-135 -56l-232 222l-249 -223zM190 1140h220v-665c0 -133.333 16 -220.333 48 -261c16.667 -20.667 38.333 -34 65 -40s54.667 -9 84 -9s56.333 2.66701 81 8s48.667 12 72 20c46 16 83.667 33.333 113 52v895h220v-1156h-85
c-39.333 0 -65 4 -77 12c-22 14 -33 39.333 -33 76v28c-80.667 -50.667 -171.333 -86 -272 -106c-34 -6.667 -76.833 -10 -128.5 -10s-99.667 11.833 -144 35.5s-78.833 57.167 -103.5 100.5c-40 70.667 -60 188.667 -60 354v666z" />
    <glyph glyph-name="Latin_Small_Letter_U_with_diaeresis" unicode="&#xfc;" horiz-adv-x="1249" 
d="M979 1404.5l-10.5 -9.75s-19.833 -13.417 -38.5 -20.75s-37.5 -11 -56.5 -11s-36.5 3 -52.5 9s-30 14.667 -42 26c-25.333 24.667 -38 51.833 -38 81.5s4.5 53.5 13.5 71.5s20.5 33.667 34.5 47c30.667 29.333 61.833 44 93.5 44s55.667 -3.33301 72 -10
s29.833 -16 40.5 -28c20.667 -23.333 31 -50 31 -80s-4.33301 -54.167 -13 -72.5s-20 -34 -34 -47zM521 1404.5l-10.5 -9.75s-19.833 -13.417 -38.5 -20.75s-37.5 -11 -56.5 -11s-36.5 3 -52.5 9s-30 14.667 -42 26c-25.333 24.667 -38 51.833 -38 81.5s4.5 53.5 13.5 71.5
s20.833 33.667 35.5 47c31.333 29.333 62.5 44 93.5 44s54.667 -3.33301 71 -10s29.833 -16 40.5 -28c20.667 -23.333 31 -50 31 -80s-4.33301 -54.167 -13 -72.5s-20 -34 -34 -47zM190 1140h220v-665c0 -133.333 16 -220.333 48 -261c16.667 -20.667 38.333 -34 65 -40
s54.667 -9 84 -9s56.333 2.66701 81 8s48.667 12 72 20c46 16 83.667 33.333 113 52v895h220v-1156h-85c-39.333 0 -65 4 -77 12c-22 14 -33 39.333 -33 76v28c-80.667 -50.667 -171.333 -86 -272 -106c-34 -6.667 -76.833 -10 -128.5 -10s-99.667 11.833 -144 35.5
s-78.833 57.167 -103.5 100.5c-40 70.667 -60 188.667 -60 354v666z" />
    <glyph glyph-name="Latin_Small_Letter_Y_with_acute" unicode="&#xfd;" horiz-adv-x="1116" 
d="M151 -314c19.333 -7.33301 45.333 -11 78 -11c32.667 0 62.667 4.16699 90 12.5s55 24.5 83 48.5c64.667 55.333 111.333 143.333 140 264h-65l-413 1140h235l252 -768l58 -186l267 954h237l-384 -1176c-86 -260.667 -205.333 -412.667 -358 -456
c-38 -10 -81 -15 -129 -15s-78.333 4.66699 -91 14v179zM480 1384c162 177.333 274.667 310.333 338 399l156 -135c-22.667 -40 -83.333 -106 -182 -198c-97.333 -90 -164.333 -142 -201 -156z" />
    <glyph glyph-name="Latin_Small_Letter_Thorn" unicode="&#xfe;" horiz-adv-x="1238" 
d="M1004 158c-50.667 -55.333 -111.333 -98.5 -182 -129.5s-139.833 -46.5 -207.5 -46.5s-141.5 6.667 -221.5 20l13 -171v-338h-220v2168h220v-472l-8 -159c84 84 188.333 126 313 126c128 0 233 -44.667 315 -134c90 -97.333 135 -234 135 -410
c0 -186 -52.333 -337.333 -157 -454zM650 983c-82.667 0 -164 -31 -244 -93v-706c38 -26.667 106.333 -40 205 -40c95.333 0 172.333 37.333 231 112c63.333 80.667 95 192.667 95 336c0 260.667 -95.667 391 -287 391z" />
    <glyph glyph-name="Latin_Small_Letter_Y_with_diaeresis" unicode="&#xff;" horiz-adv-x="1116" 
d="M151 -314c19.333 -7.33301 45.333 -11 78 -11c32.667 0 62.667 4.16699 90 12.5s55 24.5 83 48.5c64.667 55.333 111.333 143.333 140 264h-65l-413 1140h235l252 -768l58 -186l267 954h237l-384 -1176c-86 -260.667 -205.333 -412.667 -358 -456
c-38 -10 -81 -15 -129 -15s-78.333 4.66699 -91 14v179zM935 1404.5l-10.5 -9.75s-19.833 -13.417 -38.5 -20.75s-37.5 -11 -56.5 -11s-36.5 3 -52.5 9s-30 14.667 -42 26c-25.333 24.667 -38 51.833 -38 81.5s4.5 53.5 13.5 71.5s20.5 33.667 34.5 47
c30.667 29.333 61.833 44 93.5 44s55.667 -3.33301 72 -10s29.833 -16 40.5 -28c20.667 -23.333 31 -50 31 -80s-4.33301 -54.167 -13 -72.5s-20 -34 -34 -47zM477 1404.5l-10.5 -9.75s-19.833 -13.417 -38.5 -20.75s-37.5 -11 -56.5 -11s-36.5 3 -52.5 9s-30 14.667 -42 26
c-25.333 24.667 -38 51.833 -38 81.5s4.5 53.5 13.5 71.5s20.833 33.667 35.5 47c31.333 29.333 62.5 44 93.5 44s54.667 -3.33301 71 -10s29.833 -16 40.5 -28c20.667 -23.333 31 -50 31 -80s-4.33301 -54.167 -13 -72.5s-20 -34 -34 -47z" />
    <glyph glyph-name="Latin_Capital_Letter_A_with_macron" unicode="&#x100;" horiz-adv-x="1407" 
d="M623 1538h215l568 -1538h-241l-130 385h-622l-136 -385h-236zM979 551l-204 609l-43 142l-44 -142l-216 -609h507zM451 1891h547v-162h-547v162z" />
    <glyph glyph-name="Latin_Small_Letter_A_with_macron" unicode="&#x101;" horiz-adv-x="1131" 
d="M212.5 69.5c0 0 -7.75 6.917 -23.25 20.75s-31.917 40.583 -49.25 80.25c-17.333 39.667 -26 90.5 -26 152.5s20 119 60 171c84 109.333 248 172.667 492 190c37.333 2.66699 72 4 104 4v115c0 76.667 -20 128.333 -60 155c-33.333 22 -94.333 33 -183 33
c-76.667 0 -161 -18.333 -253 -55c-24 -9.33301 -42.333 -18.667 -55 -28l-54 144c57.333 36 152.333 66.667 285 92c45.333 8.66699 94.167 13 146.5 13s103.333 -4.83301 153 -14.5s92.5 -27.833 128.5 -54.5c74.667 -56 112 -154 112 -294v-810h-90
c-42.667 0 -70.333 4 -83 12c-22.667 15.333 -34 46 -34 92v8c-54.667 -50 -128.333 -84 -221 -102c-32 -6.667 -69.167 -10 -111.5 -10s-84.833 7.333 -127.5 22s-79.5 35.833 -110.5 63.5zM331 324c0 -117.333 65.667 -176 197 -176c72.667 0 142 19 208 57
c16.667 9.33299 28 17.333 34 24v319c-78 0 -144.333 -6.66699 -199 -20s-91.833 -24.667 -111.5 -34s-37.167 -19.167 -52.5 -29.5s-28.667 -22.5 -40 -36.5c-24 -28.667 -36 -63.333 -36 -104zM314 1588h547v-163h-547v163z" />
    <glyph glyph-name="Latin_Capital_Letter_A_with_breve" unicode="&#x102;" horiz-adv-x="1407" 
d="M623 1538h215l568 -1538h-241l-130 385h-622l-136 -385h-236zM979 551l-204 609l-43 142l-44 -142l-216 -609h507zM982 1733.5l-22.5 -23.25s-44.667 -32.417 -89 -50.75s-94.667 -27.5 -151 -27.5s-106.5 9.33301 -150.5 28c-89.333 36.667 -147.667 97 -175 181
c-10 31.333 -15 58 -15 80s0.333008 38.333 1 49h153c0 -79.333 36.333 -130.667 109 -154c21.333 -7.33301 47.833 -11 79.5 -11s58.5 3.5 80.5 10.5s40.167 16 54.5 27s25.333 23 33 36s13.5 25.5 17.5 37.5c5.33301 19.333 8 37.333 8 54h149c0.666992 -10 1 -26 1 -48
s-6.33301 -51.167 -19 -87.5s-34 -70 -64 -101z" />
    <glyph glyph-name="Latin_Small_Letter_A_with_breve" unicode="&#x103;" horiz-adv-x="1131" 
d="M212.5 69.5c0 0 -7.75 6.917 -23.25 20.75s-31.917 40.583 -49.25 80.25c-17.333 39.667 -26 90.5 -26 152.5s20 119 60 171c84 109.333 248 172.667 492 190c37.333 2.66699 72 4 104 4v115c0 76.667 -20 128.333 -60 155c-33.333 22 -94.333 33 -183 33
c-76.667 0 -161 -18.333 -253 -55c-24 -9.33301 -42.333 -18.667 -55 -28l-54 144c57.333 36 152.333 66.667 285 92c45.333 8.66699 94.167 13 146.5 13s103.333 -4.83301 153 -14.5s92.5 -27.833 128.5 -54.5c74.667 -56 112 -154 112 -294v-810h-90
c-42.667 0 -70.333 4 -83 12c-22.667 15.333 -34 46 -34 92v8c-54.667 -50 -128.333 -84 -221 -102c-32 -6.667 -69.167 -10 -111.5 -10s-84.833 7.333 -127.5 22s-79.5 35.833 -110.5 63.5zM331 324c0 -117.333 65.667 -176 197 -176c72.667 0 142 19 208 57
c16.667 9.33299 28 17.333 34 24v319c-78 0 -144.333 -6.66699 -199 -20s-91.833 -24.667 -111.5 -34s-37.167 -19.167 -52.5 -29.5s-28.667 -22.5 -40 -36.5c-24 -28.667 -36 -63.333 -36 -104zM845.5 1425l-22.75 -26.5s-44.917 -37.167 -89.25 -58.5
s-94.333 -32 -150 -32s-105.5 10.667 -149.5 32c-88 42 -146.667 110.667 -176 206c-10.667 35.333 -16 64.667 -16 88s0.332993 40.333 1 51h154c0 -97.333 36.333 -161 109 -191c22 -9.33301 48.833 -14 80.5 -14s58.5 4.5 80.5 13.5s40 20.333 54 34
s24.833 28.667 32.5 45s13.5 32.167 17.5 47.5c5.33301 20.667 8 42.333 8 65h150c0.666992 -10 1 -26.833 1 -50.5s-6.5 -55.667 -19.5 -96s-34.667 -78.167 -65 -113.5z" />
    <glyph glyph-name="Latin_Capital_Letter_A_with_ogonek" unicode="&#x104;" horiz-adv-x="1407" 
d="M1414 -453c-51.333 -39.333 -130.333 -59 -237 -59c-114 0 -189.667 40 -227 120c-12.667 27.333 -19 57.5 -19 90.5s8 64.167 24 93.5s37 56.667 63 82c47.333 47.333 107 89.333 179 126h-32l-130 385h-622l-136 -385h-236l582 1538h215l568 -1538h-39
c-100 -56.667 -167.667 -120 -203 -190c-11.333 -22 -17 -43.667 -17 -65c0 -72.667 42.667 -109 128 -109c43.333 0 89.667 9.66699 139 29v-118zM979 551l-204 609l-43 142l-44 -142l-216 -609h507z" />
    <glyph glyph-name="Latin_Small_Letter_A_with_ogonek" unicode="&#x105;" horiz-adv-x="1131" 
d="M813 -1c-20 13.333 -30 43 -30 89v8c-54.667 -50 -128.333 -84 -221 -102c-32 -6.667 -69.167 -10 -111.5 -10s-84.833 7.333 -127.5 22s-79.667 36 -111 64c-65.333 58 -98 136.333 -98 235c0 74 20 137 60 189c84 109.333 248 172.667 492 190
c37.333 2.66699 72 4 104 4v115c0 76.667 -20 128.333 -60 155c-33.333 22 -94.333 33 -183 33c-76.667 0 -161 -18.333 -253 -55c-24 -9.33301 -42.333 -18.667 -55 -28l-54 144c57.333 36 152.333 66.667 285 92c45.333 8.66699 94.167 13 146.5 13
s103.333 -4.83301 153 -14.5s92.5 -27.833 128.5 -54.5c74.667 -56 112 -154 112 -294v-810h-15c-120 -76 -180 -155.333 -180 -238c0 -73.333 42.667 -110 128 -110c43.333 0 89.667 9.66699 139 29v-118c-51.333 -39.333 -130.333 -59 -237 -59
c-113.333 0 -189 40 -227 120c-12.667 26 -19.167 54.833 -19.5 86.5s6.16699 62.167 19.5 91.5s31 57.333 53 84c44 52.667 98 95.667 162 129zM331 324c0 -117.333 65.667 -176 197 -176c72.667 0 142 19 208 57c16.667 9.33299 28 17.333 34 24v319
c-78 0 -144.333 -6.66699 -199 -20s-91.833 -24.667 -111.5 -34s-37.167 -19.167 -52.5 -29.5s-28.667 -22.5 -40 -36.5c-24 -28.667 -36 -63.333 -36 -104z" />
    <glyph glyph-name="Latin_Capital_Letter_C_with_acute" unicode="&#x106;" horiz-adv-x="1313" 
d="M1186 1283c-90.667 49.333 -208 74 -352 74c-153.333 0 -274.667 -53 -364 -159s-134 -249.333 -134 -430s44 -326.667 132 -438c90.667 -113.333 212.333 -170 365 -170c118 0 223 19.333 315 58c26 11.333 45.667 23 59 35l1 -189
c-98 -38.667 -174.667 -61.667 -230 -69s-106.667 -11 -154 -11c-214 0 -386 70.667 -516 212c-128.667 140.667 -193 326.333 -193 557c0 242.667 70.667 436.333 212 581c64.667 66.667 139.5 117.333 224.5 152s165.333 52 241 52s135.333 -2.33301 179 -7
s81.5 -10.167 113.5 -16.5s58.833 -12.667 80.5 -19s39.167 -11.167 52.5 -14.5zM687 1665c1.33301 0.666992 10.5 8.83301 27.5 24.5s38.167 34.667 63.5 57s52.5 46.667 81.5 73s56.167 51.167 81.5 74.5c58 53.333 87.667 82 89 86l146 -133
c-79.333 -82 -179 -157.667 -299 -227c-36 -21.333 -68.333 -37 -97 -47z" />
    <glyph glyph-name="Latin_Small_Letter_C_with_acute" unicode="&#x107;" horiz-adv-x="1002" 
d="M502 1384c162 177.333 274.667 310.333 338 399l156 -135c-22.667 -40 -83.333 -106 -182 -198c-97.333 -90 -164.333 -142 -201 -156zM913 923c-59.333 42 -144.667 63 -256 63c-87.333 0 -160.333 -30 -219 -90c-72.667 -75.333 -109 -185.333 -109 -330
c0 -124.667 29.5 -225.167 88.5 -301.5c59 -76.333 136.833 -114.5 233.5 -114.5c76 0 150.667 14.667 224 44c19.333 7.33299 35.333 15 48 23l45 -125c-78 -72 -194.667 -108 -350 -108c-156 0 -279.667 55 -371 165c-86.667 104 -130 240.333 -130 409
c0 175.333 46 317 138 425c98 115.333 235.667 173 413 173c125.333 0 218.667 -19.667 280 -59z" />
    <glyph glyph-name="Latin_Capital_Letter_C_with_circumflex" unicode="&#x108;" horiz-adv-x="1313" 
d="M1186 1283c-90.667 49.333 -208 74 -352 74c-153.333 0 -274.667 -53 -364 -159s-134 -249.333 -134 -430s44 -326.667 132 -438c90.667 -113.333 212.333 -170 365 -170c118 0 223 19.333 315 58c26 11.333 45.667 23 59 35l1 -189
c-98 -38.667 -174.667 -61.667 -230 -69s-106.667 -11 -154 -11c-214 0 -386 70.667 -516 212c-128.667 140.667 -193 326.333 -193 557c0 242.667 70.667 436.333 212 581c64.667 66.667 139.5 117.333 224.5 152s165.333 52 241 52s135.333 -2.33301 179 -7
s81.5 -10.167 113.5 -16.5s58.833 -12.667 80.5 -19s39.167 -11.167 52.5 -14.5zM457 1689l259 301h197l262 -298l-144 -60l-216 202l-221 -202z" />
    <glyph glyph-name="Latin_Small_Letter_C_with_circumflex" unicode="&#x109;" horiz-adv-x="1002" 
d="M258 1349l276 333h198l268 -332l-135 -56l-232 222l-249 -223zM913 923c-59.333 42 -144.667 63 -256 63c-87.333 0 -160.333 -30 -219 -90c-72.667 -75.333 -109 -185.333 -109 -330c0 -124.667 29.5 -225.167 88.5 -301.5c59 -76.333 136.833 -114.5 233.5 -114.5
c76 0 150.667 14.667 224 44c19.333 7.33299 35.333 15 48 23l45 -125c-78 -72 -194.667 -108 -350 -108c-156 0 -279.667 55 -371 165c-86.667 104 -130 240.333 -130 409c0 175.333 46 317 138 425c98 115.333 235.667 173 413 173c125.333 0 218.667 -19.667 280 -59z
" />
    <glyph glyph-name="Latin_Capital_Letter_C_with_dot_above" unicode="&#x10a;" horiz-adv-x="1313" 
d="M917 1711.5l-11 -10.25s-20.667 -13.917 -40 -21.25s-38.833 -11 -58.5 -11s-38 3 -55 9s-31.833 14.667 -44.5 26c-27.333 25.333 -41 53.5 -41 84.5s4.66699 55.833 14 74.5s21.333 35 36 49c32.667 29.333 65.167 44 97.5 44s57.167 -3.33301 74.5 -10
s31.667 -16 43 -28c22.667 -24 34 -51.667 34 -83s-4.5 -56.333 -13.5 -75s-20.833 -34.833 -35.5 -48.5zM1186 1283c-90.667 49.333 -208 74 -352 74c-153.333 0 -274.667 -53 -364 -159s-134 -249.333 -134 -430s44 -326.667 132 -438
c90.667 -113.333 212.333 -170 365 -170c118 0 223 19.333 315 58c26 11.333 45.667 23 59 35l1 -189c-98 -38.667 -174.667 -61.667 -230 -69s-106.667 -11 -154 -11c-214 0 -386 70.667 -516 212c-128.667 140.667 -193 326.333 -193 557
c0 242.667 70.667 436.333 212 581c64.667 66.667 139.5 117.333 224.5 152s165.333 52 241 52s135.333 -2.33301 179 -7s81.5 -10.167 113.5 -16.5s58.833 -12.667 80.5 -19s39.167 -11.167 52.5 -14.5z" />
    <glyph glyph-name="Latin_Small_Letter_C_with_dot_above" unicode="&#x10b;" horiz-adv-x="1002" 
d="M913 923c-59.333 42 -144.667 63 -256 63c-87.333 0 -160.333 -30 -219 -90c-72.667 -75.333 -109 -185.333 -109 -330c0 -124.667 29.5 -225.167 88.5 -301.5c59 -76.333 136.833 -114.5 233.5 -114.5c76 0 150.667 14.667 224 44c19.333 7.33299 35.333 15 48 23
l45 -125c-78 -72 -194.667 -108 -350 -108c-156 0 -279.667 55 -371 165c-86.667 104 -130 240.333 -130 409c0 175.333 46 317 138 425c98 115.333 235.667 173 413 173c125.333 0 218.667 -19.667 280 -59zM733.5 1390.5c0 0 -3.75 -3.41699 -11.25 -10.25
s-21.083 -14.083 -40.75 -21.75s-39.333 -11.5 -59 -11.5s-38 3.16699 -55 9.5s-32.167 15.5 -45.5 27.5c-28 25.333 -42 53.5 -42 84.5s4.66699 56 14 75s21.667 35.5 37 49.5c32.667 30 65.333 45 98 45s57.833 -3.5 75.5 -10.5s32.167 -16.833 43.5 -29.5
c23.333 -24 35 -51.667 35 -83s-4.5 -56.5 -13.5 -75.5s-21 -35.333 -36 -49z" />
    <glyph glyph-name="Latin_Capital_Letter_C_with_caron" unicode="&#x10c;" horiz-adv-x="1313" 
d="M1186 1283c-90.667 49.333 -208 74 -352 74c-153.333 0 -274.667 -53 -364 -159s-134 -249.333 -134 -430s44 -326.667 132 -438c90.667 -113.333 212.333 -170 365 -170c118 0 223 19.333 315 58c26 11.333 45.667 23 59 35l1 -189
c-98 -38.667 -174.667 -61.667 -230 -69s-106.667 -11 -154 -11c-214 0 -386 70.667 -516 212c-128.667 140.667 -193 326.333 -193 557c0 242.667 70.667 436.333 212 581c64.667 66.667 139.5 117.333 224.5 152s165.333 52 241 52s135.333 -2.33301 179 -7
s81.5 -10.167 113.5 -16.5s58.833 -12.667 80.5 -19s39.167 -11.167 52.5 -14.5zM472 1930l128 60l216 -174l221 174l120 -57l-242 -263h-197z" />
    <glyph glyph-name="Latin_Small_Letter_C_with_caron" unicode="&#x10d;" horiz-adv-x="1002" 
d="M260 1654l126 56l249 -223l232 222l135 -56l-268 -332h-198zM913 923c-59.333 42 -144.667 63 -256 63c-87.333 0 -160.333 -30 -219 -90c-72.667 -75.333 -109 -185.333 -109 -330c0 -124.667 29.5 -225.167 88.5 -301.5c59 -76.333 136.833 -114.5 233.5 -114.5
c76 0 150.667 14.667 224 44c19.333 7.33299 35.333 15 48 23l45 -125c-78 -72 -194.667 -108 -350 -108c-156 0 -279.667 55 -371 165c-86.667 104 -130 240.333 -130 409c0 175.333 46 317 138 425c98 115.333 235.667 173 413 173c125.333 0 218.667 -19.667 280 -59z
" />
    <glyph glyph-name="Latin_Capital_Letter_D_with_caron" unicode="&#x10e;" horiz-adv-x="1472" 
d="M406 1930l128 60l216 -174l221 174l120 -57l-242 -263h-197zM680 -16l-381 16h-85v1522h112l360 16c240.667 0 422 -64.667 544 -194c118.667 -124.667 178 -304.667 178 -540c0 -258.667 -66.667 -461.333 -200 -608c-129.333 -141.333 -305.333 -212 -528 -212z
M1039 1242.5c0 0 -11.333 11.917 -34 35.75s-67.833 46.25 -135.5 67.25s-144 31.5 -229 31.5s-152.5 -5.33301 -202.5 -16v-1193c52.667 -12.667 139 -19 259 -19c228 4.66701 375.667 118.333 443 341c24 78 36 172.5 36 283.5s-11.5 205 -34.5 282
s-57.167 139.333 -102.5 187z" />
    <glyph glyph-name="Latin_Small_Letter_D_with_caron" unicode="&#x10f;" horiz-adv-x="1648" 
d="M883 112c-85.333 -85.333 -191 -128 -317 -128c-127.333 0 -232 44.667 -314 134c-90 97.333 -135 234 -135 410c0 186 52 336.667 156 452c105.333 117.333 243.667 176 415 176c66 0 128 -9.66699 186 -29l-3 62v475h220v-1680h-95c-39.333 0 -65.333 4 -78 12
c-23.333 14 -35 39.333 -35 76v40zM871 946c-38 33.333 -106.333 50 -205 50c-94.667 0 -171.333 -37.333 -230 -112c-63.333 -80.667 -95 -190 -95 -328c0 -266 95.333 -399 286 -399c84 0 165.333 30.667 244 92v697zM1503 1687c41.333 -38.667 62 -119 62 -241
c0 -125.333 -26.667 -238.667 -80 -340c-15.333 -28.667 -31 -52.667 -47 -72l-110 34l-8 28c5.33301 18.667 10.833 36.5 16.5 53.5s10.833 35.833 15.5 56.5c10.667 48 16 94.5 16 139.5s-1.66699 77.667 -5 98s-7.66699 39.833 -13 58.5c-10.667 36 -23 63.667 -37 83
l14 47z" />
    <glyph glyph-name="Latin_Capital_Letter_D_with_stroke" unicode="&#x110;" horiz-adv-x="1472" 
d="M680 -16l-381 16h-85v720h-128v149h128v653h112l360 16c240.667 0 422 -64.667 544 -194c118.667 -124.667 178 -304.667 178 -540c0 -258.667 -66.667 -461.333 -200 -608c-129.333 -141.333 -305.333 -212 -528 -212zM1039 1242.5c0 0 -11.333 11.917 -34 35.75
s-67.833 46.25 -135.5 67.25s-144 31.5 -229 31.5s-152.5 -5.33301 -202.5 -16v-492h394v-149h-394v-552c52.667 -12.667 139 -19 259 -19c228 4.66701 375.667 118.333 443 341c24 78 36 172.5 36 283.5s-11.5 205 -34.5 282s-57.167 139.333 -102.5 187z" />
    <glyph glyph-name="Latin_Small_Letter_D_with_stroke" unicode="&#x111;" horiz-adv-x="1237" 
d="M883 112c-85.333 -85.333 -191 -128 -317 -128c-127.333 0 -232 44.667 -314 134c-90 97.333 -135 234 -135 410c0 186 52 336.667 156 452c105.333 117.333 243.667 176 415 176c66 0 128 -9.66699 186 -29l-3 62v117h-270v141h270v217h220v-217h141v-141h-141v-1322
h-95c-39.333 0 -65.333 4 -78 12c-23.333 14 -35 39.333 -35 76v40zM871 946c-38 33.333 -106.333 50 -205 50c-94.667 0 -171.333 -37.333 -230 -112c-63.333 -80.667 -95 -190 -95 -328c0 -266 95.333 -399 286 -399c84 0 165.333 30.667 244 92v697z" />
    <glyph glyph-name="Latin_Capital_Letter_E_with_macron" unicode="&#x112;" 
d="M429 1891h547v-162h-547v162zM214 1522h876v-172h-653v-480h479v-172h-479v-523h726v-175h-949v1522z" />
    <glyph glyph-name="Latin_Small_Letter_E_with_macron" unicode="&#x113;" horiz-adv-x="1123" 
d="M332 522c10 -197.333 82.667 -315.333 218 -354c40.667 -12 77.333 -18 110 -18s62.5 1.66701 89.5 5s53.833 7.66701 80.5 13c62 13.333 107 28 135 44l42 -126c-55.333 -45.333 -148 -76.667 -278 -94c-37.333 -5.333 -73 -8 -107 -8c-161.333 0 -286 52 -374 156
c-87.333 102.667 -131 246.667 -131 432c0 171.333 43 309.333 129 414c93.333 113.333 222 170 386 170c116.667 0 212 -35.333 286 -106c81.333 -79.333 124 -187.333 128 -324c0 -101.333 -3.66699 -169.333 -11 -204h-703zM841 712c0 192 -75.667 288 -227 288
c-160.667 0 -253 -110.667 -277 -332h503c0.666992 14.667 1 29.333 1 44zM345 1588h547v-163h-547v163z" />
    <glyph glyph-name="Latin_Capital_Letter_E_with_breve" unicode="&#x114;" 
d="M960 1733.5l-22.5 -23.25s-44.667 -32.417 -89 -50.75s-94.667 -27.5 -151 -27.5s-106.5 9.33301 -150.5 28c-89.333 36.667 -147.667 97 -175 181c-10 31.333 -15 58 -15 80s0.333008 38.333 1 49h153c0 -79.333 36.333 -130.667 109 -154
c21.333 -7.33301 47.833 -11 79.5 -11s58.5 3.5 80.5 10.5s40.167 16 54.5 27s25.333 23 33 36s13.5 25.5 17.5 37.5c5.33301 19.333 8 37.333 8 54h149c0.666992 -10 1 -26 1 -48s-6.33301 -51.167 -19 -87.5s-34 -70 -64 -101zM214 1522h876v-172h-653v-480h479v-172h-479
v-523h726v-175h-949v1522z" />
    <glyph glyph-name="Latin_Small_Letter_E_with_breve" unicode="&#x115;" horiz-adv-x="1123" 
d="M332 522c10 -197.333 82.667 -315.333 218 -354c40.667 -12 77.333 -18 110 -18s62.5 1.66701 89.5 5s53.833 7.66701 80.5 13c62 13.333 107 28 135 44l42 -126c-55.333 -45.333 -148 -76.667 -278 -94c-37.333 -5.333 -73 -8 -107 -8c-161.333 0 -286 52 -374 156
c-87.333 102.667 -131 246.667 -131 432c0 171.333 43 309.333 129 414c93.333 113.333 222 170 386 170c116.667 0 212 -35.333 286 -106c81.333 -79.333 124 -187.333 128 -324c0 -101.333 -3.66699 -169.333 -11 -204h-703zM841 712c0 192 -75.667 288 -227 288
c-160.667 0 -253 -110.667 -277 -332h503c0.666992 14.667 1 29.333 1 44zM876.5 1425l-22.75 -26.5s-44.917 -37.167 -89.25 -58.5s-94.333 -32 -150 -32s-105.5 10.667 -149.5 32c-88 42 -146.667 110.667 -176 206c-10.667 35.333 -16 64.667 -16 88
s0.333008 40.333 1 51h154c0 -97.333 36.333 -161 109 -191c22 -9.33301 48.833 -14 80.5 -14s58.5 4.5 80.5 13.5s40 20.333 54 34s24.833 28.667 32.5 45s13.5 32.167 17.5 47.5c5.33301 20.667 8 42.333 8 65h150c0.666992 -10 1 -26.833 1 -50.5s-6.5 -55.667 -19.5 -96
s-34.667 -78.167 -65 -113.5z" />
    <glyph glyph-name="Latin_Capital_Letter_E_with_dot_above" unicode="&#x116;" 
d="M802 1711.5l-11 -10.25s-20.667 -13.917 -40 -21.25s-38.833 -11 -58.5 -11s-38 3 -55 9s-31.833 14.667 -44.5 26c-27.333 25.333 -41 53.5 -41 84.5s4.66699 55.833 14 74.5s21.333 35 36 49c32.667 29.333 65.167 44 97.5 44s57.167 -3.33301 74.5 -10
s31.667 -16 43 -28c22.667 -24 34 -51.667 34 -83s-4.5 -56.333 -13.5 -75s-20.833 -34.833 -35.5 -48.5zM214 1522h876v-172h-653v-480h479v-172h-479v-523h726v-175h-949v1522z" />
    <glyph glyph-name="Latin_Small_Letter_E_with_dot_above" unicode="&#x117;" horiz-adv-x="1123" 
d="M332 522c10 -197.333 82.667 -315.333 218 -354c40.667 -12 77.333 -18 110 -18s62.5 1.66701 89.5 5s53.833 7.66701 80.5 13c62 13.333 107 28 135 44l42 -126c-55.333 -45.333 -148 -76.667 -278 -94c-37.333 -5.333 -73 -8 -107 -8c-161.333 0 -286 52 -374 156
c-87.333 102.667 -131 246.667 -131 432c0 171.333 43 309.333 129 414c93.333 113.333 222 170 386 170c116.667 0 212 -35.333 286 -106c81.333 -79.333 124 -187.333 128 -324c0 -101.333 -3.66699 -169.333 -11 -204h-703zM841 712c0 192 -75.667 288 -227 288
c-160.667 0 -253 -110.667 -277 -332h503c0.666992 14.667 1 29.333 1 44zM718.5 1390.5c0 0 -3.75 -3.41699 -11.25 -10.25s-21.083 -14.083 -40.75 -21.75s-39.333 -11.5 -59 -11.5s-38 3.16699 -55 9.5s-32.167 15.5 -45.5 27.5c-28 25.333 -42 53.5 -42 84.5
s4.66699 56 14 75s21.667 35.5 37 49.5c32.667 30 65.333 45 98 45s57.833 -3.5 75.5 -10.5s32.167 -16.833 43.5 -29.5c23.333 -24 35 -51.667 35 -83s-4.5 -56.5 -13.5 -75.5s-21 -35.333 -36 -49z" />
    <glyph glyph-name="Latin_Capital_Letter_E_with_ogonek" unicode="&#x118;" 
d="M1160 -453c-51.333 -39.333 -130.333 -59 -237 -59c-114.667 0 -190.333 37 -227 111c-12.667 26.667 -19 56.5 -19 89.5s6.66699 64.667 20 95s32 59.167 56 86.5c49.333 55.333 111.667 98.667 187 130h-726v1522h876v-172h-653v-480h479v-172h-479v-523h726v-175h-50
c-100 -56.667 -167.667 -120 -203 -190c-11.333 -22 -17 -43.667 -17 -65c0 -72.667 42.667 -109 128 -109c43.333 0 89.667 9.66699 139 29v-118z" />
    <glyph glyph-name="Latin_Small_Letter_E_with_ogonek" unicode="&#x119;" horiz-adv-x="1123" 
d="M732 -8c-38.667 -5.333 -75.333 -8 -110 -8c-161.333 0 -286 52 -374 156c-87.333 102.667 -131 246.667 -131 432c0 171.333 43 309.333 129 414c93.333 113.333 222 170 386 170c116.667 0 212 -35.333 286 -106c81.333 -79.333 124 -187.333 128 -324
c0 -101.333 -3.66699 -169.333 -11 -204h-703c10 -197.333 82.667 -315.333 218 -354c40.667 -12 77.333 -18 110 -18s62.5 1.66701 89.5 5s53.833 7.66701 80.5 13c62 13.333 107 28 135 44l42 -126l-16 -12h1c-68 -42.667 -125.333 -97.333 -172 -164
c-43.333 -61.333 -65 -116.333 -65 -165c0 -72.667 42.667 -109 128 -109c43.333 0 89.667 9.66699 139 29v-118c-51.333 -39.333 -130.333 -59 -237 -59c-113.333 0 -189 40 -227 120c-12.667 26 -19.167 53.5 -19.5 82.5s4.33301 57.167 14 84.5s23.167 54.333 40.5 81
c37.333 58 83.667 103.333 139 136zM841 712c0 192 -75.667 288 -227 288c-160.667 0 -253 -110.667 -277 -332h503c0.666992 14.667 1 29.333 1 44z" />
    <glyph glyph-name="Latin_Capital_Letter_E_with_caron" unicode="&#x11a;" 
d="M357 1930l128 60l216 -174l221 174l120 -57l-242 -263h-197zM214 1522h876v-172h-653v-480h479v-172h-479v-523h726v-175h-949v1522z" />
    <glyph glyph-name="Latin_Small_Letter_E_with_caron" unicode="&#x11b;" horiz-adv-x="1123" 
d="M245 1654l126 56l249 -223l232 222l135 -56l-268 -332h-198zM332 522c10 -197.333 82.667 -315.333 218 -354c40.667 -12 77.333 -18 110 -18s62.5 1.66701 89.5 5s53.833 7.66701 80.5 13c62 13.333 107 28 135 44l42 -126c-55.333 -45.333 -148 -76.667 -278 -94
c-37.333 -5.333 -73 -8 -107 -8c-161.333 0 -286 52 -374 156c-87.333 102.667 -131 246.667 -131 432c0 171.333 43 309.333 129 414c93.333 113.333 222 170 386 170c116.667 0 212 -35.333 286 -106c81.333 -79.333 124 -187.333 128 -324
c0 -101.333 -3.66699 -169.333 -11 -204h-703zM841 712c0 192 -75.667 288 -227 288c-160.667 0 -253 -110.667 -277 -332h503c0.666992 14.667 1 29.333 1 44z" />
    <glyph glyph-name="Latin_Capital_Letter_G_with_circumflex" unicode="&#x11c;" horiz-adv-x="1433" 
d="M1240 1278c-108.667 57.333 -252 86 -430 86c-135.333 0 -245.333 -51.333 -330 -154c-86.667 -106 -130 -249.333 -130 -430c0 -185.333 38.333 -333.667 115 -445c83.333 -120.667 202 -181 356 -181c94 0 175.667 10.667 245 32c22.667 6.66701 41.333 15 56 25v377
l-277 13v160h492v-667c-22 -1.333 -46.667 -7.833 -74 -19.5s-60.667 -24.167 -100 -37.5c-104 -35.333 -214.667 -53 -332 -53s-219.667 19.5 -307 58.5s-161 92.833 -221 161.5c-122.667 139.333 -184 322.333 -184 549c0 251.333 68.333 447.333 205 588
c127.333 131.333 294 197 500 197c98 0 171.667 -4.83301 221 -14.5s87.5 -18 114.5 -25s57.167 -13.833 90.5 -20.5zM469 1689l259 301h197l262 -298l-144 -60l-216 202l-221 -202z" />
    <glyph glyph-name="Latin_Small_Letter_G_with_circumflex" unicode="&#x11d;" 
d="M243 1349l276 333h198l268 -332l-135 -56l-232 222l-249 -223zM466 397c-42.667 -30.667 -64 -68.667 -64 -114c0 -42.667 7.33301 -70 22 -82c23.333 -18.667 59.333 -28 108 -28h207c158.667 0 272 -33.333 340 -100c53.333 -52 80 -124.667 80 -218
c0 -111.333 -54.333 -202.333 -163 -273c-103.333 -66 -233.667 -99 -391 -99c-228 0 -375 62.333 -441 187c-22.667 42 -34 84.5 -34 127.5s4.83299 76.5 14.5 100.5s22.167 46 37.5 66c26.667 34 62.333 63.333 107 88c-58.667 33.333 -88 90.333 -88 171
c1.33299 38 14 76.5 38 115.5s58 73.5 102 103.5c-60.667 32 -108.667 75.333 -144 130s-53 116.667 -53 186s11.5 128.333 34.5 177s54.833 89 95.5 121c82.667 66.667 195 100 337 100c104.667 0 195.333 -23 272 -69c60.667 40.667 131.667 61 213 61h111v-175h-209
c34 -58 51 -121.333 51 -190s-11.833 -127.333 -35.5 -176s-56.167 -89.667 -97.5 -123c-82.667 -66.667 -191.333 -100 -326 -100c-45.333 0 -86.667 4.33301 -124 13zM830 767c0 160 -75 240 -225 240c-113.333 0 -187.333 -39 -222 -117
c-13.333 -30.667 -20 -66 -20 -106s4.33301 -74.5 13 -103.5s22.333 -54.5 41 -76.5c40.667 -48.667 100 -73 178 -73c117.333 0 190.333 41 219 123c10.667 30 16 67.667 16 113zM417 7c-48.667 -42 -73 -96 -73 -162c0 -106 48.333 -171.667 145 -197
c34 -9.33301 74.333 -14 121 -14s90.167 3.66699 130.5 11s76.167 18.333 107.5 33c67.333 30.667 101 73.667 101 129c0 66.667 -18.333 114.333 -55 143c-42.667 33.333 -118.333 50 -227 50h-102c-70 0 -119.333 2.333 -148 7z" />
    <glyph glyph-name="Latin_Capital_Letter_G_with_breve" unicode="&#x11e;" horiz-adv-x="1433" 
d="M1087 1733.5l-22.5 -23.25s-44.667 -32.417 -89 -50.75s-94.667 -27.5 -151 -27.5s-106.5 9.33301 -150.5 28c-89.333 36.667 -147.667 97 -175 181c-10 31.333 -15 58 -15 80s0.333008 38.333 1 49h153c0 -79.333 36.333 -130.667 109 -154
c21.333 -7.33301 47.833 -11 79.5 -11s58.5 3.5 80.5 10.5s40.167 16 54.5 27s25.333 23 33 36s13.5 25.5 17.5 37.5c5.33301 19.333 8 37.333 8 54h149c0.666992 -10 1 -26 1 -48s-6.33301 -51.167 -19 -87.5s-34 -70 -64 -101zM1240 1278c-108.667 57.333 -252 86 -430 86
c-135.333 0 -245.333 -51.333 -330 -154c-86.667 -106 -130 -249.333 -130 -430c0 -185.333 38.333 -333.667 115 -445c83.333 -120.667 202 -181 356 -181c94 0 175.667 10.667 245 32c22.667 6.66701 41.333 15 56 25v377l-277 13v160h492v-667
c-22 -1.333 -46.667 -7.833 -74 -19.5s-60.667 -24.167 -100 -37.5c-104 -35.333 -214.667 -53 -332 -53s-219.667 19.5 -307 58.5s-161 92.833 -221 161.5c-122.667 139.333 -184 322.333 -184 549c0 251.333 68.333 447.333 205 588c127.333 131.333 294 197 500 197
c98 0 171.667 -4.83301 221 -14.5s87.5 -18 114.5 -25s57.167 -13.833 90.5 -20.5z" />
    <glyph glyph-name="Latin_Small_Letter_G_with_breve" unicode="&#x11f;" 
d="M466 397c-42.667 -30.667 -64 -68.667 -64 -114c0 -42.667 7.33301 -70 22 -82c23.333 -18.667 59.333 -28 108 -28h207c158.667 0 272 -33.333 340 -100c53.333 -52 80 -124.667 80 -218c0 -111.333 -54.333 -202.333 -163 -273c-103.333 -66 -233.667 -99 -391 -99
c-228 0 -375 62.333 -441 187c-22.667 42 -34 84.5 -34 127.5s4.83299 76.5 14.5 100.5s22.167 46 37.5 66c26.667 34 62.333 63.333 107 88c-58.667 33.333 -88 90.333 -88 171c1.33299 38 14 76.5 38 115.5s58 73.5 102 103.5c-60.667 32 -108.667 75.333 -144 130
s-53 116.667 -53 186s11.5 128.333 34.5 177s54.833 89 95.5 121c82.667 66.667 195 100 337 100c104.667 0 195.333 -23 272 -69c60.667 40.667 131.667 61 213 61h111v-175h-209c34 -58 51 -121.333 51 -190s-11.833 -127.333 -35.5 -176s-56.167 -89.667 -97.5 -123
c-82.667 -66.667 -191.333 -100 -326 -100c-45.333 0 -86.667 4.33301 -124 13zM830 767c0 160 -75 240 -225 240c-113.333 0 -187.333 -39 -222 -117c-13.333 -30.667 -20 -66 -20 -106s4.33301 -74.5 13 -103.5s22.333 -54.5 41 -76.5c40.667 -48.667 100 -73 178 -73
c117.333 0 190.333 41 219 123c10.667 30 16 67.667 16 113zM417 7c-48.667 -42 -73 -96 -73 -162c0 -106 48.333 -171.667 145 -197c34 -9.33301 74.333 -14 121 -14s90.167 3.66699 130.5 11s76.167 18.333 107.5 33c67.333 30.667 101 73.667 101 129
c0 66.667 -18.333 114.333 -55 143c-42.667 33.333 -118.333 50 -227 50h-102c-70 0 -119.333 2.333 -148 7zM876.5 1425l-22.75 -26.5s-44.917 -37.167 -89.25 -58.5s-94.333 -32 -150 -32s-105.5 10.667 -149.5 32c-88 42 -146.667 110.667 -176 206
c-10.667 35.333 -16 64.667 -16 88s0.333008 40.333 1 51h154c0 -97.333 36.333 -161 109 -191c22 -9.33301 48.833 -14 80.5 -14s58.5 4.5 80.5 13.5s40 20.333 54 34s24.833 28.667 32.5 45s13.5 32.167 17.5 47.5c5.33301 20.667 8 42.333 8 65h150
c0.666992 -10 1 -26.833 1 -50.5s-6.5 -55.667 -19.5 -96s-34.667 -78.167 -65 -113.5z" />
    <glyph glyph-name="Latin_Capital_Letter_G_with_dot_above" unicode="&#x120;" horiz-adv-x="1433" 
d="M929 1711.5l-11 -10.25s-20.667 -13.917 -40 -21.25s-38.833 -11 -58.5 -11s-38 3 -55 9s-31.833 14.667 -44.5 26c-27.333 25.333 -41 53.5 -41 84.5s4.66699 55.833 14 74.5s21.333 35 36 49c32.667 29.333 65.167 44 97.5 44s57.167 -3.33301 74.5 -10
s31.667 -16 43 -28c22.667 -24 34 -51.667 34 -83s-4.5 -56.333 -13.5 -75s-20.833 -34.833 -35.5 -48.5zM1240 1278c-108.667 57.333 -252 86 -430 86c-135.333 0 -245.333 -51.333 -330 -154c-86.667 -106 -130 -249.333 -130 -430c0 -185.333 38.333 -333.667 115 -445
c83.333 -120.667 202 -181 356 -181c94 0 175.667 10.667 245 32c22.667 6.66701 41.333 15 56 25v377l-277 13v160h492v-667c-22 -1.333 -46.667 -7.833 -74 -19.5s-60.667 -24.167 -100 -37.5c-104 -35.333 -214.667 -53 -332 -53s-219.667 19.5 -307 58.5
s-161 92.833 -221 161.5c-122.667 139.333 -184 322.333 -184 549c0 251.333 68.333 447.333 205 588c127.333 131.333 294 197 500 197c98 0 171.667 -4.83301 221 -14.5s87.5 -18 114.5 -25s57.167 -13.833 90.5 -20.5z" />
    <glyph glyph-name="Latin_Small_Letter_G_with_dot_above" unicode="&#x121;" 
d="M466 397c-42.667 -30.667 -64 -68.667 -64 -114c0 -42.667 7.33301 -70 22 -82c23.333 -18.667 59.333 -28 108 -28h207c158.667 0 272 -33.333 340 -100c53.333 -52 80 -124.667 80 -218c0 -111.333 -54.333 -202.333 -163 -273c-103.333 -66 -233.667 -99 -391 -99
c-228 0 -375 62.333 -441 187c-22.667 42 -34 84.5 -34 127.5s4.83299 76.5 14.5 100.5s22.167 46 37.5 66c26.667 34 62.333 63.333 107 88c-58.667 33.333 -88 90.333 -88 171c1.33299 38 14 76.5 38 115.5s58 73.5 102 103.5c-60.667 32 -108.667 75.333 -144 130
s-53 116.667 -53 186s11.5 128.333 34.5 177s54.833 89 95.5 121c82.667 66.667 195 100 337 100c104.667 0 195.333 -23 272 -69c60.667 40.667 131.667 61 213 61h111v-175h-209c34 -58 51 -121.333 51 -190s-11.833 -127.333 -35.5 -176s-56.167 -89.667 -97.5 -123
c-82.667 -66.667 -191.333 -100 -326 -100c-45.333 0 -86.667 4.33301 -124 13zM830 767c0 160 -75 240 -225 240c-113.333 0 -187.333 -39 -222 -117c-13.333 -30.667 -20 -66 -20 -106s4.33301 -74.5 13 -103.5s22.333 -54.5 41 -76.5c40.667 -48.667 100 -73 178 -73
c117.333 0 190.333 41 219 123c10.667 30 16 67.667 16 113zM417 7c-48.667 -42 -73 -96 -73 -162c0 -106 48.333 -171.667 145 -197c34 -9.33301 74.333 -14 121 -14s90.167 3.66699 130.5 11s76.167 18.333 107.5 33c67.333 30.667 101 73.667 101 129
c0 66.667 -18.333 114.333 -55 143c-42.667 33.333 -118.333 50 -227 50h-102c-70 0 -119.333 2.333 -148 7zM718.5 1390.5c0 0 -3.75 -3.41699 -11.25 -10.25s-21.083 -14.083 -40.75 -21.75s-39.333 -11.5 -59 -11.5s-38 3.16699 -55 9.5s-32.167 15.5 -45.5 27.5
c-28 25.333 -42 53.5 -42 84.5s4.66699 56 14 75s21.667 35.5 37 49.5c32.667 30 65.333 45 98 45s57.833 -3.5 75.5 -10.5s32.167 -16.833 43.5 -29.5c23.333 -24 35 -51.667 35 -83s-4.5 -56.5 -13.5 -75.5s-21 -35.333 -36 -49z" />
    <glyph glyph-name="Latin_Capital_Letter_G_with_cedilla" unicode="&#x122;" horiz-adv-x="1433" 
d="M737 -493c26 31.333 39 79.667 39 145c0 44.667 -13 80.667 -39 108c-8.66699 8.66701 -18 14 -28 16v50l158 92c42 -21.333 71.333 -66.333 88 -135c6 -23.333 9 -50.667 9 -82s-5 -61.667 -15 -91s-22.667 -55.333 -38 -78c-28.667 -45.333 -61.667 -76 -99 -92l-75 41
v26zM1240 1278c-108.667 57.333 -252 86 -430 86c-135.333 0 -245.333 -51.333 -330 -154c-86.667 -106 -130 -249.333 -130 -430c0 -185.333 38.333 -333.667 115 -445c83.333 -120.667 202 -181 356 -181c94 0 175.667 10.667 245 32c22.667 6.66701 41.333 15 56 25v377
l-277 13v160h492v-667c-22 -1.333 -46.667 -7.833 -74 -19.5s-60.667 -24.167 -100 -37.5c-104 -35.333 -214.667 -53 -332 -53s-219.667 19.5 -307 58.5s-161 92.833 -221 161.5c-122.667 139.333 -184 322.333 -184 549c0 251.333 68.333 447.333 205 588
c127.333 131.333 294 197 500 197c98 0 171.667 -4.83301 221 -14.5s87.5 -18 114.5 -25s57.167 -13.833 90.5 -20.5z" />
    <glyph glyph-name="Latin_Small_Letter_G_with_cedilla" unicode="&#x123;" 
d="M718 1735c-26 -31.333 -39 -79.667 -39 -145c0 -44.667 13 -80.667 39 -108c8.66699 -8.66699 18 -14 28 -16v-50l-158 -92c-42 21.333 -71.333 66.333 -88 135c-6 23.333 -9 50.667 -9 82s5 61.667 15 91s22.667 55.333 38 78c27.333 42.667 60.333 73.333 99 92l75 -41
v-26zM466 397c-42.667 -30.667 -64 -68.667 -64 -114c0 -42.667 7.33301 -70 22 -82c23.333 -18.667 59.333 -28 108 -28h207c158.667 0 272 -33.333 340 -100c53.333 -52 80 -124.667 80 -218c0 -111.333 -54.333 -202.333 -163 -273c-103.333 -66 -233.667 -99 -391 -99
c-228 0 -375 62.333 -441 187c-22.667 42 -34 84.5 -34 127.5s4.83299 76.5 14.5 100.5s22.167 46 37.5 66c26.667 34 62.333 63.333 107 88c-58.667 33.333 -88 90.333 -88 171c1.33299 38 14 76.5 38 115.5s58 73.5 102 103.5c-60.667 32 -108.667 75.333 -144 130
s-53 116.667 -53 186s11.5 128.333 34.5 177s54.833 89 95.5 121c82.667 66.667 195 100 337 100c104.667 0 195.333 -23 272 -69c60.667 40.667 131.667 61 213 61h111v-175h-209c34 -58 51 -121.333 51 -190s-11.833 -127.333 -35.5 -176s-56.167 -89.667 -97.5 -123
c-82.667 -66.667 -191.333 -100 -326 -100c-45.333 0 -86.667 4.33301 -124 13zM830 767c0 160 -75 240 -225 240c-113.333 0 -187.333 -39 -222 -117c-13.333 -30.667 -20 -66 -20 -106s4.33301 -74.5 13 -103.5s22.333 -54.5 41 -76.5c40.667 -48.667 100 -73 178 -73
c117.333 0 190.333 41 219 123c10.667 30 16 67.667 16 113zM417 7c-48.667 -42 -73 -96 -73 -162c0 -106 48.333 -171.667 145 -197c34 -9.33301 74.333 -14 121 -14s90.167 3.66699 130.5 11s76.167 18.333 107.5 33c67.333 30.667 101 73.667 101 129
c0 66.667 -18.333 114.333 -55 143c-42.667 33.333 -118.333 50 -227 50h-102c-70 0 -119.333 2.333 -148 7z" />
    <glyph glyph-name="Latin_Capital_Letter_H_with_circumflex" unicode="&#x124;" horiz-adv-x="1552" 
d="M214 1522h223v-667h718v667h223v-1522h-223v683h-718v-683h-223v1522zM438 1689l259 301h197l262 -298l-144 -60l-216 202l-221 -202z" />
    <glyph glyph-name="Latin_Small_Letter_H_with_circumflex" unicode="&#x125;" horiz-adv-x="1289" 
d="M196 1664h220v-475l-10 -162c75.333 54.667 167 93.667 275 117c42.667 8.66699 87.5 13 134.5 13s91.833 -8 134.5 -24s78 -42.667 106 -80c55.333 -72.667 83 -192 83 -358v-695h-220v711c0 97.333 -15 165 -45 203c-31.333 40 -83 60 -155 60
c-73.333 0 -150.333 -20.333 -231 -61c-25.333 -12.667 -49.333 -27.333 -72 -44v-869h-220v1664zM416 1689l259 301h197l262 -298l-144 -60l-216 202l-221 -202z" />
    <glyph glyph-name="Latin_Capital_Letter_H_with_stroke" unicode="&#x126;" horiz-adv-x="1563" 
d="M214 1065h-186v142h186v315h223v-315h729v315h223v-315h189v-142h-189v-1065h-223v674h-729v-674h-223v1065zM1166 845v220h-729v-220h729z" />
    <glyph glyph-name="Latin_Small_Letter_H_with_stroke" unicode="&#x127;" horiz-adv-x="1289" 
d="M196 1284h-140v132h140v248h220v-248h232v-132h-232v-95l-10 -162c75.333 54.667 167 93.667 275 117c42.667 8.66699 87.5 13 134.5 13s91.833 -8 134.5 -24s78 -42.667 106 -80c55.333 -72.667 83 -192 83 -358v-695h-220v711c0 97.333 -15 165 -45 203
c-31.333 40 -83 60 -155 60c-73.333 0 -150.333 -20.333 -231 -61c-25.333 -12.667 -49.333 -27.333 -72 -44v-869h-220v1284z" />
    <glyph glyph-name="Latin_Capital_Letter_I_with_tilde" unicode="&#x128;" horiz-adv-x="640" 
d="M227 1522h226v-1522h-226v1522zM186 1805c-56.667 0 -115 -34 -175 -102l-85 68c23.333 56 63 102.667 119 140c54 36.667 104.5 55 151.5 55s83.333 -7.16699 109 -21.5s48.667 -30.333 69 -48s39.833 -33.667 58.5 -48s40.667 -21.5 66 -21.5c58.667 0 117 33 175 99
l86 -71c-23.333 -56 -63 -102.333 -119 -139c-54.667 -36.667 -108.667 -55 -162 -55c-45.333 0 -81.167 8.83301 -107.5 26.5s-46.167 32.833 -59.5 45.5s-26.333 24.333 -39 35c-29.333 24.667 -58.333 37 -87 37z" />
    <glyph glyph-name="Latin_Small_Letter_I_with_tilde" unicode="&#x129;" horiz-adv-x="606" 
d="M213 1138h220v-1138h-220v1138zM173 1482c-61.333 0 -122.333 -32.333 -183 -97l-85 68c39.333 86 100.333 145.667 183 179c28 10.667 56.167 16 84.5 16s52.667 -3.33301 73 -10c20.333 -6.66699 38.5 -15.167 54.5 -25.5s30.667 -21.333 44 -33
s26.667 -22.833 40 -33.5c29.333 -23.333 58 -35 86 -35c64.667 0 125.667 32.667 183 98l86 -72c-42 -89.333 -103 -148.667 -183 -178c-27.333 -10 -55.833 -15 -85.5 -15s-54.833 3.33301 -75.5 10s-39.167 15.167 -55.5 25.5s-30.833 21.5 -43.5 33.5s-25.333 23 -38 33
c-29.333 24 -57.667 36 -85 36z" />
    <glyph glyph-name="Latin_Capital_Letter_I_with_macron" unicode="&#x12a;" horiz-adv-x="640" 
d="M227 1522h226v-1522h-226v1522zM70 1891h547v-162h-547v162z" />
    <glyph glyph-name="Latin_Small_Letter_I_with_macron" unicode="&#x12b;" horiz-adv-x="606" 
d="M213 1138h220v-1138h-220v1138zM52 1588h547v-163h-547v163z" />
    <glyph glyph-name="Latin_Capital_Letter_I_with_breve" unicode="&#x12c;" horiz-adv-x="640" 
d="M227 1522h226v-1522h-226v1522zM602 1733.5l-22.5 -23.25s-44.667 -32.417 -89 -50.75s-94.667 -27.5 -151 -27.5s-106.5 9.33301 -150.5 28c-89.333 36.667 -147.667 97 -175 181c-10 31.333 -15 58 -15 80s0.333 38.333 1 49h153c0 -79.333 36.333 -130.667 109 -154
c21.333 -7.33301 47.833 -11 79.5 -11s58.5 3.5 80.5 10.5s40.167 16 54.5 27s25.333 23 33 36s13.5 25.5 17.5 37.5c5.33301 19.333 8 37.333 8 54h149c0.666992 -10 1 -26 1 -48s-6.33301 -51.167 -19 -87.5s-34 -70 -64 -101z" />
    <glyph glyph-name="Latin_Small_Letter_I_with_breve" unicode="&#x12d;" horiz-adv-x="606" 
d="M213 1138h220v-1138h-220v1138zM583.5 1425l-22.75 -26.5s-44.917 -37.167 -89.25 -58.5s-94.333 -32 -150 -32s-105.5 10.667 -149.5 32c-88 42 -146.667 110.667 -176 206c-10.667 35.333 -16 64.667 -16 88s0.333 40.333 1 51h154c0 -97.333 36.333 -161 109 -191
c22 -9.33301 48.833 -14 80.5 -14s58.5 4.5 80.5 13.5s40 20.333 54 34s24.833 28.667 32.5 45s13.5 32.167 17.5 47.5c5.33301 20.667 8 42.333 8 65h150c0.666992 -10 1 -26.833 1 -50.5s-6.5 -55.667 -19.5 -96s-34.667 -78.167 -65 -113.5z" />
    <glyph glyph-name="Latin_Capital_Letter_I_with_ogonek" unicode="&#x12e;" horiz-adv-x="640" 
d="M556 -453c-52.667 -39.333 -128.333 -59 -227 -59c-77.333 0 -140.333 19.333 -189 58c-51.333 42 -77 97.667 -77 167c0 52.667 20.333 107 61 163c34 47.333 79.333 88.667 136 124h-33v1522h226v-1522h-25c-99.333 -62.667 -149 -142.667 -149 -240
c0 -82.667 46 -124 138 -124c43.333 0 89.667 9.66699 139 29v-118z" />
    <glyph glyph-name="Latin_Small_Letter_I_with_ogonek" unicode="&#x12f;" horiz-adv-x="606" 
d="M427.5 1390.5c0 0 -3.75 -3.41699 -11.25 -10.25s-21.083 -14.083 -40.75 -21.75s-39.333 -11.5 -59 -11.5s-38 3.16699 -55 9.5s-32.167 15.5 -45.5 27.5c-28 25.333 -42 53.5 -42 84.5s4.66701 56 14 75s21.667 35.5 37 49.5c32.667 30 65.333 45 98 45
s57.833 -3.5 75.5 -10.5s32.167 -16.833 43.5 -29.5c23.333 -24 35 -51.667 35 -83s-4.5 -56.5 -13.5 -75.5s-21 -35.333 -36 -49zM536 -453c-52.667 -39.333 -128.333 -59 -227 -59c-77.333 0 -140.333 19.333 -189 58c-51.333 42 -77 97.667 -77 167
c0 52.667 20.333 107 61 163c34 47.333 79.333 88.667 136 124h-27v1138h220v-1138h-25c-99.333 -62.667 -149 -142.667 -149 -240c0 -82.667 46 -124 138 -124c43.333 0 89.667 9.66699 139 29v-118z" />
    <glyph glyph-name="Latin_Capital_Letter_I_with_dot_above" unicode="&#x130;" horiz-adv-x="640" 
d="M227 1522h226v-1522h-226v1522zM443 1711.5l-11 -10.25s-20.667 -13.917 -40 -21.25s-38.833 -11 -58.5 -11s-38 3 -55 9s-31.833 14.667 -44.5 26c-27.333 25.333 -41 53.5 -41 84.5s4.66701 55.833 14 74.5s21.333 35 36 49c32.667 29.333 65.167 44 97.5 44
s57.167 -3.33301 74.5 -10s31.667 -16 43 -28c22.667 -24 34 -51.667 34 -83s-4.5 -56.333 -13.5 -75s-20.833 -34.833 -35.5 -48.5z" />
    <glyph glyph-name="Latin_Small_Letter_dotless_I" unicode="&#x131;" horiz-adv-x="606" 
d="M213 1138h220v-1138h-220v1138z" />
    <glyph glyph-name="Latin_Capital_Ligature_IJ" unicode="&#x132;" horiz-adv-x="1353" 
d="M227 1522h226v-1522h-226v1522zM1154 613l2 -216c0 -132 -6.33301 -233.167 -19 -303.5c-12.667 -70.333 -35.167 -130.167 -67.5 -179.5c-32.333 -49.333 -69.833 -91.333 -112.5 -126c-80 -64 -170.333 -104 -271 -120l-68 117c99.333 34.667 176.667 93.333 232 176
c33.333 50.667 54.667 121 64 211c9.33301 83.333 14 228.667 14 436v914h226v-909z" />
    <glyph glyph-name="Latin_Small_Ligature_IJ" unicode="&#x133;" horiz-adv-x="1180" 
d="M547 -331c29.333 -14.667 63.667 -22 103 -22s69 6.5 89 19.5s35.667 32.167 47 57.5c22 48 33 124 33 228v1186h220v-1101c0 -282.667 -67.333 -454.333 -202 -515c-44 -19.333 -99 -29 -165 -29s-107.667 4.33301 -125 13v163zM213 1138h220v-1138h-220v1138z
M428.5 1390.5c0 0 -3.75 -3.41699 -11.25 -10.25s-21.083 -14.083 -40.75 -21.75s-39.333 -11.5 -59 -11.5s-38 3.16699 -55 9.5s-32.167 15.5 -45.5 27.5c-28 25.333 -42 53.5 -42 84.5s4.66701 56 14 75s21.667 35.5 37 49.5c32.667 30 65.333 45 98 45
s57.833 -3.5 75.5 -10.5s32.167 -16.833 43.5 -29.5c23.333 -24 35 -51.667 35 -83s-4.5 -56.5 -13.5 -75.5s-21 -35.333 -36 -49zM1031.5 1390.5c0 0 -3.75 -3.41699 -11.25 -10.25s-21.083 -14.083 -40.75 -21.75s-39.333 -11.5 -59 -11.5s-38 3.16699 -55 9.5
s-32.167 15.5 -45.5 27.5c-28 25.333 -42 53.5 -42 84.5s4.66699 56 14 75s21.667 35.5 37 49.5c32.667 30 65.333 45 98 45s57.833 -3.5 75.5 -10.5s32.167 -16.833 43.5 -29.5c23.333 -24 35 -51.667 35 -83s-4.5 -56.5 -13.5 -75.5s-21 -35.333 -36 -49z" />
    <glyph glyph-name="Latin_Capital_Letter_J_with_circumflex" unicode="&#x134;" horiz-adv-x="713" 
d="M514 613l2 -216c0 -132 -6.33301 -233.167 -19 -303.5c-12.667 -70.333 -35.167 -130.167 -67.5 -179.5c-32.333 -49.333 -69.833 -91.333 -112.5 -126c-80 -64 -170.333 -104 -271 -120l-68 117c99.333 34.667 176.667 93.333 232 176c33.333 50.667 54.667 121 64 211
c9.33301 83.333 14 228.667 14 436v914h226v-909zM39 1689l259 301h197l262 -298l-144 -60l-216 202l-221 -202z" />
    <glyph glyph-name="Latin_Small_Letter_J_with_circumflex" unicode="&#x135;" horiz-adv-x="574" 
d="M-59 -331c29.333 -14.667 63.667 -22 103 -22s69 6.5 89 19.5s35.667 32.167 47 57.5c22 48 33 124 33 228v1186h220v-1101c0 -282.667 -67.333 -454.333 -202 -515c-44 -19.333 -99 -29 -165 -29s-107.667 4.33301 -125 13v163zM-46 1349l276 333h198l268 -332l-135 -56
l-232 222l-249 -223z" />
    <glyph glyph-name="Latin_Capital_Letter_K_with_cedilla" unicode="&#x136;" horiz-adv-x="1371" 
d="M625 -493c26 31.333 39 79.667 39 145c0 44.667 -13 80.667 -39 108c-8.66699 8.66701 -18 14 -28 16v50l158 92c42 -21.333 71.333 -66.333 88 -135c6 -23.333 9 -50.667 9 -82s-5 -61.667 -15 -91s-22.667 -55.333 -38 -78c-28.667 -45.333 -61.667 -76 -99 -92l-75 41
v26zM214 1522h223v-764l603 764h263l-539 -656c28 -46.667 82.833 -130 164.5 -250s138.167 -203.333 169.5 -250c74 -112.667 127 -198 159 -256l65 -110h-257c-7.33301 10 -14.333 22 -21 36l-18 37c-40.667 80.667 -110.5 194.5 -209.5 341.5s-162.5 242.5 -190.5 286.5
l-189 -220v-481h-223v1522z" />
    <glyph glyph-name="Latin_Small_Letter_K_with_cedilla" unicode="&#x137;" horiz-adv-x="1163" 
d="M541 -493c26 31.333 39 79.667 39 145c0 44.667 -13 80.667 -39 108c-8.66699 8.66701 -18 14 -28 16v50l158 92c42 -21.333 71.333 -66.333 88 -135c6 -23.333 9 -50.667 9 -82s-5 -61.667 -15 -91s-22.667 -55.333 -38 -78c-28.667 -45.333 -61.667 -76 -99 -92l-75 41
v26zM188 1661h220v-910l-4 -112l455 501h259l-430 -449l483 -691h-250l-377 541l-141 -147l5 -171v-223h-220v1661z" />
    <glyph glyph-name="Latin_Small_Letter_Kra" unicode="&#x138;" horiz-adv-x="1169" 
d="M201 1140h220v-481l-3 -80l480 561h251l-439 -482l478 -658h-251l-367 504l-152 -168l6 -146v-190h-220z" />
    <glyph glyph-name="Latin_Capital_Letter_L_with_acute" unicode="&#x139;" horiz-adv-x="1080" 
d="M198 1665c1.33299 0.666992 10.5 8.83301 27.5 24.5s38.167 34.667 63.5 57s52.5 46.667 81.5 73s56.167 51.167 81.5 74.5c58 53.333 87.667 82 89 86l146 -133c-79.333 -82 -179 -157.667 -299 -227c-36 -21.333 -68.333 -37 -97 -47zM214 1522h228v-1347h604v-175
h-832v1522z" />
    <glyph glyph-name="Latin_Small_Letter_L_with_acute" unicode="&#x13a;" horiz-adv-x="631" 
d="M217 1532h220v-1532h-220v1532zM204 1665c1.33299 0.666992 10.5 8.83301 27.5 24.5s38.167 34.667 63.5 57s52.5 46.667 81.5 73s56.167 51.167 81.5 74.5c58 53.333 87.667 82 89 86l146 -133c-79.333 -82 -179 -157.667 -299 -227c-36 -21.333 -68.333 -37 -97 -47z
" />
    <glyph glyph-name="Latin_Capital_Letter_L_with_cedilla" unicode="&#x13b;" horiz-adv-x="1080" 
d="M536 -493c26 31.333 39 79.667 39 145c0 44.667 -13 80.667 -39 108c-8.66699 8.66701 -18 14 -28 16v50l158 92c42 -21.333 71.333 -66.333 88 -135c6 -23.333 9 -50.667 9 -82s-5 -61.667 -15 -91s-22.667 -55.333 -38 -78c-28.667 -45.333 -61.667 -76 -99 -92l-75 41
v26zM214 1522h228v-1347h604v-175h-832v1522z" />
    <glyph glyph-name="Latin_Small_Letter_L_with_cedilla" unicode="&#x13c;" horiz-adv-x="613" 
d="M222 -493c26 31.333 39 79.667 39 145c0 44.667 -13 80.667 -39 108c-8.66701 8.66701 -18 14 -28 16v50l158 92c42 -21.333 71.333 -66.333 88 -135c6 -23.333 9 -50.667 9 -82s-5 -61.667 -15 -91s-22.667 -55.333 -38 -78c-28.667 -45.333 -61.667 -76 -99 -92l-75 41
v26zM217 1664h220v-1664h-220v1664z" />
    <glyph glyph-name="Latin_Capital_Letter_L_with_caron" unicode="&#x13d;" horiz-adv-x="1080" 
d="M214 1522h228v-1347h604v-175h-832v1522zM931 1687c41.333 -38.667 62 -119 62 -241c0 -125.333 -26.667 -238.667 -80 -340c-15.333 -28.667 -31 -52.667 -47 -72l-110 34l-8 28c5.33301 18.667 10.833 36.5 16.5 53.5s10.833 35.833 15.5 56.5
c10.667 48 16 94.5 16 139.5s-1.66699 77.667 -5 98s-7.66699 39.833 -13 58.5c-10.667 36 -23 63.667 -37 83l14 47z" />
    <glyph glyph-name="Latin_Small_Letter_L_with_caron" unicode="&#x13e;" horiz-adv-x="790" 
d="M217 1664h220v-1664h-220v1664zM773 1687c41.333 -38.667 62 -119 62 -241c0 -125.333 -26.667 -238.667 -80 -340c-15.333 -28.667 -31 -52.667 -47 -72l-110 34l-8 28c5.33301 18.667 10.833 36.5 16.5 53.5s10.833 35.833 15.5 56.5c10.667 48 16 94.5 16 139.5
s-1.66699 77.667 -5 98s-7.66699 39.833 -13 58.5c-10.667 36 -23 63.667 -37 83l14 47z" />
    <glyph glyph-name="Latin_Capital_Letter_L_with_middle_dot" unicode="&#x13f;" horiz-adv-x="1357" 
d="M971 727c-13.333 13.333 -24.333 29.667 -33 49s-13 40.5 -13 63.5s4.33301 44.667 13 65s20.667 38.167 36 53.5c32.667 34.667 65.5 52 98.5 52s58.5 -4 76.5 -12s33 -19 45 -33c26 -29.333 39 -60.833 39 -94.5s-4.16699 -60.833 -12.5 -81.5s-19.833 -39 -34.5 -55
c-32.667 -33.333 -71 -50 -115 -50c-38 0 -71.333 14.333 -100 43zM214 1522h228v-1347h604v-175h-832v1522z" />
    <glyph glyph-name="Latin_Small_Letter_L_with_middle_dot" unicode="&#x140;" horiz-adv-x="1026" 
d="M217 1664h220v-1664h-220v1664zM738 732c-13.333 13.333 -24.333 29.667 -33 49s-13 40.5 -13 63.5s4.33301 44.667 13 65s20.667 38.167 36 53.5c32.667 34.667 65.5 52 98.5 52s58.5 -4 76.5 -12s33 -19 45 -33c26 -29.333 39 -60.833 39 -94.5
s-4.16699 -60.833 -12.5 -81.5s-19.833 -39 -34.5 -55c-32.667 -33.333 -71 -50 -115 -50c-38 0 -71.333 14.333 -100 43z" />
    <glyph glyph-name="Latin_Capital_Letter_L_with_stroke" unicode="&#x141;" horiz-adv-x="1080" 
d="M214 613l-123 -45l-53 136l176 65v753h228v-669l390 144l53 -138l-443 -163v-521h604v-175h-832v613z" />
    <glyph glyph-name="Latin_Small_Letter_L_with_stroke" unicode="&#x142;" horiz-adv-x="613" 
d="M217 749l-147 -56v151l147 59v761h220v-673l199 80v-161l-199 -76v-834h-220v749z" />
    <glyph glyph-name="Latin_Capital_Letter_N_with_acute" unicode="&#x143;" horiz-adv-x="1556" 
d="M684 1665c1.33301 0.666992 10.5 8.83301 27.5 24.5s38.167 34.667 63.5 57s52.5 46.667 81.5 73s56.167 51.167 81.5 74.5c58 53.333 87.667 82 89 86l146 -133c-79.333 -82 -179 -157.667 -299 -227c-36 -21.333 -68.333 -37 -97 -47zM213 1522h204l651 -1005l123 -226
l-13 254v977h205v-1522h-207l-630 967l-140 249l12 -264v-952h-205v1522z" />
    <glyph glyph-name="Latin_Small_Letter_N_with_acute" unicode="&#x144;" horiz-adv-x="1279" 
d="M600 1384c162 177.333 274.667 310.333 338 399l156 -135c-22.667 -40 -83.333 -106 -182 -198c-97.333 -90 -164.333 -142 -201 -156zM196 1138h196l1 -120c83.333 57.333 178 98.667 284 124c44 10 90 15 138 15s92.667 -7.16699 134 -21.5s75.667 -39.167 103 -74.5
c51.333 -67.333 77 -184.333 77 -351v-710h-220v711c0 100 -13.333 169 -40 207c-26.667 38.667 -74.667 58 -144 58c-75.333 0 -154.333 -21 -237 -63c-25.333 -12.667 -49.333 -27.333 -72 -44v-869h-220v1138z" />
    <glyph glyph-name="Latin_Capital_Letter_N_with_cedilla" unicode="&#x145;" horiz-adv-x="1556" 
d="M676 -493c26 31.333 39 79.667 39 145c0 44.667 -13 80.667 -39 108c-8.66699 8.66701 -18 14 -28 16v50l158 92c42 -21.333 71.333 -66.333 88 -135c6 -23.333 9 -50.667 9 -82s-5 -61.667 -15 -91s-22.667 -55.333 -38 -78c-28.667 -45.333 -61.667 -76 -99 -92l-75 41
v26zM213 1522h204l651 -1005l123 -226l-13 254v977h205v-1522h-207l-630 967l-140 249l12 -264v-952h-205v1522z" />
    <glyph glyph-name="Latin_Small_Letter_N_with_cedilla" unicode="&#x146;" horiz-adv-x="1279" 
d="M586 -493c26 31.333 39 79.667 39 145c0 44.667 -13 80.667 -39 108c-8.66699 8.66701 -18 14 -28 16v50l158 92c42 -21.333 71.333 -66.333 88 -135c6 -23.333 9 -50.667 9 -82s-5 -61.667 -15 -91s-22.667 -55.333 -38 -78c-28.667 -45.333 -61.667 -76 -99 -92l-75 41
v26zM196 1138h196l1 -120c83.333 57.333 178 98.667 284 124c44 10 90 15 138 15s92.667 -7.16699 134 -21.5s75.667 -39.167 103 -74.5c51.333 -67.333 77 -184.333 77 -351v-710h-220v711c0 100 -13.333 169 -40 207c-26.667 38.667 -74.667 58 -144 58
c-75.333 0 -154.333 -21 -237 -63c-25.333 -12.667 -49.333 -27.333 -72 -44v-869h-220v1138z" />
    <glyph glyph-name="Latin_Capital_Letter_N_with_caron" unicode="&#x147;" horiz-adv-x="1556" 
d="M469 1930l128 60l216 -174l221 174l120 -57l-242 -263h-197zM213 1522h204l651 -1005l123 -226l-13 254v977h205v-1522h-207l-630 967l-140 249l12 -264v-952h-205v1522z" />
    <glyph glyph-name="Latin_Small_Letter_N_with_caron" unicode="&#x148;" horiz-adv-x="1279" 
d="M358 1654l126 56l249 -223l232 222l135 -56l-268 -332h-198zM196 1138h196l1 -120c83.333 57.333 178 98.667 284 124c44 10 90 15 138 15s92.667 -7.16699 134 -21.5s75.667 -39.167 103 -74.5c51.333 -67.333 77 -184.333 77 -351v-710h-220v711
c0 100 -13.333 169 -40 207c-26.667 38.667 -74.667 58 -144 58c-75.333 0 -154.333 -21 -237 -63c-25.333 -12.667 -49.333 -27.333 -72 -44v-869h-220v1138z" />
    <glyph glyph-name="Latin_Small_Letter_N_preceded_by_apostrophe[1]" unicode="&#x149;" horiz-adv-x="1279" 
d="M586 -493c26 31.333 39 79.667 39 145c0 44.667 -13 80.667 -39 108c-8.66699 8.66701 -18 14 -28 16v50l158 92c42 -21.333 71.333 -66.333 88 -135c6 -23.333 9 -50.667 9 -82s-5 -61.667 -15 -91s-22.667 -55.333 -38 -78c-28.667 -45.333 -61.667 -76 -99 -92l-75 41
v26zM196 1138h196l1 -120c83.333 57.333 178 98.667 284 124c44 10 90 15 138 15s92.667 -7.16699 134 -21.5s75.667 -39.167 103 -74.5c51.333 -67.333 77 -184.333 77 -351v-710h-220v711c0 100 -13.333 169 -40 207c-26.667 38.667 -74.667 58 -144 58
c-75.333 0 -154.333 -21 -237 -63c-25.333 -12.667 -49.333 -27.333 -72 -44v-869h-220v1138z" />
    <glyph glyph-name="Latin_Capital_Letter_Eng" unicode="&#x14a;" horiz-adv-x="1584" 
d="M213 1522h205l677 -1014l111 -207l-15 240v981h219v-983c0 -93.333 -0.333008 -180.5 -1 -261.5s-7 -149.833 -19 -206.5s-28.333 -104.667 -49 -144s-45.167 -75.167 -73.5 -107.5s-59.833 -61.5 -94.5 -87.5s-70.333 -48.667 -107 -68
c-72.667 -36.667 -146.667 -60 -222 -70l-57 105c92 25.333 177.667 71.667 257 139c86 72.667 129 141.667 129 207l-628 931l-123 218l10 -239v-955h-217z" />
    <glyph glyph-name="Latin_Small_Letter_Eng" unicode="&#x14b;" horiz-adv-x="1279" 
d="M658 -341c19.333 -7.33301 49.5 -11 90.5 -11s70.833 4.83301 89.5 14.5s33.333 26.167 44 49.5c18 42 27 123 27 243v756c0 98.667 -13 166.333 -39 203c-26.667 40 -75.667 60 -147 60c-74.667 0 -153 -20.333 -235 -61c-25.333 -12.667 -49.333 -27.333 -72 -44v-869
h-220v1138h195l1 -120c82.667 56.667 177.667 98 285 124c44 10 90 15 138 15s92.667 -7 134 -21s75.667 -38.333 103 -73c51.333 -66.667 77 -183 77 -349v-730c0 -327.333 -105.667 -491 -317 -491c-80.667 0 -132 4.66699 -154 14v152z" />
    <glyph glyph-name="Latin_Capital_Letter_O_with_macron" unicode="&#x14c;" horiz-adv-x="1569" 
d="M557 1891h547v-162h-547v162zM120 751c0 133.333 19.5 249.667 58.5 349s90.5 181 154.5 245c128.667 128.667 293.667 193 495 193c202.667 0 364.333 -70.667 485 -212c117.333 -136.667 176 -317.667 176 -543c0 -255.333 -65.833 -452.333 -197.5 -591
s-299.833 -208 -504.5 -208s-367 71.5 -487 214.5s-180 327.167 -180 552.5zM819 155c60 0 118.167 13.333 174.5 40s104.5 66 144.5 118c83.333 108.667 125 261.667 125 459c0 169.333 -37 308.667 -111 418c-81.333 118.667 -191.667 178 -331 178
c-137.333 0 -249 -49.333 -335 -148c-94 -109.333 -141 -263.333 -141 -462c0 -168.667 38.667 -308.667 116 -420c84.667 -122 204 -183 358 -183z" />
    <glyph glyph-name="Latin_Small_Letter_O_with_macron" unicode="&#x14d;" horiz-adv-x="1213" 
d="M364 1588h547v-163h-547v163zM602 -16c-82 0 -154.667 16.667 -218 50c-178.667 92 -268 273 -268 543c0 187.333 50.667 332.333 152 435c94.667 96 217.333 144 368 144c172 0 301.667 -61 389 -183c74.667 -104.667 112 -244 112 -418c0 -180.667 -51 -323 -153 -427
c-93.333 -96 -220.667 -144 -382 -144zM626 140h70.5s95 35.833 144 107.5c49 71.667 73.5 174.5 73.5 308.5c0 202.667 -52 338 -156 406c-37.333 24 -82.333 36 -135 36c-92 0 -162.333 -35 -211 -105s-73 -170.667 -73 -302c0 -129.333 24.333 -236.833 73 -322.5
c48.667 -85.667 120 -128.5 214 -128.5z" />
    <glyph glyph-name="Latin_Capital_Letter_O_with_breve" unicode="&#x14e;" horiz-adv-x="1569" 
d="M1088 1733.5l-22.5 -23.25s-44.667 -32.417 -89 -50.75s-94.667 -27.5 -151 -27.5s-106.5 9.33301 -150.5 28c-89.333 36.667 -147.667 97 -175 181c-10 31.333 -15 58 -15 80s0.333008 38.333 1 49h153c0 -79.333 36.333 -130.667 109 -154
c21.333 -7.33301 47.833 -11 79.5 -11s58.5 3.5 80.5 10.5s40.167 16 54.5 27s25.333 23 33 36s13.5 25.5 17.5 37.5c5.33301 19.333 8 37.333 8 54h149c0.666992 -10 1 -26 1 -48s-6.33301 -51.167 -19 -87.5s-34 -70 -64 -101zM120 751c0 133.333 19.5 249.667 58.5 349
s90.5 181 154.5 245c128.667 128.667 293.667 193 495 193c202.667 0 364.333 -70.667 485 -212c117.333 -136.667 176 -317.667 176 -543c0 -255.333 -65.833 -452.333 -197.5 -591s-299.833 -208 -504.5 -208s-367 71.5 -487 214.5s-180 327.167 -180 552.5zM819 155
c60 0 118.167 13.333 174.5 40s104.5 66 144.5 118c83.333 108.667 125 261.667 125 459c0 169.333 -37 308.667 -111 418c-81.333 118.667 -191.667 178 -331 178c-137.333 0 -249 -49.333 -335 -148c-94 -109.333 -141 -263.333 -141 -462
c0 -168.667 38.667 -308.667 116 -420c84.667 -122 204 -183 358 -183z" />
    <glyph glyph-name="Latin_Small_Letter_O_with_breve" unicode="&#x14f;" horiz-adv-x="1213" 
d="M602 -16c-82 0 -154.667 16.667 -218 50c-178.667 92 -268 273 -268 543c0 187.333 50.667 332.333 152 435c94.667 96 217.333 144 368 144c172 0 301.667 -61 389 -183c74.667 -104.667 112 -244 112 -418c0 -180.667 -51 -323 -153 -427
c-93.333 -96 -220.667 -144 -382 -144zM626 140h70.5s95 35.833 144 107.5c49 71.667 73.5 174.5 73.5 308.5c0 202.667 -52 338 -156 406c-37.333 24 -82.333 36 -135 36c-92 0 -162.333 -35 -211 -105s-73 -170.667 -73 -302c0 -129.333 24.333 -236.833 73 -322.5
c48.667 -85.667 120 -128.5 214 -128.5zM895.5 1425l-22.75 -26.5s-44.917 -37.167 -89.25 -58.5s-94.333 -32 -150 -32s-105.5 10.667 -149.5 32c-88 42 -146.667 110.667 -176 206c-10.667 35.333 -16 64.667 -16 88s0.333008 40.333 1 51h154
c0 -97.333 36.333 -161 109 -191c22 -9.33301 48.833 -14 80.5 -14s58.5 4.5 80.5 13.5s40 20.333 54 34s24.833 28.667 32.5 45s13.5 32.167 17.5 47.5c5.33301 20.667 8 42.333 8 65h150c0.666992 -10 1 -26.833 1 -50.5s-6.5 -55.667 -19.5 -96
s-34.667 -78.167 -65 -113.5z" />
    <glyph glyph-name="Latin_Capital_Letter_O_with_double_acute" unicode="&#x150;" horiz-adv-x="1569" 
d="M120 751c0 133.333 19.5 249.667 58.5 349s90.5 181 154.5 245c128.667 128.667 293.667 193 495 193c202.667 0 364.333 -70.667 485 -212c117.333 -136.667 176 -317.667 176 -543c0 -255.333 -65.833 -452.333 -197.5 -591s-299.833 -208 -504.5 -208
s-367 71.5 -487 214.5s-180 327.167 -180 552.5zM819 155c60 0 118.167 13.333 174.5 40s104.5 66 144.5 118c83.333 108.667 125 261.667 125 459c0 169.333 -37 308.667 -111 418c-81.333 118.667 -191.667 178 -331 178c-137.333 0 -249 -49.333 -335 -148
c-94 -109.333 -141 -263.333 -141 -462c0 -168.667 38.667 -308.667 116 -420c84.667 -122 204 -183 358 -183zM469 1710c3.33301 3.33301 17.167 22 41.5 56s45.167 63 62.5 87s33.333 46.333 48 67c35.333 49.333 53.667 76 55 80l172 -87
c-98.667 -138 -183.667 -228.667 -255 -272zM937 1710c5.33301 5.33301 20.333 24 45 56s46 59.667 64 83s35 45.333 51 66c36.667 48.667 55.333 74.333 56 77l163 -88c-92.667 -130.667 -177.333 -218.333 -254 -263z" />
    <glyph glyph-name="Latin_Small_Letter_O_with_double_acute" unicode="&#x151;" horiz-adv-x="1213" 
d="M263 1418l259 408l162 -111c-46 -79.333 -117.667 -170.333 -215 -273c-46 -47.333 -80.333 -79 -103 -95zM762 1418l267 399l155 -110c-40 -74 -111 -163 -213 -267c-46 -46.667 -82 -77.667 -108 -93zM602 -16c-82 0 -154.667 16.667 -218 50
c-178.667 92 -268 273 -268 543c0 187.333 50.667 332.333 152 435c94.667 96 217.333 144 368 144c172 0 301.667 -61 389 -183c74.667 -104.667 112 -244 112 -418c0 -180.667 -51 -323 -153 -427c-93.333 -96 -220.667 -144 -382 -144zM626 140h70.5s95 35.833 144 107.5
c49 71.667 73.5 174.5 73.5 308.5c0 202.667 -52 338 -156 406c-37.333 24 -82.333 36 -135 36c-92 0 -162.333 -35 -211 -105s-73 -170.667 -73 -302c0 -129.333 24.333 -236.833 73 -322.5c48.667 -85.667 120 -128.5 214 -128.5z" />
    <glyph glyph-name="Latin_Capital_Ligature_OE" unicode="&#x152;" horiz-adv-x="2063" 
d="M1060 50c-79.333 -44 -170.667 -66 -274 -66s-196 19 -278 57c-167.333 78 -282.333 215.333 -345 412c-28.667 90.667 -43 189 -43 295c0 253.333 67.667 449.333 203 588c131.333 134.667 305.333 202 522 202c80 0 151.667 -13.333 215 -40v24h876v-172h-653v-480h479
v-172h-479v-523h726v-175h-949v50zM1060 1309c-62 40 -133.167 60 -213.5 60s-149.167 -11.833 -206.5 -35.5s-108 -60.5 -152 -110.5c-96 -109.333 -144 -264.333 -144 -465c0 -170 39 -311.333 117 -424c84.667 -121.333 199 -182 343 -182
c101.333 0 186.667 26.667 256 80v1077z" />
    <glyph glyph-name="Latin_Small_Ligature_OE" unicode="&#x153;" horiz-adv-x="1920" 
d="M1018 175c-94 -127.333 -229 -191 -405 -191c-171.333 0 -300.333 61 -387 183c-73.333 104 -110 240.667 -110 410c0 186 50.667 331 152 435c94 96 216.667 144 368 144c174.667 0 304.667 -64.333 390 -193c93.333 128.667 227.667 193 403 193
c117.333 0 213 -35.333 287 -106c80.667 -78.667 123 -186.667 127 -324c0 -101.333 -3.66699 -169.333 -11 -204h-703c10 -198.667 82 -316.667 216 -354c40.667 -11.333 77.333 -17 110 -17s62.667 1.66701 90 5s55 7.66701 83 13c61.333 12 106.667 26.333 136 43
l42 -126c-55.333 -45.333 -148.667 -76.667 -280 -94c-37.333 -5.333 -73 -8 -107 -8c-180.667 0 -314.333 63.667 -401 191zM1637 712c0 192 -75.667 288 -227 288c-160 0 -252 -110.667 -276 -332h502c0.666992 14.667 1 29.333 1 44zM624 140h70
s95.167 35.833 145.5 107.5c50.333 71.667 75.5 174.5 75.5 308.5c0 202.667 -52.667 338 -158 406c-37.333 24 -80 36 -128 36s-89.833 -8.5 -125.5 -25.5s-65.5 -42.833 -89.5 -77.5c-50 -70.667 -75 -172 -75 -304c0 -128.667 24.167 -236 72.5 -322
s119.167 -129 212.5 -129z" />
    <glyph glyph-name="Latin_Capital_Letter_R_with_acute" unicode="&#x154;" horiz-adv-x="1367" 
d="M214 1522h97c50 0 108.667 2.66699 176 8s138.833 8 214.5 8s145.333 -8 209 -24s118.167 -41.333 163.5 -76c95.333 -72.667 143 -182 143 -328c0 -112 -24.5 -202.833 -73.5 -272.5s-116.167 -119.5 -201.5 -149.5c56.667 -38.667 115.333 -124 176 -256
c17.333 -36.667 34 -73.333 50 -110c53.333 -124 106 -231.333 158 -322h-253c-9.33301 13.333 -19 31.333 -29 54s-20.333 45.333 -31 68c-10.667 22.667 -22.667 52 -36 88s-27.333 72.5 -42 109.5s-30 73.333 -46 109s-33.333 68.5 -52 98.5
c-41.333 66 -86.333 107 -135 123c-30 -1.33301 -66 -2 -108 -2h-157v-648h-223v1522zM639 1374c-77.333 0 -144.667 -6 -202 -18v-550c32 -4 75.667 -6 131 -6h104c211.333 0 317 99.667 317 299c0 96.667 -24.333 166.333 -73 209c-51.333 44 -143.667 66 -277 66z
M602 1665c1.33301 0.666992 10.5 8.83301 27.5 24.5s38.167 34.667 63.5 57s52.5 46.667 81.5 73s56.167 51.167 81.5 74.5c58 53.333 87.667 82 89 86l146 -133c-79.333 -82 -179 -157.667 -299 -227c-36 -21.333 -68.333 -37 -97 -47z" />
    <glyph glyph-name="Latin_Small_Letter_R_with_acute" unicode="&#x155;" horiz-adv-x="819" 
d="M380 1384c162 177.333 274.667 310.333 338 399l156 -135c-22.667 -40 -83.333 -106 -182 -198c-97.333 -90 -164.333 -142 -201 -156zM657 964c-95.333 0 -178.333 -31.667 -249 -95v-869h-220v1138h185l14 -126c44 58 115 101.333 213 130c32 10 69.333 15 112 15
s74.333 -4.66699 95 -14v-206c-36 18 -86 27 -150 27z" />
    <glyph glyph-name="Latin_Capital_Letter_R_with_cedilla" unicode="&#x156;" horiz-adv-x="1367" 
d="M622 -493c26 31.333 39 79.667 39 145c0 44.667 -13 80.667 -39 108c-8.66699 8.66701 -18 14 -28 16v50l158 92c42 -21.333 71.333 -66.333 88 -135c6 -23.333 9 -50.667 9 -82s-5 -61.667 -15 -91s-22.667 -55.333 -38 -78c-28.667 -45.333 -61.667 -76 -99 -92l-75 41
v26zM214 1522h97c50 0 108.667 2.66699 176 8s138.833 8 214.5 8s145.333 -8 209 -24s118.167 -41.333 163.5 -76c95.333 -72.667 143 -182 143 -328c0 -112 -24.5 -202.833 -73.5 -272.5s-116.167 -119.5 -201.5 -149.5c56.667 -38.667 115.333 -124 176 -256
c17.333 -36.667 34 -73.333 50 -110c53.333 -124 106 -231.333 158 -322h-253c-9.33301 13.333 -19 31.333 -29 54s-20.333 45.333 -31 68c-10.667 22.667 -22.667 52 -36 88s-27.333 72.5 -42 109.5s-30 73.333 -46 109s-33.333 68.5 -52 98.5
c-41.333 66 -86.333 107 -135 123c-30 -1.33301 -66 -2 -108 -2h-157v-648h-223v1522zM639 1374c-77.333 0 -144.667 -6 -202 -18v-550c32 -4 75.667 -6 131 -6h104c211.333 0 317 99.667 317 299c0 96.667 -24.333 166.333 -73 209c-51.333 44 -143.667 66 -277 66z" />
    <glyph glyph-name="Latin_Small_Letter_R_with_cedilla" unicode="&#x157;" horiz-adv-x="819" 
d="M205 -493c26 31.333 39 79.667 39 145c0 44.667 -13 80.667 -39 108c-8.66701 8.66701 -18 14 -28 16v50l158 92c42 -21.333 71.333 -66.333 88 -135c6 -23.333 9 -50.667 9 -82s-5 -61.667 -15 -91s-22.667 -55.333 -38 -78c-28.667 -45.333 -61.667 -76 -99 -92l-75 41
v26zM657 964c-95.333 0 -178.333 -31.667 -249 -95v-869h-220v1138h185l14 -126c44 58 115 101.333 213 130c32 10 69.333 15 112 15s74.333 -4.66699 95 -14v-206c-36 18 -86 27 -150 27z" />
    <glyph glyph-name="Latin_Capital_Letter_R_with_caron" unicode="&#x158;" horiz-adv-x="1367" 
d="M387 1930l128 60l216 -174l221 174l120 -57l-242 -263h-197zM214 1522h97c50 0 108.667 2.66699 176 8s138.833 8 214.5 8s145.333 -8 209 -24s118.167 -41.333 163.5 -76c95.333 -72.667 143 -182 143 -328c0 -112 -24.5 -202.833 -73.5 -272.5
s-116.167 -119.5 -201.5 -149.5c56.667 -38.667 115.333 -124 176 -256c17.333 -36.667 34 -73.333 50 -110c53.333 -124 106 -231.333 158 -322h-253c-9.33301 13.333 -19 31.333 -29 54s-20.333 45.333 -31 68c-10.667 22.667 -22.667 52 -36 88s-27.333 72.5 -42 109.5
s-30 73.333 -46 109s-33.333 68.5 -52 98.5c-41.333 66 -86.333 107 -135 123c-30 -1.33301 -66 -2 -108 -2h-157v-648h-223v1522zM639 1374c-77.333 0 -144.667 -6 -202 -18v-550c32 -4 75.667 -6 131 -6h104c211.333 0 317 99.667 317 299
c0 96.667 -24.333 166.333 -73 209c-51.333 44 -143.667 66 -277 66z" />
    <glyph glyph-name="Latin_Small_Letter_R_with_caron" unicode="&#x159;" horiz-adv-x="819" 
d="M138 1654l126 56l249 -223l232 222l135 -56l-268 -332h-198zM657 964c-95.333 0 -178.333 -31.667 -249 -95v-869h-220v1138h185l14 -126c44 58 115 101.333 213 130c32 10 69.333 15 112 15s74.333 -4.66699 95 -14v-206c-36 18 -86 27 -150 27z" />
    <glyph glyph-name="Latin_Capital_Letter_S_with_acute" unicode="&#x15a;" horiz-adv-x="1132" 
d="M560 161c202 0 303 70.333 303 211c0 68.667 -29.333 127.333 -88 176c-39.333 32.667 -102.5 70 -189.5 112s-153.333 78 -199 108s-86.5 64 -122.5 102c-79.333 84.667 -119 177 -119 277c0 174.667 88.333 293 265 355c70 24 139.167 36 207.5 36
s121.333 -2.5 159 -7.5s71.167 -11.167 100.5 -18.5c52.667 -14 95.333 -31.667 128 -53l-45 -176c-86.667 53.333 -190.667 80 -312 80c-129.333 0 -217.667 -33.667 -265 -101c-16.667 -24 -25 -53.5 -25 -88.5s5.5 -66 16.5 -93s28.833 -51.833 53.5 -74.5
c36.667 -35.333 92.833 -72.333 168.5 -111s130.167 -67.333 163.5 -86s65.667 -38.5 97 -59.5s60.667 -43.667 88 -68s51 -50.833 71 -79.5c44 -62.667 66 -130 66 -202s-12.5 -134 -37.5 -186s-59.833 -95 -104.5 -129c-88.667 -67.333 -210.333 -101 -365 -101
c-140.667 0 -262.667 19.333 -366 58c-27.333 10.667 -47.667 20.333 -61 29l53 183c67.333 -40.667 152.333 -69 255 -85c34.667 -5.33299 69.333 -8 104 -8zM495 1665c1.33301 0.666992 10.5 8.83301 27.5 24.5s38.167 34.667 63.5 57s52.5 46.667 81.5 73
s56.167 51.167 81.5 74.5c58 53.333 87.667 82 89 86l146 -133c-79.333 -82 -179 -157.667 -299 -227c-36 -21.333 -68.333 -37 -97 -47z" />
    <glyph glyph-name="Latin_Small_Letter_S_with_acute" unicode="&#x15b;" horiz-adv-x="977" 
d="M400 1384c162 177.333 274.667 310.333 338 399l156 -135c-22.667 -40 -83.333 -106 -182 -198c-97.333 -90 -164.333 -142 -201 -156zM165 229c45.333 -30 116.333 -53.667 213 -71c39.333 -7.33299 84 -11 134 -11s92.5 12.167 127.5 36.5s52.5 58.833 52.5 103.5
c0 59.333 -48 112.667 -144 160c-28 14 -61.5 29.333 -100.5 46s-78.167 36.333 -117.5 59c-127.333 75.333 -191 176 -191 302c0 97.333 41 173.333 123 228c73.333 49.333 169.667 74 289 74c90.667 0 173.667 -14 249 -42c18 -6.66699 31.333 -12.333 40 -17l-36 -166
c-32 26.667 -88 45.667 -168 57c-25.333 4 -51.333 6 -78 6c-70.667 0 -124.333 -11.167 -161 -33.5s-55 -49.667 -55 -82s4.83301 -58.167 14.5 -77.5s24.167 -37 43.5 -53c31.333 -27.333 75.833 -52.667 133.5 -76s106.333 -45.5 146 -66.5s75.833 -45.5 108.5 -73.5
c72.667 -64 109 -140.333 109 -229c0 -102.667 -36.333 -181.667 -109 -237c-70 -54.667 -167.667 -82 -293 -82c-114.667 0 -216.333 17.333 -305 52c-25.333 9.333 -44.667 19 -58 29z" />
    <glyph glyph-name="Latin_Capital_Letter_S_with_circumflex" unicode="&#x15c;" horiz-adv-x="1132" 
d="M560 161c202 0 303 70.333 303 211c0 68.667 -29.333 127.333 -88 176c-39.333 32.667 -102.5 70 -189.5 112s-153.333 78 -199 108s-86.5 64 -122.5 102c-79.333 84.667 -119 177 -119 277c0 174.667 88.333 293 265 355c70 24 139.167 36 207.5 36
s121.333 -2.5 159 -7.5s71.167 -11.167 100.5 -18.5c52.667 -14 95.333 -31.667 128 -53l-45 -176c-86.667 53.333 -190.667 80 -312 80c-129.333 0 -217.667 -33.667 -265 -101c-16.667 -24 -25 -53.5 -25 -88.5s5.5 -66 16.5 -93s28.833 -51.833 53.5 -74.5
c36.667 -35.333 92.833 -72.333 168.5 -111s130.167 -67.333 163.5 -86s65.667 -38.5 97 -59.5s60.667 -43.667 88 -68s51 -50.833 71 -79.5c44 -62.667 66 -130 66 -202s-12.5 -134 -37.5 -186s-59.833 -95 -104.5 -129c-88.667 -67.333 -210.333 -101 -365 -101
c-140.667 0 -262.667 19.333 -366 58c-27.333 10.667 -47.667 20.333 -61 29l53 183c67.333 -40.667 152.333 -69 255 -85c34.667 -5.33299 69.333 -8 104 -8zM265 1689l259 301h197l262 -298l-144 -60l-216 202l-221 -202z" />
    <glyph glyph-name="Latin_Small_Letter_S_with_circumflex" unicode="&#x15d;" horiz-adv-x="977" 
d="M156 1349l276 333h198l268 -332l-135 -56l-232 222l-249 -223zM165 229c45.333 -30 116.333 -53.667 213 -71c39.333 -7.33299 84 -11 134 -11s92.5 12.167 127.5 36.5s52.5 58.833 52.5 103.5c0 59.333 -48 112.667 -144 160c-28 14 -61.5 29.333 -100.5 46
s-78.167 36.333 -117.5 59c-127.333 75.333 -191 176 -191 302c0 97.333 41 173.333 123 228c73.333 49.333 169.667 74 289 74c90.667 0 173.667 -14 249 -42c18 -6.66699 31.333 -12.333 40 -17l-36 -166c-32 26.667 -88 45.667 -168 57c-25.333 4 -51.333 6 -78 6
c-70.667 0 -124.333 -11.167 -161 -33.5s-55 -49.667 -55 -82s4.83301 -58.167 14.5 -77.5s24.167 -37 43.5 -53c31.333 -27.333 75.833 -52.667 133.5 -76s106.333 -45.5 146 -66.5s75.833 -45.5 108.5 -73.5c72.667 -64 109 -140.333 109 -229
c0 -102.667 -36.333 -181.667 -109 -237c-70 -54.667 -167.667 -82 -293 -82c-114.667 0 -216.333 17.333 -305 52c-25.333 9.333 -44.667 19 -58 29z" />
    <glyph glyph-name="Latin_Capital_Letter_S_with_cedilla" unicode="&#x15e;" horiz-adv-x="1132" 
d="M394 -308c88 0 132 73 132 219c0 28 -3 53 -9 75c-120.667 5.333 -225.667 25.333 -315 60c-24 8.667 -42 17 -54 25l53 183c67.333 -40.667 152.333 -69 255 -85c34.667 -5.33299 69.333 -8 104 -8c202 0 303 70.333 303 211c0 68.667 -29.333 127.333 -88 176
c-39.333 32.667 -102.5 70 -189.5 112s-153.333 78 -199 108s-86.5 64 -122.5 102c-79.333 84.667 -119 177 -119 277c0 174.667 88.333 293 265 355c70 24 139.167 36 207.5 36s121.333 -2.5 159 -7.5s71.167 -11.167 100.5 -18.5c52.667 -14 95.333 -31.667 128 -53
l-45 -176c-86.667 53.333 -190.667 80 -312 80c-129.333 0 -217.667 -33.667 -265 -101c-16.667 -24 -25 -53.5 -25 -88.5s5.5 -66 16.5 -93s28.833 -51.833 53.5 -74.5c36.667 -35.333 92.833 -72.333 168.5 -111s130.167 -67.333 163.5 -86s65.667 -38.5 97 -59.5
s60.667 -43.667 88 -68s51 -50.833 71 -79.5c44 -62.667 66 -128.333 66 -197s-10.333 -127.333 -31 -176c-20.667 -48.667 -49.667 -90 -87 -124c-73.333 -66.667 -176.333 -105.667 -309 -117c20.667 -42.667 31 -97.667 31 -165c0 -149.333 -52.667 -240.667 -158 -274
c-27.333 -8.66699 -51.5 -13 -72.5 -13s-39 0.666992 -54 2s-29.167 3.33301 -42.5 6c-30.667 6 -51.333 12.667 -62 20l15 142c15.333 -9.33301 42.667 -14 82 -14z" />
    <glyph glyph-name="Latin_Small_Letter_S_with_cedilla" unicode="&#x15f;" horiz-adv-x="977" 
d="M324 -308c88 0 132 73 132 219c0 27.333 -3 52 -9 74c-102.667 6 -191 24 -265 54c-21.333 8.667 -38 17.333 -50 26l33 164c45.333 -30 116.333 -53.667 213 -71c39.333 -7.33299 84 -11 134 -11s92.5 12.167 127.5 36.5s52.5 58.833 52.5 103.5
c0 59.333 -48 112.667 -144 160c-28 14 -61.5 29.333 -100.5 46s-78.167 36.333 -117.5 59c-127.333 75.333 -191 176 -191 302c0 97.333 41 173.333 123 228c73.333 49.333 169.667 74 289 74c90.667 0 173.667 -14 249 -42c18 -6.66699 31.333 -12.333 40 -17l-36 -166
c-32 26.667 -88 45.667 -168 57c-25.333 4 -51.333 6 -78 6c-70.667 0 -124.333 -11.167 -161 -33.5s-55 -49.667 -55 -82s4.83301 -58.167 14.5 -77.5s24.167 -37 43.5 -53c31.333 -27.333 75.833 -52.667 133.5 -76s106.333 -45.5 146 -66.5s75.833 -45.5 108.5 -73.5
c72.667 -64 109 -140.333 109 -229c0 -134.667 -60.333 -227.667 -181 -279c-38.667 -16.667 -82.333 -28 -131 -34c20.667 -42.667 31 -98 31 -166c0 -150 -52.667 -241.667 -158 -275c-27.333 -8.66699 -51.5 -13 -72.5 -13s-39 0.666992 -54 2s-29.167 3.33301 -42.5 6
c-30.667 6 -51.333 12.667 -62 20l15 142c15.333 -9.33301 42.667 -14 82 -14z" />
    <glyph glyph-name="Latin_Capital_Letter_S_with_caron" unicode="&#x160;" horiz-adv-x="1132" 
d="M560 161c202 0 303 70.333 303 211c0 68.667 -29.333 127.333 -88 176c-39.333 32.667 -102.5 70 -189.5 112s-153.333 78 -199 108s-86.5 64 -122.5 102c-79.333 84.667 -119 177 -119 277c0 174.667 88.333 293 265 355c70 24 139.167 36 207.5 36
s121.333 -2.5 159 -7.5s71.167 -11.167 100.5 -18.5c52.667 -14 95.333 -31.667 128 -53l-45 -176c-86.667 53.333 -190.667 80 -312 80c-129.333 0 -217.667 -33.667 -265 -101c-16.667 -24 -25 -53.5 -25 -88.5s5.5 -66 16.5 -93s28.833 -51.833 53.5 -74.5
c36.667 -35.333 92.833 -72.333 168.5 -111s130.167 -67.333 163.5 -86s65.667 -38.5 97 -59.5s60.667 -43.667 88 -68s51 -50.833 71 -79.5c44 -62.667 66 -130 66 -202s-12.5 -134 -37.5 -186s-59.833 -95 -104.5 -129c-88.667 -67.333 -210.333 -101 -365 -101
c-140.667 0 -262.667 19.333 -366 58c-27.333 10.667 -47.667 20.333 -61 29l53 183c67.333 -40.667 152.333 -69 255 -85c34.667 -5.33299 69.333 -8 104 -8zM280 1930l128 60l216 -174l221 174l120 -57l-242 -263h-197z" />
    <glyph glyph-name="Latin_Small_Letter_S_with_caron" unicode="&#x161;" horiz-adv-x="977" 
d="M158 1654l126 56l249 -223l232 222l135 -56l-268 -332h-198zM165 229c45.333 -30 116.333 -53.667 213 -71c39.333 -7.33299 84 -11 134 -11s92.5 12.167 127.5 36.5s52.5 58.833 52.5 103.5c0 59.333 -48 112.667 -144 160c-28 14 -61.5 29.333 -100.5 46
s-78.167 36.333 -117.5 59c-127.333 75.333 -191 176 -191 302c0 97.333 41 173.333 123 228c73.333 49.333 169.667 74 289 74c90.667 0 173.667 -14 249 -42c18 -6.66699 31.333 -12.333 40 -17l-36 -166c-32 26.667 -88 45.667 -168 57c-25.333 4 -51.333 6 -78 6
c-70.667 0 -124.333 -11.167 -161 -33.5s-55 -49.667 -55 -82s4.83301 -58.167 14.5 -77.5s24.167 -37 43.5 -53c31.333 -27.333 75.833 -52.667 133.5 -76s106.333 -45.5 146 -66.5s75.833 -45.5 108.5 -73.5c72.667 -64 109 -140.333 109 -229
c0 -102.667 -36.333 -181.667 -109 -237c-70 -54.667 -167.667 -82 -293 -82c-114.667 0 -216.333 17.333 -305 52c-25.333 9.333 -44.667 19 -58 29z" />
    <glyph glyph-name="Latin_Capital_Letter_T_with_cedilla" unicode="&#x162;" horiz-adv-x="1303" 
d="M394 -294c15.333 -9.33301 42.667 -14 82 -14c88.667 0 133 73 133 219c0 32 -4.66699 61.667 -14 89h-37v1350h-475v172h1177v-172h-477v-1350h-52c24.667 -44 37 -103.667 37 -179c0 -148 -52.667 -238.667 -158 -272c-27.333 -8.66699 -51.5 -13 -72.5 -13
s-39 0.666992 -54 2s-29.167 3.33301 -42.5 6c-30.667 6 -51.333 12.667 -62 20z" />
    <glyph glyph-name="Latin_Small_Letter_T_with_cedilla" unicode="&#x163;" horiz-adv-x="850" 
d="M194 -294c15.333 -9.33301 42.667 -14 82 -14c88.667 0 133 73 133 219c0 32 -4.66699 61.667 -14 89c-98 30 -147 121 -147 273v701h-148v119c24.667 7.33301 46.333 13.5 65 18.5s34.667 10.5 48 16.5c26.667 12.667 45 32.167 55 58.5s20.167 57 30.5 92
s22.5 75.5 36.5 121.5h132v-260h322v-166h-322v-577c0 -107.333 6 -171.667 18 -193s26.167 -34 42.5 -38s35 -6 56 -6s40.833 1.33299 59.5 4s37 6 55 10c42 9.33299 72 19 90 29l38 -126c-46.667 -35.333 -115 -62.333 -205 -81c-28 -5.333 -55.667 -9 -83 -11
c20 -42 30 -96.333 30 -163c0 -148.667 -52.667 -239.667 -158 -273c-27.333 -8.66699 -51.5 -13 -72.5 -13s-39 0.666992 -54 2s-29.167 3.33301 -42.5 6c-30.667 6 -51.333 12.667 -62 20z" />
    <glyph glyph-name="Latin_Capital_Letter_T_with_caron" unicode="&#x164;" horiz-adv-x="1303" 
d="M320 1930l128 60l216 -174l221 174l120 -57l-242 -263h-197zM558 1350h-475v172h1177v-172h-477v-1350h-225v1350z" />
    <glyph glyph-name="Latin_Small_Letter_T_with_caron" unicode="&#x165;" horiz-adv-x="1047" 
d="M248 974h-148v119c24.667 7.33301 46.333 13.5 65 18.5s34.667 10.5 48 16.5c26.667 12.667 45 32.167 55 58.5s20.167 57 30.5 92s22.5 75.5 36.5 121.5h132v-260h322v-166h-322v-577c0 -107.333 6 -171.667 18 -193s26.167 -34 42.5 -38s35 -6 56 -6
s40.833 1.33299 59.5 4s37 6 55 10c42 9.33299 72 19 90 29l38 -126c-54 -40 -129.333 -68.333 -226 -85c-30.667 -5.333 -62.333 -8 -95 -8s-65 4 -97 12s-60 22.667 -84 44c-50.667 46 -76 123.667 -76 233v701zM1006 1816c41.333 -38.667 62 -119 62 -241
c0 -125.333 -26.667 -238.667 -80 -340c-15.333 -28.667 -31 -52.667 -47 -72l-110 34l-8 28c5.33301 18.667 10.833 36.5 16.5 53.5s10.833 35.833 15.5 56.5c10.667 48 16 94.5 16 139.5s-1.66699 77.667 -5 98s-7.66699 39.833 -13 58.5c-10.667 36 -23 63.667 -37 83
l14 47z" />
    <glyph glyph-name="Latin_Capital_Letter_T_with_stroke" unicode="&#x166;" horiz-adv-x="1303" 
d="M558 651h-289v145h289v554h-475v172h1177v-172h-477v-554h296v-145h-296v-651h-225v651z" />
    <glyph glyph-name="Latin_Small_Letter_T_with_stroke" unicode="&#x167;" horiz-adv-x="850" 
d="M248 596h-147v164h147v214h-148v119c24.667 7.33301 46.333 13.5 65 18.5s34.667 10.5 48 16.5c26.667 12.667 45 32.167 55 58.5s20.167 57 30.5 92s22.5 75.5 36.5 121.5h132v-260h322v-166h-322v-214h322v-164h-322v-199c0 -107.333 6 -171.667 18 -193
s26.167 -34 42.5 -38s35 -6 56 -6s40.833 1.33299 59.5 4s37 6 55 10c42 9.33299 72 19 90 29l38 -126c-54 -40 -129.333 -68.333 -226 -85c-30.667 -5.333 -62.333 -8 -95 -8s-65 4 -97 12s-60 22.667 -84 44c-50.667 46 -76 123.667 -76 233v323z" />
    <glyph glyph-name="Latin_Capital_Letter_U_with_tilde" unicode="&#x168;" horiz-adv-x="1463" 
d="M609 1805c-56.667 0 -115 -34 -175 -102l-85 68c23.333 56 63 102.667 119 140c54 36.667 104.5 55 151.5 55s83.333 -7.16699 109 -21.5s48.667 -30.333 69 -48s39.833 -33.667 58.5 -48s40.667 -21.5 66 -21.5c58.667 0 117 33 175 99l86 -71
c-23.333 -56 -63 -102.333 -119 -139c-54.667 -36.667 -108.667 -55 -162 -55c-45.333 0 -81.167 8.83301 -107.5 26.5s-46.167 32.833 -59.5 45.5s-26.333 24.333 -39 35c-29.333 24.667 -58.333 37 -87 37zM179 1522h223l-1 -836c0 -200 32 -340.667 96 -422
c56 -70.667 146.333 -106 271 -106c111.333 0 192.667 35.667 244 107c60.667 83.333 91 223.667 91 421v836h222v-892c0 -318 -105 -519.333 -315 -604c-70.667 -28 -156 -42 -256 -42s-186.833 14.5 -260.5 43.5s-133.833 71.167 -180.5 126.5
c-89.333 106 -134 265.667 -134 479v889z" />
    <glyph glyph-name="Latin_Small_Letter_U_with_tilde" unicode="&#x169;" horiz-adv-x="1249" 
d="M190 1140h220v-665c0 -133.333 16 -220.333 48 -261c16.667 -20.667 38.333 -34 65 -40s54.667 -9 84 -9s56.333 2.66701 81 8s48.667 12 72 20c46 16 83.667 33.333 113 52v895h220v-1156h-85c-39.333 0 -65 4 -77 12c-22 14 -33 39.333 -33 76v28
c-80.667 -50.667 -171.333 -86 -272 -106c-34 -6.667 -76.833 -10 -128.5 -10s-99.667 11.833 -144 35.5s-78.833 57.167 -103.5 100.5c-40 70.667 -60 188.667 -60 354v666zM503 1482c-61.333 0 -122.333 -32.333 -183 -97l-85 68c39.333 86 100.333 145.667 183 179
c28 10.667 56.167 16 84.5 16s52.667 -3.33301 73 -10s38.5 -15.167 54.5 -25.5s30.667 -21.333 44 -33s26.667 -22.833 40 -33.5c29.333 -23.333 58 -35 86 -35c64.667 0 125.667 32.667 183 98l86 -72c-42 -89.333 -103 -148.667 -183 -178
c-27.333 -10 -55.833 -15 -85.5 -15s-54.833 3.33301 -75.5 10s-39.167 15.167 -55.5 25.5s-30.833 21.5 -43.5 33.5s-25.333 23 -38 33c-29.333 24 -57.667 36 -85 36z" />
    <glyph glyph-name="Latin_Capital_Letter_U_with_macron" unicode="&#x16a;" horiz-adv-x="1463" 
d="M494 1891h547v-162h-547v162zM179 1522h223l-1 -836c0 -200 32 -340.667 96 -422c56 -70.667 146.333 -106 271 -106c111.333 0 192.667 35.667 244 107c60.667 83.333 91 223.667 91 421v836h222v-892c0 -318 -105 -519.333 -315 -604c-70.667 -28 -156 -42 -256 -42
s-186.833 14.5 -260.5 43.5s-133.833 71.167 -180.5 126.5c-89.333 106 -134 265.667 -134 479v889z" />
    <glyph glyph-name="Latin_Small_Letter_U_with_macron" unicode="&#x16b;" horiz-adv-x="1249" 
d="M190 1140h220v-665c0 -133.333 16 -220.333 48 -261c16.667 -20.667 38.333 -34 65 -40s54.667 -9 84 -9s56.333 2.66701 81 8s48.667 12 72 20c46 16 83.667 33.333 113 52v895h220v-1156h-85c-39.333 0 -65 4 -77 12c-22 14 -33 39.333 -33 76v28
c-80.667 -50.667 -171.333 -86 -272 -106c-34 -6.667 -76.833 -10 -128.5 -10s-99.667 11.833 -144 35.5s-78.833 57.167 -103.5 100.5c-40 70.667 -60 188.667 -60 354v666zM382 1588h547v-163h-547v163z" />
    <glyph glyph-name="Latin_Capital_Letter_U_with_breve" unicode="&#x16c;" horiz-adv-x="1463" 
d="M1025 1733.5l-22.5 -23.25s-44.667 -32.417 -89 -50.75s-94.667 -27.5 -151 -27.5s-106.5 9.33301 -150.5 28c-89.333 36.667 -147.667 97 -175 181c-10 31.333 -15 58 -15 80s0.333008 38.333 1 49h153c0 -79.333 36.333 -130.667 109 -154
c21.333 -7.33301 47.833 -11 79.5 -11s58.5 3.5 80.5 10.5s40.167 16 54.5 27s25.333 23 33 36s13.5 25.5 17.5 37.5c5.33301 19.333 8 37.333 8 54h149c0.666992 -10 1 -26 1 -48s-6.33301 -51.167 -19 -87.5s-34 -70 -64 -101zM179 1522h223l-1 -836
c0 -200 32 -340.667 96 -422c56 -70.667 146.333 -106 271 -106c111.333 0 192.667 35.667 244 107c60.667 83.333 91 223.667 91 421v836h222v-892c0 -318 -105 -519.333 -315 -604c-70.667 -28 -156 -42 -256 -42s-186.833 14.5 -260.5 43.5s-133.833 71.167 -180.5 126.5
c-89.333 106 -134 265.667 -134 479v889z" />
    <glyph glyph-name="Latin_Small_Letter_U_with_breve" unicode="&#x16d;" horiz-adv-x="1249" 
d="M190 1140h220v-665c0 -133.333 16 -220.333 48 -261c16.667 -20.667 38.333 -34 65 -40s54.667 -9 84 -9s56.333 2.66701 81 8s48.667 12 72 20c46 16 83.667 33.333 113 52v895h220v-1156h-85c-39.333 0 -65 4 -77 12c-22 14 -33 39.333 -33 76v28
c-80.667 -50.667 -171.333 -86 -272 -106c-34 -6.667 -76.833 -10 -128.5 -10s-99.667 11.833 -144 35.5s-78.833 57.167 -103.5 100.5c-40 70.667 -60 188.667 -60 354v666zM913.5 1425l-22.75 -26.5s-44.917 -37.167 -89.25 -58.5s-94.333 -32 -150 -32
s-105.5 10.667 -149.5 32c-88 42 -146.667 110.667 -176 206c-10.667 35.333 -16 64.667 -16 88s0.333008 40.333 1 51h154c0 -97.333 36.333 -161 109 -191c22 -9.33301 48.833 -14 80.5 -14s58.5 4.5 80.5 13.5s40 20.333 54 34s24.833 28.667 32.5 45
s13.5 32.167 17.5 47.5c5.33301 20.667 8 42.333 8 65h150c0.666992 -10 1 -26.833 1 -50.5s-6.5 -55.667 -19.5 -96s-34.667 -78.167 -65 -113.5z" />
    <glyph glyph-name="Latin_Capital_Letter_U_with_ring_above" unicode="&#x16e;" horiz-adv-x="1463" 
d="M179 1522h223l-1 -836c0 -200 32 -340.667 96 -422c56 -70.667 146.333 -106 271 -106c111.333 0 192.667 35.667 244 107c60.667 83.333 91 223.667 91 421v836h222v-892c0 -318 -105 -519.333 -315 -604c-70.667 -28 -156 -42 -256 -42s-186.833 14.5 -260.5 43.5
s-133.833 71.167 -180.5 126.5c-89.333 106 -134 265.667 -134 479v889zM986.5 1499c0 0 -7.41699 -5.5 -22.25 -16.5s-41.75 -21.667 -80.75 -32s-81.167 -15.5 -126.5 -15.5s-87.667 6.33301 -127 19c-80 26 -135 72.667 -165 140c-14 32.667 -21 59.333 -21 80
c0 69.333 9.66699 120.833 29 154.5s44 60.833 74 81.5c56.667 40 129 60 217 60c153.333 0 253 -50 299 -150c14.667 -32.667 21.833 -71.667 21.5 -117s-9.33301 -85.167 -27 -119.5s-41.333 -62.5 -71 -84.5zM762 1561c112.667 0 169 48.333 169 145
c0 67.333 -34 111 -102 131c-20.667 6 -42 9 -64 9s-42.667 -2 -62 -6s-36.667 -11.333 -52 -22c-34 -23.333 -51 -58.667 -51 -106s14.5 -84 43.5 -110s68.5 -39.667 118.5 -41z" />
    <glyph glyph-name="Latin_Small_Letter_U_with_ring_above" unicode="&#x16f;" horiz-adv-x="1249" 
d="M876.5 1395.5c0 0 -7.41699 -5.75 -22.25 -17.25s-41.75 -22.75 -80.75 -33.75s-81.167 -16.5 -126.5 -16.5s-87.667 6.66699 -127 20c-79.333 26.667 -134.333 74.667 -165 144c-14 33.333 -21 60.333 -21 81c0 69.333 9.66699 121.167 29 155.5s44 62.167 74 83.5
c57.333 40.667 129.667 61 217 61c153.333 0 253 -51 299 -153c14.667 -33.333 21.833 -72.667 21.5 -118s-9.33301 -85.333 -27 -120s-41.333 -63.5 -71 -86.5zM490 1594v-27s14.5 -41 43.5 -69s62.167 -42.333 99.5 -43s66.333 1.83301 87 7.5s38.333 14.5 53 26.5
c32 25.333 48 64 48 116c0 44.667 -16.333 80.333 -49 107c-31.333 24.667 -71.333 37 -120 37c-74 0 -123.333 -24.333 -148 -73c-9.33301 -18.667 -14 -46 -14 -82zM190 1140h220v-665c0 -133.333 16 -220.333 48 -261c16.667 -20.667 38.333 -34 65 -40s54.667 -9 84 -9
s56.333 2.66701 81 8s48.667 12 72 20c46 16 83.667 33.333 113 52v895h220v-1156h-85c-39.333 0 -65 4 -77 12c-22 14 -33 39.333 -33 76v28c-80.667 -50.667 -171.333 -86 -272 -106c-34 -6.667 -76.833 -10 -128.5 -10s-99.667 11.833 -144 35.5
s-78.833 57.167 -103.5 100.5c-40 70.667 -60 188.667 -60 354v666z" />
    <glyph glyph-name="Latin_Capital_Letter_U_with_double_acute" unicode="&#x170;" horiz-adv-x="1463" 
d="M179 1522h223l-1 -836c0 -200 32 -340.667 96 -422c56 -70.667 146.333 -106 271 -106c111.333 0 192.667 35.667 244 107c60.667 83.333 91 223.667 91 421v836h222v-892c0 -318 -105 -519.333 -315 -604c-70.667 -28 -156 -42 -256 -42s-186.833 14.5 -260.5 43.5
s-133.833 71.167 -180.5 126.5c-89.333 106 -134 265.667 -134 479v889zM406 1710c3.33301 3.33301 17.167 22 41.5 56s45.167 63 62.5 87s33.333 46.333 48 67c35.333 49.333 53.667 76 55 80l172 -87c-98.667 -138 -183.667 -228.667 -255 -272zM874 1710
c5.33301 5.33301 20.333 24 45 56s46 59.667 64 83s35 45.333 51 66c36.667 48.667 55.333 74.333 56 77l163 -88c-92.667 -130.667 -177.333 -218.333 -254 -263z" />
    <glyph glyph-name="Latin_Small_Letter_U_with_double_acute" unicode="&#x171;" horiz-adv-x="1249" 
d="M190 1140h220v-665c0 -133.333 16 -220.333 48 -261c16.667 -20.667 38.333 -34 65 -40s54.667 -9 84 -9s56.333 2.66701 81 8s48.667 12 72 20c46 16 83.667 33.333 113 52v895h220v-1156h-85c-39.333 0 -65 4 -77 12c-22 14 -33 39.333 -33 76v28
c-80.667 -50.667 -171.333 -86 -272 -106c-34 -6.667 -76.833 -10 -128.5 -10s-99.667 11.833 -144 35.5s-78.833 57.167 -103.5 100.5c-40 70.667 -60 188.667 -60 354v666zM281 1418l259 408l162 -111c-46 -79.333 -117.667 -170.333 -215 -273
c-46 -47.333 -80.333 -79 -103 -95zM780 1418l267 399l155 -110c-40 -74 -111 -163 -213 -267c-46 -46.667 -82 -77.667 -108 -93z" />
    <glyph glyph-name="Latin_Capital_Letter_U_with_ogonek" unicode="&#x172;" horiz-adv-x="1463" 
d="M1072 -453c-51.333 -39.333 -130.333 -59 -237 -59c-113.333 0 -189 40 -227 120c-12.667 26 -19.167 53.167 -19.5 81.5s4 55.667 13 82s21.5 52.5 37.5 78.5c32.667 53.333 76 98 130 134h-8c-300.667 0 -484 124.667 -550 374c-21.333 80 -32 171.667 -32 275v889h223
l-1 -836c0 -200 32 -340.667 96 -422c56 -70.667 146.333 -106 271 -106c111.333 0 192.667 35.667 244 107c60.667 83.333 91 223.667 91 421v836h222v-892c0 -345.333 -123 -552.333 -369 -621c-72 -65.333 -119.333 -134.333 -142 -207
c-14 -44.667 -13.333 -82.667 2 -114c12.667 -25.333 31 -40.333 55 -45s51.167 -7 81.5 -7s70.167 9.66699 119.5 29v-118z" />
    <glyph glyph-name="Latin_Small_Letter_U_with_ogonek" unicode="&#x173;" horiz-adv-x="1249" 
d="M1164 -453c-51.333 -39.333 -130.333 -59 -237 -59c-113.333 0 -189 40 -227 120c-12.667 26 -19.167 55 -19.5 87s6.33301 62.833 20 92.5s31.833 57.833 54.5 84.5c45.333 53.333 100.667 96.667 166 130c-15.333 12 -23 35.333 -23 70v28
c-80.667 -50.667 -171.333 -86 -272 -106c-34 -6.667 -76.833 -10 -128.5 -10s-99.667 11.833 -144 35.5s-78.833 57.167 -103.5 100.5c-40 70.667 -60 188.667 -60 354v666h220v-665c0 -133.333 16 -220.333 48 -261c16.667 -20.667 38.333 -34 65 -40s54.667 -9 84 -9
s56.333 2.66701 81 8s48.667 12 72 20c46 16 83.667 33.333 113 52v895h220v-1156h-16c-120 -76 -180 -155.333 -180 -238c0 -73.333 42.667 -110 128 -110c43.333 0 89.667 9.66699 139 29v-118z" />
    <glyph glyph-name="Latin_Capital_Letter_W_with_circumflex" unicode="&#x174;" horiz-adv-x="1918" 
d="M42 1522h229l242 -988l50 -276l51 276l287 988h161l291 -988l66 -278l47 277l226 989h224l-393 -1538h-218l-290 998l-35 182l-34 -183l-294 -997h-191zM622 1689l259 301h197l262 -298l-144 -60l-216 202l-221 -202z" />
    <glyph glyph-name="Latin_Small_Letter_W_with_circumflex" unicode="&#x175;" horiz-adv-x="1632" 
d="M468 1360l276 333h198l268 -332l-135 -56l-232 222l-249 -223zM41 1140h220l184 -684l50 -214l46 213l190 685h219l189 -684l49 -218l50 211l178 691h215l-348 -1156h-203l-204 745l-37 182l-40 -182l-201 -745h-209z" />
    <glyph glyph-name="Latin_Capital_Letter_Y_with_circumflex" unicode="&#x176;" horiz-adv-x="1264" 
d="M543 593l-501 929h238l338 -660l43 -105l36 105l331 660h234l-493 -929v-593h-226v593zM312 1689l259 301h197l262 -298l-144 -60l-216 202l-221 -202z" />
    <glyph glyph-name="Latin_Small_Letter_Y_with_circumflex" unicode="&#x177;" horiz-adv-x="1116" 
d="M151 -314c19.333 -7.33301 45.333 -11 78 -11c32.667 0 62.667 4.16699 90 12.5s55 24.5 83 48.5c64.667 55.333 111.333 143.333 140 264h-65l-413 1140h235l252 -768l58 -186l267 954h237l-384 -1176c-86 -260.667 -205.333 -412.667 -358 -456
c-38 -10 -81 -15 -129 -15s-78.333 4.66699 -91 14v179zM236 1349l276 333h198l268 -332l-135 -56l-232 222l-249 -223z" />
    <glyph glyph-name="Latin_Capital_Letter_Y_with_diaeresis" unicode="&#x178;" horiz-adv-x="1264" 
d="M543 593l-501 929h238l338 -660l43 -105l36 105l331 660h234l-493 -929v-593h-226v593zM1018.5 1709.5c0 0 -3.75 -3.41699 -11.25 -10.25s-20.917 -13.917 -40.25 -21.25s-38.833 -11 -58.5 -11s-37.833 3 -54.5 9s-31.333 14.667 -44 26c-26.667 26 -40 54.333 -40 85
s4.5 55.5 13.5 74.5s21.167 35.167 36.5 48.5c32 30 64 45 96 45s56.667 -3.5 74 -10.5s31.667 -16.5 43 -28.5c22.667 -24 34 -51.667 34 -83s-4.33301 -56.333 -13 -75s-20.5 -34.833 -35.5 -48.5zM522.5 1709.5c0 0 -3.75 -3.41699 -11.25 -10.25
s-20.917 -13.917 -40.25 -21.25s-38.833 -11 -58.5 -11s-37.833 3 -54.5 9s-31.333 14.667 -44 26c-26.667 26 -40 54.333 -40 85s4.5 55.5 13.5 74.5s21.167 35.167 36.5 48.5c32 30 64 45 96 45s56.667 -3.5 74 -10.5s31.667 -16.5 43 -28.5c22.667 -24 34 -51.667 34 -83
s-4.33301 -56.333 -13 -75s-20.5 -34.833 -35.5 -48.5z" />
    <glyph glyph-name="Latin_Capital_Letter_Z_with_acute" unicode="&#x179;" horiz-adv-x="1294" 
d="M886 1273l58 71h-750v178h996l46 -81l-760 -1181l-74 -85h775v-175h-1023l-45 84zM571 1665c1.33301 0.666992 10.5 8.83301 27.5 24.5s38.167 34.667 63.5 57s52.5 46.667 81.5 73s56.167 51.167 81.5 74.5c58 53.333 87.667 82 89 86l146 -133
c-79.333 -82 -179 -157.667 -299 -227c-36 -21.333 -68.333 -37 -97 -47z" />
    <glyph glyph-name="Latin_Small_Letter_Z_with_acute" unicode="&#x17a;" horiz-adv-x="1061" 
d="M425 1384c162 177.333 274.667 310.333 338 399l156 -135c-22.667 -40 -83.333 -106 -182 -198c-97.333 -90 -164.333 -142 -201 -156zM102 82l610 890h-550v168h812l35 -95l-609 -885h589v-160h-845z" />
    <glyph glyph-name="Latin_Capital_Letter_Z_with_dot_above" unicode="&#x17b;" horiz-adv-x="1294" 
d="M801 1711.5l-11 -10.25s-20.667 -13.917 -40 -21.25s-38.833 -11 -58.5 -11s-38 3 -55 9s-31.833 14.667 -44.5 26c-27.333 25.333 -41 53.5 -41 84.5s4.66699 55.833 14 74.5s21.333 35 36 49c32.667 29.333 65.167 44 97.5 44s57.167 -3.33301 74.5 -10
s31.667 -16 43 -28c22.667 -24 34 -51.667 34 -83s-4.5 -56.333 -13.5 -75s-20.833 -34.833 -35.5 -48.5zM886 1273l58 71h-750v178h996l46 -81l-760 -1181l-74 -85h775v-175h-1023l-45 84z" />
    <glyph glyph-name="Latin_Small_Letter_Z_with_dot_above" unicode="&#x17c;" horiz-adv-x="1061" 
d="M102 82l610 890h-550v168h812l35 -95l-609 -885h589v-160h-845zM656.5 1390.5c0 0 -3.75 -3.41699 -11.25 -10.25s-21.083 -14.083 -40.75 -21.75s-39.333 -11.5 -59 -11.5s-38 3.16699 -55 9.5s-32.167 15.5 -45.5 27.5c-28 25.333 -42 53.5 -42 84.5s4.66699 56 14 75
s21.667 35.5 37 49.5c32.667 30 65.333 45 98 45s57.833 -3.5 75.5 -10.5s32.167 -16.833 43.5 -29.5c23.333 -24 35 -51.667 35 -83s-4.5 -56.5 -13.5 -75.5s-21 -35.333 -36 -49z" />
    <glyph glyph-name="Latin_Capital_Letter_Z_with_caron" unicode="&#x17d;" horiz-adv-x="1294" 
d="M356 1930l128 60l216 -174l221 174l120 -57l-242 -263h-197zM886 1273l58 71h-750v178h996l46 -81l-760 -1181l-74 -85h775v-175h-1023l-45 84z" />
    <glyph glyph-name="Latin_Small_Letter_Z_with_caron" unicode="&#x17e;" horiz-adv-x="1061" 
d="M183 1654l126 56l249 -223l232 222l135 -56l-268 -332h-198zM102 82l610 890h-550v168h812l35 -95l-609 -885h589v-160h-845z" />
    <glyph glyph-name="Latin_Small_Letter_F_with_hook" unicode="&#x192;" horiz-adv-x="1169" 
d="M1064 1488c-22 12.667 -61.5 19 -118.5 19s-97.333 -3.66699 -121 -11s-45.167 -20 -64.5 -38c-40.667 -38.667 -66 -102 -76 -190l-15 -128h299l-13 -168h-299l-111 -1328h-215l112 1328h-205l8 114l209 54l8 64c20 166 74.667 290.333 164 373
c77.333 72 177.667 108 301 108c73.333 0 123.333 -6 150 -18z" />
    <glyph glyph-name="Latin_Capital_Letter__with_acute" unicode="&#x1fc;" horiz-adv-x="1860" 
d="M912 1665c1.33301 0.666992 10.5 8.83301 27.5 24.5s38.167 34.667 63.5 57s52.5 46.667 81.5 73s56.167 51.167 81.5 74.5c58 53.333 87.667 82 89 86l146 -133c-79.333 -82 -179 -157.667 -299 -227c-36 -21.333 -68.333 -37 -97 -47zM672 1522h1061v-172h-653v-480
h479v-172h-479v-523h726v-175h-949v385h-481l-183 -385h-246zM857 551v825h-10l-392 -825h402z" />
    <glyph glyph-name="Latin_Small_Letter__with_acute" unicode="&#x1fd;" horiz-adv-x="1780" 
d="M794 1384c162 177.333 274.667 310.333 338 399l156 -135c-22.667 -40 -83.333 -106 -182 -198c-97.333 -90 -164.333 -142 -201 -156zM882 162c-100.667 -118.667 -238.333 -178 -413 -178c-104 0 -188.333 28.667 -253 86c-68 58.667 -102 137 -102 235
c0 141.333 74 244.333 222 309c116 49.333 261 74 435 74v115c0 76.667 -18.333 128.333 -55 155c-30.667 22 -87 33 -169 33c-76 0 -163.333 -19 -262 -57c-26 -10 -46.333 -19.667 -61 -29l-54 147c56 34.667 154.667 65.333 296 92c46 8.66699 89.667 13 131 13
s78.833 -2.16699 112.5 -6.5s64.5 -11.833 92.5 -22.5c57.333 -22 99.333 -60 126 -114c92 94.667 212.667 142 362 142c116.667 0 212 -35.333 286 -106c80.667 -78.667 123 -186.667 127 -324c0 -101.333 -3.66699 -169.333 -11 -204h-702
c4 -83.333 15.5 -147.333 34.5 -192s43.833 -80.333 74.5 -107c55.333 -48 134.333 -72 237 -72c73.333 0 150.333 12.333 231 37c24.667 8 44 16 58 24l42 -126c-55.333 -45.333 -148.333 -76.667 -279 -94c-38 -5.333 -74.333 -8 -109 -8c-178 0 -310.333 59.333 -397 178
zM1498 712c0 192 -75.667 288 -227 288c-160 0 -252 -110.667 -276 -332h502c0.666992 14.667 1 29.333 1 44zM458 493c-37.333 -17.333 -67.167 -38.833 -89.5 -64.5s-33.5 -64.167 -33.5 -115.5c0 -110 63 -165 189 -165c88.667 0 169.333 26 242 78
c22 16 40 33.667 54 53c-28 76 -43.333 166.333 -46 271l-1 -2c-136.667 0 -241.667 -18.333 -315 -55z" />
    </font>
</defs>
</svg>
