<?xml version="1.0" encoding="UTF-8" standalone="no"?>
<svg xmlns="http://www.w3.org/2000/svg" width="1.47334in" height="1.4in" viewBox="0 0 442 420" version="1.1">
<path fill="white" d="m 354,44 c 0.45,-37.76 46.53,-58.77 73.99,-31.96 4.15,4.05 7.6,8.65 9.97,13.96 3.2,7.19 4.03,11.21 4.04,19 0,0 0,328 0,328 -0.05,33.81 -34.82,56.3 -65,39.69 -14.98,-8.25 -24.85,-30.1 -33.6,-44.69 0,0 -32.8,-55 -32.8,-55 0,0 -59.6,-100 -59.6,-100 0,0 0,159 0,159 -0.02,13.83 -4.6,27.3 -15.01,36.83 -20.01,18.31 -51.66,13.89 -66.29,-8.83 -9.43,-14.63 -7.7,-30.48 -7.7,-47 0,0 0,-82 0,-82 0,0 -73,0 -73,0 0,0 0,81 0,81 0,16.75 1.37,33.25 -8.09,48 C 67.34,421.16 38.13,426.99 18,411.47 5.78,402.06 0.02,388.14 0,373 0,373 0,49 0,49 0.02,35.08 5.14,21.48 16,12.32 36.94,-5.33 69.65,0.74 82.68,25 90.73,40 89,61.29 89,78 c 0,0 0,99 0,99 0,0 73,0 73,0 0,0 0,-126 0,-126 0.04,-25.3 16.24,-47.91 43,-48.96 31.21,-1.22 41.41,25.6 54.8,47.96 0,0 94.2,158 94.2,158 0,0 0,-164 0,-164 z"/>
</svg>
