<svg width="196.656" height="43.584" viewBox="0 0 196.656 43.584" xmlns="http://www.w3.org/2000/svg"><g id="svgGroup" stroke-linecap="round" fill-rule="evenodd" font-size="9pt" stroke="#fff" stroke-width="0.25mm" fill="#fff" style="stroke:#fff;stroke-width:0.25mm;fill:#fff"><path d="M 85.632 42.528 L 87.12 38.976 Q 87.659 39.245 88.387 39.431 A 9.008 9.008 0 0 0 88.488 39.456 Q 89.28 39.648 90 39.648 A 8.02 8.02 0 0 0 91.191 39.564 A 5.906 5.906 0 0 0 92.376 39.264 A 5.051 5.051 0 0 0 93.756 38.475 A 6.314 6.314 0 0 0 94.296 37.992 A 10.093 10.093 0 0 0 95.068 37.119 Q 95.439 36.651 95.805 36.094 A 17.776 17.776 0 0 0 96.048 35.712 L 97.2 33.888 L 91.584 10.32 L 96.576 10.32 L 99.072 21.984 A 76.193 76.193 0 0 1 99.398 23.666 Q 99.56 24.556 99.722 25.547 A 124.833 124.833 0 0 1 99.744 25.68 Q 100.08 27.744 100.32 29.28 L 100.512 29.28 Q 101.04 28.224 101.715 26.918 A 302.213 302.213 0 0 1 102.36 25.68 A 181.575 181.575 0 0 1 103.382 23.753 Q 103.889 22.813 104.352 21.984 L 111.072 10.32 L 116.352 10.32 L 101.28 35.472 A 31.921 31.921 0 0 1 99.894 37.642 Q 99.178 38.664 98.453 39.498 A 17.48 17.48 0 0 1 97.968 40.032 A 12.163 12.163 0 0 1 95.74 41.903 A 10.487 10.487 0 0 1 94.272 42.696 Q 92.256 43.584 89.664 43.584 Q 88.512 43.584 87.432 43.272 A 9.887 9.887 0 0 1 86.614 42.999 Q 86.215 42.845 85.883 42.669 A 5.27 5.27 0 0 1 85.632 42.528 Z M 31.728 28.56 L 35.136 25.632 A 11.194 11.194 0 0 0 36.764 27.598 A 9.224 9.224 0 0 0 38.448 28.872 A 8.236 8.236 0 0 0 42.027 29.97 A 10.097 10.097 0 0 0 42.816 30 Q 44.544 30 45.864 29.448 A 5.219 5.219 0 0 0 47.072 28.751 A 4.352 4.352 0 0 0 47.928 27.864 A 3.927 3.927 0 0 0 48.635 26.013 A 5.094 5.094 0 0 0 48.672 25.392 A 4.107 4.107 0 0 0 48.436 23.976 A 3.643 3.643 0 0 0 47.664 22.728 A 8.639 8.639 0 0 0 46.644 21.806 Q 46.098 21.382 45.428 20.978 A 16.11 16.11 0 0 0 44.928 20.688 L 41.664 18.72 Q 39.6 17.472 38.04 15.528 A 7.015 7.015 0 0 1 36.584 12.127 A 9.437 9.437 0 0 1 36.48 10.704 A 8.456 8.456 0 0 1 36.902 7.994 A 7.504 7.504 0 0 1 37.824 6.144 A 9.192 9.192 0 0 1 41.167 3.192 A 10.895 10.895 0 0 1 41.448 3.048 Q 43.728 1.92 46.656 1.92 Q 49.824 1.92 52.44 3.336 Q 55.056 4.752 56.496 6.864 L 53.184 9.696 A 11.659 11.659 0 0 0 51.101 7.804 A 13.708 13.708 0 0 0 50.376 7.32 Q 48.72 6.288 46.512 6.288 A 5.861 5.861 0 0 0 45.165 6.437 A 4.814 4.814 0 0 0 44.112 6.816 A 4.492 4.492 0 0 0 42.864 7.723 A 4.178 4.178 0 0 0 42.432 8.256 Q 41.808 9.168 41.808 10.32 A 3.8 3.8 0 0 0 42.031 11.644 A 3.384 3.384 0 0 0 42.768 12.816 A 9.821 9.821 0 0 0 44.137 14.001 A 12.338 12.338 0 0 0 45.12 14.64 L 48.672 16.896 A 16.032 16.032 0 0 1 50.867 18.453 A 14.287 14.287 0 0 1 51.408 18.936 Q 52.608 20.064 53.28 21.504 A 6.836 6.836 0 0 1 53.794 23.142 Q 53.932 23.878 53.95 24.718 A 11.786 11.786 0 0 1 53.952 24.96 A 10.245 10.245 0 0 1 53.667 27.431 A 7.868 7.868 0 0 1 52.464 30.096 A 9.553 9.553 0 0 1 48.654 33.255 A 11.325 11.325 0 0 1 48.48 33.336 A 12.774 12.774 0 0 1 44.435 34.391 A 15.627 15.627 0 0 1 42.912 34.464 A 15.976 15.976 0 0 1 39.764 34.169 A 11.421 11.421 0 0 1 36.144 32.808 Q 33.36 31.152 31.728 28.56 Z M 66.624 24.432 L 68.688 14.4 L 62.16 14.4 L 62.928 10.56 L 69.744 10.32 L 71.76 3.6 L 76.032 3.6 L 74.64 10.32 L 85.44 10.32 L 84.624 14.4 L 73.776 14.4 L 71.664 24.384 Q 71.52 25.008 71.496 25.464 Q 71.472 25.92 71.472 26.352 A 6.08 6.08 0 0 0 71.564 27.447 Q 71.783 28.644 72.528 29.304 A 3.619 3.619 0 0 0 74.192 30.127 A 5.261 5.261 0 0 0 75.312 30.24 A 8.976 8.976 0 0 0 77.929 29.864 A 8.384 8.384 0 0 0 78.384 29.712 A 17.673 17.673 0 0 0 79.992 29.034 A 14.328 14.328 0 0 0 80.976 28.512 L 82.56 32.16 Q 81.24 32.985 79.353 33.597 A 22.117 22.117 0 0 1 78.72 33.792 A 17.078 17.078 0 0 1 74.627 34.448 A 19.493 19.493 0 0 1 73.824 34.464 A 12.78 12.78 0 0 1 71.725 34.304 Q 70.617 34.119 69.743 33.72 A 5.339 5.339 0 0 1 68.064 32.544 A 6.515 6.515 0 0 1 66.373 29.099 A 9.205 9.205 0 0 1 66.24 27.504 Q 66.24 26.784 66.336 26.064 Q 66.432 25.344 66.624 24.432 Z M 125.856 24.816 L 130.368 4.08 L 123.072 4.08 L 123.936 0 L 136.272 0 L 130.848 25.296 Q 130.752 25.728 130.68 26.208 A 6.626 6.626 0 0 0 130.611 27.012 A 7.541 7.541 0 0 0 130.608 27.216 A 4.451 4.451 0 0 0 130.685 28.075 Q 130.78 28.558 130.993 28.927 A 2.113 2.113 0 0 0 131.496 29.52 A 3.141 3.141 0 0 0 132.841 30.147 A 4.473 4.473 0 0 0 133.776 30.24 Q 134.88 30.24 135.864 29.928 Q 136.71 29.66 137.715 29.197 A 23.337 23.337 0 0 0 138.048 29.04 L 139.2 32.928 A 14.969 14.969 0 0 1 136.454 33.953 A 13.616 13.616 0 0 1 135.816 34.104 A 17.017 17.017 0 0 1 132.72 34.458 A 19.138 19.138 0 0 1 132.24 34.464 A 8.034 8.034 0 0 1 129.91 34.141 A 6.456 6.456 0 0 1 127.392 32.712 Q 125.472 30.96 125.472 27.6 Q 125.472 26.976 125.568 26.304 Q 125.664 25.632 125.856 24.816 Z M 154.934 34.216 A 13.008 13.008 0 0 0 157.536 34.464 Q 160.224 34.464 162.672 33.408 Q 165.12 32.352 167.04 30.456 A 13.165 13.165 0 0 0 167.564 29.908 A 13.902 13.902 0 0 0 170.064 25.92 A 13.749 13.749 0 0 0 170.652 24.201 A 15.426 15.426 0 0 0 171.168 20.16 A 14.016 14.016 0 0 0 171.01 18.017 A 10.699 10.699 0 0 0 169.944 14.688 Q 168.72 12.336 166.44 11.04 A 9.6 9.6 0 0 0 163.594 9.992 A 13.008 13.008 0 0 0 160.992 9.744 Q 158.352 9.744 155.88 10.776 Q 153.408 11.808 151.488 13.728 Q 149.568 15.648 148.464 18.288 A 13.749 13.749 0 0 0 147.876 20.007 A 15.426 15.426 0 0 0 147.36 24.048 A 14.016 14.016 0 0 0 147.518 26.191 A 10.699 10.699 0 0 0 148.584 29.52 Q 149.808 31.872 152.088 33.168 A 9.6 9.6 0 0 0 154.934 34.216 Z M 23.04 40.992 L 0 40.992 L 0.816 36.912 L 23.856 36.912 L 23.04 40.992 Z M 195.84 40.992 L 172.8 40.992 L 173.616 36.912 L 196.656 36.912 L 195.84 40.992 Z M 157.92 30.24 Q 159.504 30.24 160.944 29.472 A 8.778 8.778 0 0 0 163.37 27.547 A 10.003 10.003 0 0 0 163.512 27.384 A 9.918 9.918 0 0 0 164.972 25.081 A 11.787 11.787 0 0 0 165.312 24.264 A 10.768 10.768 0 0 0 165.956 21.197 A 12.71 12.71 0 0 0 165.984 20.352 Q 165.984 17.376 164.568 15.672 A 4.621 4.621 0 0 0 161.541 14.03 A 6.72 6.72 0 0 0 160.608 13.968 A 6.487 6.487 0 0 0 157.837 14.6 A 7.604 7.604 0 0 0 157.608 14.712 A 8.372 8.372 0 0 0 155.087 16.694 A 9.523 9.523 0 0 0 155.016 16.776 A 9.596 9.596 0 0 0 153.546 19.131 A 11.361 11.361 0 0 0 153.24 19.896 Q 152.592 21.696 152.592 23.808 A 10.449 10.449 0 0 0 152.744 25.65 Q 152.93 26.684 153.341 27.507 A 5.31 5.31 0 0 0 154.008 28.536 A 4.627 4.627 0 0 0 157.166 30.198 A 6.629 6.629 0 0 0 157.92 30.24 Z" vector-effect="non-scaling-stroke"/></g></svg>
