<svg xmlns="http://www.w3.org/2000/svg" width="512" height="512">
  <path d="M85.123 96.008c-17.68.227-35.906 5.43-53.799 15.955 36.535-5.081 60.197-2.362 60.197-2.362s-45.555 16.171-79.459 66.653c19.128-14.17 47.129-26.564 47.129-26.564s-15.938 17.09-22.426 37.334c-4.02 12.541-2.52 44.142 23.719 59.656 23.376 13.822 53.476 10.406 71.48-3.377a135 135 0 0 0-5.34 37.601A135.097 135.097 0 0 0 261.722 416a135.097 135.097 0 0 0 135.096-135.096 135 135 0 0 0-3.397-30.104c17.494 6.951 39.844 6.671 58.095-4.12 26.238-15.514 27.74-47.115 23.72-59.656-6.49-20.244-22.427-37.334-22.427-37.334s28.001 12.394 47.129 26.564c-33.904-50.482-79.459-66.653-79.459-66.653s23.661-2.719 60.197 2.362c-57.222-33.66-117.858-12.88-153.092 50.988a135.1 135.1 0 0 0-65.862-17.145 135.1 135.1 0 0 0-74.513 22.406c-24.172-47.272-61.7-72.724-102.086-72.204m176.6 84.257a100.64 100.64 0 0 1 100.638 100.64 100.64 100.64 0 0 1-100.639 100.638 100.64 100.64 0 0 1-100.64-100.639 100.64 100.64 0 0 1 100.64-100.64m0 46.605a54.034 54.034 0 0 0-54.035 54.034 54.034 54.034 0 0 0 54.034 54.034 54.034 54.034 0 0 0 54.034-54.034 54.034 54.034 0 0 0-54.034-54.034m16.141 9.21h.248a20.61 20.61 0 0 1 20.608 20.607 20.61 20.61 0 0 1-20.608 20.608 20.61 20.61 0 0 1-20.608-20.608 20.61 20.61 0 0 1 20.36-20.608" style="fill:currentColor;stroke:currentColor;fill-opacity:1;stroke-width:.264584;stroke-opacity:.223409;stop-color:currentColor"/>
</svg>
